{
.appVersion = "3084";
copyright = "Copyright 2021 The Azeret Project Authors (https://github.com/displaay/azeret)";
customParameters = (
{
name = "TrueType Curve Error";
value = 0.3;
},
{
name = "Use Typo Metrics";
value = 1;
},
{
name = fsType;
value = (
);
},
{
name = "Disable Last Change";
value = 0;
},
{
name = "Use Line Breaks";
value = 1;
},
{
name = "Variable Font Origin";
value = "15963509-F4CC-4A33-865A-02712DFE1B04";
},
{
name = license;
value = "This Font Software is licensed under the SIL Open Font License, Version 1.1. This license is available with a FAQ at: https://scripts.sil.org/OFL";
},
{
name = licenseURL;
value = "https://scripts.sil.org/OFL";
},
{
name = Axes;
value = (
{
Name = Weight;
Tag = wght;
}
);
}
);
date = "2021-03-23 22:42:24 +0000";
designer = "Martin Vácha";
designerURL = "https://displaay.net";
familyName = "Azeret Mono";
featurePrefixes = (
{
automatic = 1;
code = "languagesystem DFLT dflt;

languagesystem latn dflt;
languagesystem latn AZE;
languagesystem latn CRT;
languagesystem latn KAZ;
languagesystem latn TAT;
languagesystem latn TRK;
languagesystem latn ROM;
languagesystem latn MOL;
languagesystem latn CAT;
";
name = Languagesystems;
}
);
features = (
{
automatic = 1;
code = "feature calt;
feature locl;
feature subs;
feature sinf;
feature sups;
feature numr;
feature dnom;
feature frac;
feature ordn;
feature tnum;
feature case;
feature zero;
feature ss01;
feature ss02;
feature ss03;
feature ss04;
feature ss05;
feature ss06;
feature ss07;
feature ss08;
feature ss09;
feature ss10;
feature ss11;
feature ss12;
feature ss13;
feature ss14;
feature ss15;
feature ss16;
";
name = aalt;
},
{
code = "sub [zero one two three four five six seven eight nine ] x' [zero one two three four five six seven eight nine ] by multiply ;
sub [zero one two three four five six seven eight nine ]  x'  [zero one two three four five six seven eight nine ] by multiply ;
sub parenleft C parenright by copyright;
sub parenleft R parenright by registered;

glyphs = (
{
color = 6;
glyphname = A;
lastChange = "2021-05-25 15:15:03 +0000";
layers = (
{
anchors = (
{
name = bottom;
position = "{260, 0}";
},
{
name = ogonek;
position = "{482, 0}";
},
{
name = top;
position = "{408, 698}";
}
);
layerId = "1BFF0FF0-0E64-46D7-A9A4-916803583822";
paths = (
{
closed = 1;
nodes = (
"518 123 LINE",
"556 298 LINE",
"113 298 LINE",
"75 123 LINE"
);
},
{
closed = 1;
nodes = (
"-40 0 LINE",
"190 0 LINE",
"281 286 LINE",
"376 531 LINE",
"367 286 LINE",
"339 0 LINE",
"570 0 LINE",
"574 698 LINE",
"252 698 LINE"
);
}
);
width = 650;
},
{
anchors = (
{
name = bottom;
position = "{300, 0}";
},
{
name = ogonek;
position = "{528, 0}";
},
{
name = top;
position = "{406, 698}";
}
);
layerId = "A3B76219-B495-4A65-93FB-16A8FAD49F3F";
paths = (
{
closed = 1;
nodes = (
"510 134 LINE",
"539 269 LINE",
"128 269 LINE",
"99 134 LINE"
);
},
{
closed = 1;
nodes = (
"-34 0 LINE",
"134 0 LINE",
"311 396 LINE",
"394 582 LINE",
"396 396 LINE",
"403 0 LINE",
"566 0 LINE",
"537 698 LINE",
"290 698 LINE"
);
}
);
width = 650;
},
{
anchors = (
{
name = bottom;
position = "{263, 0}";
},
{
name = ogonek;
position = "{548, 0}";
},
{
name = top;
position = "{417, 698}";
}
);
layerId = "15963509-F4CC-4A33-865A-02712DFE1B04";
paths = (
{
closed = 1;
nodes = (
"495 218 LINE",
"504 262 LINE",
"134 262 LINE",
"125 218 LINE"
);
},
{
closed = 1;
nodes = (
"-18 0 LINE",
"35 0 LINE",
"342 536 LINE",
"404 651 LINE",
"420 536 LINE",
"505 0 LINE",
"552 0 LINE",
"440 698 LINE",
"384 698 LINE"
);
}
);
width = 650;
}
);
unicode = 0041;
},
{
color = 6;
glyphname = AE;
lastChange = "2021-05-25 15:15:03 +0000";
layers = (
{
anchors = (
{
name = bottom;
position = "{739, 0}";
},
{
name = ogonek;
position = "{1023, 0}";
},
{
name = top;
position = "{473, 698}";
}
);
layerId = "1BFF0FF0-0E64-46D7-A9A4-916803583822";
paths = (
{
closed = 1;
nodes = (
"146 0 LINE",
"473 698 LINE",
"299 698 LINE",
"-54 0 LINE"
);
},
{
closed = 1;
nodes = (
"318 106 LINE",
"357 290 LINE",
"183 290 LINE",
"144 106 LINE"
);
},
{
closed = 1;
nodes = (
"580 0 LINE",
"619 184 LINE",
"495 184 LINE",
"513 267 LINE",
"611 267 LINE",
"648 442 LINE",
"550 442 LINE",
"565 514 LINE",
"685 514 LINE",
"725 698 LINE",
"426 698 LINE",
"277 0 LINE"
);
}
);
width = 650;
},
{
anchors = (
{
name = bottom;
position = "{685, 0}";
},
{
name = ogonek;
position = "{946, 0}";
},
{
name = top;
position = "{481, 698}";
}
);
layerId = "A3B76219-B495-4A65-93FB-16A8FAD49F3F";
leftMetricsKey = "=-6";
paths = (
{
closed = 1;
nodes = (
"90 0 LINE",
"485 698 LINE",
"351 698 LINE",
"-55 0 LINE"
);
},
{
closed = 1;
nodes = (
"348 132 LINE",
"377 267 LINE",
"152 267 LINE",
"123 132 LINE"
);
},
{
closed = 1;
nodes = (
"576 0 LINE",
"605 135 LINE",
"449 135 LINE",
"482 293 LINE",
"599 293 LINE",
"628 428 LINE",
"511 428 LINE",
"540 563 LINE",
"692 563 LINE",
"720 698 LINE",
"433 698 LINE",
"285 0 LINE"
);
}
);
width = 650;
},
{
anchors = (
{
name = bottom;
position = "{617, 0}";
},
{
name = ogonek;
position = "{837, 0}";
},
{
name = top;
position = "{465, 698}";
}
);
layerId = "15963509-F4CC-4A33-865A-02712DFE1B04";
leftMetricsKey = "=22";
paths = (
{
closed = 1;
nodes = (
"15 0 LINE",
"468 698 LINE",
"417 698 LINE",
"-36 0 LINE"
);
},
{
closed = 1;
nodes = (
"353 179 LINE",
"363 224 LINE",
"123 224 LINE",
"113 179 LINE"
);
},
{
closed = 1;
nodes = (
"584 0 LINE",
"594 45 LINE",
"332 45 LINE",
"394 340 LINE",
"581 340 LINE",
"591 385 LINE",
"404 385 LINE",
"461 653 LINE",
"719 653 LINE",
"729 698 LINE",
"424 698 LINE",
"275 0 LINE"
);
}
);
width = 650;
}
);
leftMetricsKey = "=A";
rightMetricsKey = "=E";
unicode = 00C6;
},
{
color = 6;
glyphname = B;
lastChange = "2021-05-25 15:15:03 +0000";
layers = (
{
layerId = "1BFF0FF0-0E64-46D7-A9A4-916803583822";
paths = (
{
closed = 1;
nodes = (
"593 391 OFFCURVE",
"649 458 OFFCURVE",
"649 534 CURVE SMOOTH",
"649 633 OFFCURVE",
"559 698 OFFCURVE",
"422 698 CURVE SMOOTH",
"129 698 LINE",
"-20 0 LINE",
"308 0 LINE SMOOTH",
"493 0 OFFCURVE",
"613 89 OFFCURVE",
"613 225 CURVE SMOOTH",
"613 292 OFFCURVE",
"575 347 OFFCURVE",
"516 364 CURVE"
);
},
{
closed = 1;
nodes = (
"400 514 OFFCURVE",
"416 500 OFFCURVE",
"416 479 CURVE SMOOTH",
"416 449 OFFCURVE",
"393 430 OFFCURVE",
"357 430 CURVE SMOOTH",
"301 430 LINE",
"318 514 LINE",
"370 514 LINE SMOOTH"
);
},
{
closed = 1;
nodes = (
"267 272 LINE",
"329 272 LINE SMOOTH",
"364 272 OFFCURVE",
"379 256 OFFCURVE",
"379 233 CURVE SMOOTH",
"379 202 OFFCURVE",
"351 184 OFFCURVE",
"316 184 CURVE SMOOTH",
"248 184 LINE"
);
}
);
width = 650;
},
{
layerId = "A3B76219-B495-4A65-93FB-16A8FAD49F3F";
paths = (
{
closed = 1;
nodes = (
"593 387 OFFCURVE",
"648 450 OFFCURVE",
"648 531 CURVE SMOOTH",
"648 623 OFFCURVE",
"563 698 OFFCURVE",
"426 698 CURVE SMOOTH",
"154 698 LINE",
"6 0 LINE",
"298 0 LINE SMOOTH",
"462 0 OFFCURVE",
"605 82 OFFCURVE",
"605 231 CURVE SMOOTH",
"605 288 OFFCURVE",
"571 334 OFFCURVE",
"514 355 CURVE"
);
},
{
closed = 1;
nodes = (
"446 563 OFFCURVE",
"476 535 OFFCURVE",
"476 500 CURVE SMOOTH",
"476 450 OFFCURVE",
"435 418 OFFCURVE",
"371 418 CURVE SMOOTH",
"260 418 LINE",
"291 563 LINE",
"398 563 LINE SMOOTH"
);
},
{
closed = 1;
nodes = (
"231 283 LINE",
"352 283 LINE SMOOTH",
"403 283 OFFCURVE",
"432 257 OFFCURVE",
"432 221 CURVE SMOOTH",
"432 169 OFFCURVE",
"389 135 OFFCURVE",
"322 135 CURVE SMOOTH",
"200 135 LINE"
);
}
);
width = 650;
},
{
layerId = "15963509-F4CC-4A33-865A-02712DFE1B04";
paths = (
{
closed = 1;
nodes = (
"543 376 OFFCURVE",
"619 452 OFFCURVE",
"619 544 CURVE SMOOTH",
"619 641 OFFCURVE",
"543 698 OFFCURVE",
"430 698 CURVE SMOOTH",
"194 698 LINE",
"45 0 LINE",
"304 0 LINE SMOOTH",
"464 0 OFFCURVE",
"566 82 OFFCURVE",
"566 209 CURVE SMOOTH",
"566 295 OFFCURVE",
"511 348 OFFCURVE",
"450 360 CURVE"
);
},
{
closed = 1;
nodes = (
"512 653 OFFCURVE",
"566 613 OFFCURVE",
"566 542 CURVE SMOOTH",
"566 453 OFFCURVE",
"481 384 OFFCURVE",
"369 384 CURVE SMOOTH",
"174 384 LINE",
"231 653 LINE",
"427 653 LINE SMOOTH"
);
},
{
closed = 1;
nodes = (
"164 339 LINE",
"351 339 LINE SMOOTH",
"454 339 OFFCURVE",
"515 290 OFFCURVE",
"515 207 CURVE SMOOTH",
"515 112 OFFCURVE",
"435 45 OFFCURVE",
"307 45 CURVE SMOOTH",
"102 45 LINE"
);
}
);
width = 650;
}
);
leftMetricsKey = H;
unicode = 0042;
},
{
color = 6;
glyphname = C;
lastChange = "2021-05-25 15:15:03 +0000";
layers = (
{
anchors = (
{
name = bottom;
position = "{322, 0}";
},
{
name = center;
position = "{323, 226}";
},
{
name = ogonek;
position = "{350, 0}";
},
{
name = top;
position = "{382, 700}";
},
{
name = topleft;
position = "{135, 700}";
},
{
name = topright;
position = "{713, 700}";
}
);
layerId = "1BFF0FF0-0E64-46D7-A9A4-916803583822";
paths = (
{
closed = 1;
nodes = (
"508 -12 OFFCURVE",
"589 97 OFFCURVE",
"632 264 CURVE",
"407 264 LINE",
"399 211 OFFCURVE",
"370 172 OFFCURVE",
"328 172 CURVE SMOOTH",
"279 172 OFFCURVE",
"258 212 OFFCURVE",
"258 291 CURVE SMOOTH",
"258 373 OFFCURVE",
"293 526 OFFCURVE",
"377 526 CURVE SMOOTH",
"416 526 OFFCURVE",
"431 490 OFFCURVE",
"431 438 CURVE",
"656 438 LINE",
"665 602 OFFCURVE",
"555 710 OFFCURVE",
"392 710 CURVE SMOOTH",
"156 710 OFFCURVE",
"25 506 OFFCURVE",
"25 276 CURVE SMOOTH",
"25 108 OFFCURVE",
"146 -12 OFFCURVE",
"310 -12 CURVE SMOOTH"
);
}
);
width = 650;
},
{
anchors = (
{
name = bottom;
position = "{308, 0}";
},
{
name = center;
position = "{352, 349}";
},
{
name = ogonek;
position = "{355, 0}";
},
{
name = top;
position = "{377, 700}";
},
{
name = topleft;
position = "{125, 700}";
},
{
name = topright;
position = "{728, 700}";
}
);
layerId = "A3B76219-B495-4A65-93FB-16A8FAD49F3F";
paths = (
{
closed = 1;
nodes = (
"493 -12 OFFCURVE",
"594 85 OFFCURVE",
"625 239 CURVE",
"445 239 LINE",
"430 164 OFFCURVE",
"384 123 OFFCURVE",
"316 123 CURVE SMOOTH",
"243 123 OFFCURVE",
"208 190 OFFCURVE",
"209 279 CURVE SMOOTH",
"210 413 OFFCURVE",
"261 575 OFFCURVE",
"390 575 CURVE SMOOTH",
"446 575 OFFCURVE",
"480 535 OFFCURVE",
"484 463 CURVE",
"664 463 LINE",
"666 621 OFFCURVE",
"553 710 OFFCURVE",
"404 710 CURVE SMOOTH",
"179 710 OFFCURVE",
"37 537 OFFCURVE",
"37 270 CURVE SMOOTH",
"37 99 OFFCURVE",
"137 -12 OFFCURVE",
"307 -12 CURVE SMOOTH"
);
}
);
width = 650;
},
{
anchors = (
{
name = bottom;
position = "{309, 0}";
},
{
name = center;
position = "{354, 351}";
},
{
name = ogonek;
position = "{355, 0}";
},
{
name = top;
position = "{398, 700}";
},
{
name = topleft;
position = "{118, 700}";
},
{
name = topright;
position = "{737, 700}";
}
);
layerId = "15963509-F4CC-4A33-865A-02712DFE1B04";
paths = (
{
closed = 1;
nodes = (
"456 -12 OFFCURVE",
"555 85 OFFCURVE",
"598 228 CURVE",
"545 228 LINE",
"510 113 OFFCURVE",
"429 33 OFFCURVE",
"310 33 CURVE SMOOTH",
"175 33 OFFCURVE",
"107 137 OFFCURVE",
"107 272 CURVE SMOOTH",
"107 469 OFFCURVE",
"222 665 OFFCURVE",
"402 665 CURVE SMOOTH",
"527 665 OFFCURVE",
"582 602 OFFCURVE",
"585 481 CURVE",
"638 481 LINE",
"639 627 OFFCURVE",
"560 710 OFFCURVE",
"409 710 CURVE SMOOTH",
"187 710 OFFCURVE",
"55 501 OFFCURVE",
"55 269 CURVE SMOOTH",
"55 118 OFFCURVE",
"136 -12 OFFCURVE",
"306 -12 CURVE SMOOTH"
);
}
);
width = 650;
}
);
leftMetricsKey = O;
unicode = 0043;
},
{
color = 6;
glyphname = D;
lastChange = "2021-05-25 15:15:03 +0000";
layers = (
{
anchors = (
{
name = top;
position = "{371, 699}";
}
);
layerId = "1BFF0FF0-0E64-46D7-A9A4-916803583822";
paths = (
{
closed = 1;
nodes = (
"226 0 LINE SMOOTH",
"473 0 OFFCURVE",
"649 165 OFFCURVE",
"649 407 CURVE SMOOTH",
"649 555 OFFCURVE",
"553 698 OFFCURVE",
"355 698 CURVE SMOOTH",
"121 698 LINE",
"-28 0 LINE"
);
},
{
closed = 1;
nodes = (
"310 514 LINE",
"326 514 LINE SMOOTH",
"375 514 OFFCURVE",
"412 471 OFFCURVE",
"412 396 CURVE SMOOTH",
"412 298 OFFCURVE",
"355 184 OFFCURVE",
"256 184 CURVE SMOOTH",
"240 184 LINE"
);
}
);
width = 650;
},
{
anchors = (
{
name = top;
position = "{363, 699}";
}
);
layerId = "A3B76219-B495-4A65-93FB-16A8FAD49F3F";
paths = (
{
closed = 1;
nodes = (
"230 0 LINE SMOOTH",
"476 0 OFFCURVE",
"645 171 OFFCURVE",
"645 417 CURVE SMOOTH",
"645 573 OFFCURVE",
"546 698 OFFCURVE",
"368 698 CURVE SMOOTH",
"143 698 LINE",
"-5 0 LINE"
);
},
{
closed = 1;
nodes = (
"280 563 LINE",
"340 563 LINE SMOOTH",
"427 563 OFFCURVE",
"473 499 OFFCURVE",
"473 411 CURVE SMOOTH",
"473 270 OFFCURVE",
"396 135 OFFCURVE",
"259 135 CURVE SMOOTH",
"189 135 LINE"
);
}
);
width = 650;
},
{
anchors = (
{
name = top;
position = "{378, 699}";
}
);
layerId = "15963509-F4CC-4A33-865A-02712DFE1B04";
paths = (
{
closed = 1;
nodes = (
"228 0 LINE SMOOTH",
"465 0 OFFCURVE",
"625 191 OFFCURVE",
"625 430 CURVE SMOOTH",
"625 585 OFFCURVE",
"525 698 OFFCURVE",
"361 698 CURVE SMOOTH",
"174 698 LINE",
"25 0 LINE"
);
},
{
closed = 1;
nodes = (
"211 653 LINE",
"359 653 LINE SMOOTH",
"496 653 OFFCURVE",
"572 561 OFFCURVE",
"572 427 CURVE SMOOTH",
"572 224 OFFCURVE",
"433 45 OFFCURVE",
"230 45 CURVE SMOOTH",
"82 45 LINE"
);
}
);
width = 650;
}
);
leftMetricsKey = H;
rightMetricsKey = "=O";
unicode = 0044;
},
{
color = 3;
glyphname = Eth;
lastChange = "2021-05-25 15:15:03 +0000";
layers = (
{
anchors = (
{
name = _center;
position = "{168, 350}";
}
);
components = (
{
alignment = -1;
name = D;
}
);
layerId = "1BFF0FF0-0E64-46D7-A9A4-916803583822";
paths = (
{
closed = 1;
nodes = (
"353 281 LINE",
"382 417 LINE",
"30 417 LINE",
"1 281 LINE"
);
}
);
width = 650;
},
{
anchors = (
{
name = _center;
position = "{289, 351}";
}
);
components = (
{
alignment = -1;
name = D;
}
);
layerId = "A3B76219-B495-4A65-93FB-16A8FAD49F3F";
paths = (
{
closed = 1;
nodes = (
"386 289 LINE",
"413 414 LINE",
"30 414 LINE",
"3 289 LINE"
);
}
);
width = 650;
},
{
anchors = (
{
name = _center;
position = "{307, 350}";
}
);
components = (
{
name = D;
}
);
layerId = "15963509-F4CC-4A33-865A-02712DFE1B04";
paths = (
{
closed = 1;
nodes = (
"377 331 LINE",
"385 369 LINE",
"24 369 LINE",
"16 331 LINE"
);
}
);
width = 650;
}
);
rightMetricsKey = D;
unicode = 00D0;
},
{
color = 6;
glyphname = E;
lastChange = "2021-05-25 15:15:03 +0000";
layers = (
{
anchors = (
{
name = bottom;
position = "{258, 0}";
},
{
name = ogonek;
position = "{542, 0}";
},
{
name = top;
position = "{402, 699}";
}
);
layerId = "1BFF0FF0-0E64-46D7-A9A4-916803583822";
paths = (
{
closed = 1;
nodes = (
"542 0 LINE",
"581 184 LINE",
"254 184 LINE",
"272 267 LINE",
"473 267 LINE",
"510 442 LINE",
"309 442 LINE",
"324 514 LINE",
"647 514 LINE",
"687 698 LINE",
"135 698 LINE",
"-14 0 LINE"
);
}
);
width = 650;
},
{
anchors = (
{
name = bottom;
position = "{264, 0}";
},
{
name = ogonek;
position = "{535, 0}";
},
{
name = top;
position = "{411, 699}";
}
);
layerId = "A3B76219-B495-4A65-93FB-16A8FAD49F3F";
paths = (
{
closed = 1;
nodes = (
"535 0 LINE",
"564 135 LINE",
"208 135 LINE",
"241 293 LINE",
"468 293 LINE",
"497 428 LINE",
"270 428 LINE",
"299 563 LINE",
"651 563 LINE",
"679 698 LINE",
"162 698 LINE",
"14 0 LINE"
);
}
);
width = 650;
},
{
anchors = (
{
name = bottom;
position = "{274, 0}";
},
{
name = ogonek;
position = "{524, 0}";
},
{
name = top;
position = "{425, 699}";
}
);
layerId = "15963509-F4CC-4A33-865A-02712DFE1B04";
paths = (
{
closed = 1;
nodes = (
"524 0 LINE",
"534 45 LINE",
"92 45 LINE",
"154 340 LINE",
"471 340 LINE",
"481 385 LINE",
"164 385 LINE",
"221 653 LINE",
"659 653 LINE",
"669 698 LINE",
"184 698 LINE",
"35 0 LINE"
);
}
);
width = 650;
}
);
leftMetricsKey = H;
unicode = 0045;
},
{
color = 6;
glyphname = F;
lastChange = "2021-05-25 15:15:03 +0000";
layers = (
{
layerId = "1BFF0FF0-0E64-46D7-A9A4-916803583822";
paths = (
{
closed = 1;
nodes = (
"222 0 LINE",
"279 267 LINE",
"480 267 LINE",
"517 442 LINE",
"316 442 LINE",
"331 514 LINE",
"654 514 LINE",
"694 698 LINE",
"142 698 LINE",
"-7 0 LINE"
);
}
);
width = 650;
},
{
layerId = "A3B76219-B495-4A65-93FB-16A8FAD49F3F";
paths = (
{
closed = 1;
nodes = (
"169 0 LINE",
"231 293 LINE",
"468 293 LINE",
"497 428 LINE",
"260 428 LINE",
"289 563 LINE",
"651 563 LINE",
"679 698 LINE",
"152 698 LINE",
"4 0 LINE"
);
}
);
width = 650;
},
{
layerId = "15963509-F4CC-4A33-865A-02712DFE1B04";
paths = (
{
closed = 1;
nodes = (
"79 0 LINE",
"151 340 LINE",
"468 340 LINE",
"478 385 LINE",
"161 385 LINE",
"218 653 LINE",
"656 653 LINE",
"666 698 LINE",
"181 698 LINE",
"32 0 LINE"
);
}
);
width = 650;
}
);
leftMetricsKey = H;
unicode = 0046;
},
{
color = 6;
glyphname = G;
lastChange = "2021-05-25 15:15:03 +0000";
layers = (
{
anchors = (
{
name = bottom;
position = "{311, 0}";
},
{
name = top;
position = "{386, 699}";
}
);
layerId = "1BFF0FF0-0E64-46D7-A9A4-916803583822";
paths = (
{
closed = 1;
nodes = (
"444 -12 OFFCURVE",
"509 37 OFFCURVE",
"593 123 CURVE",
"653 405 LINE",
"369 405 LINE",
"329 240 LINE",
"390 245 LINE",
"380 195 LINE",
"357 180 OFFCURVE",
"349 172 OFFCURVE",
"322 172 CURVE SMOOTH",
"269 172 OFFCURVE",
"254 230 OFFCURVE",
"254 287 CURVE SMOOTH",
"254 398 OFFCURVE",
"293 526 OFFCURVE",
"368 526 CURVE SMOOTH",
"402 526 OFFCURVE",
"418 495 OFFCURVE",
"416 463 CURVE",
"651 463 LINE",
"664 605 OFFCURVE",
"547 710 OFFCURVE",
"387 710 CURVE SMOOTH",
"126 710 OFFCURVE",
"21 479 OFFCURVE",
"21 281 CURVE SMOOTH",
"21 89 OFFCURVE",
"158 -12 OFFCURVE",
"305 -12 CURVE SMOOTH"
);
}
);
width = 650;
},
{
anchors = (
{
name = bottom;
position = "{311, 0}";
},
{
name = top;
position = "{390, 699}";
}
);
layerId = "A3B76219-B495-4A65-93FB-16A8FAD49F3F";
paths = (
{
closed = 1;
nodes = (
"427 -12 OFFCURVE",
"506 37 OFFCURVE",
"583 119 CURVE",
"638 376 LINE",
"388 376 LINE",
"354 239 LINE",
"448 244 LINE",
"431 165 LINE",
"393 135 OFFCURVE",
"358 123 OFFCURVE",
"309 123 CURVE SMOOTH",
"239 123 OFFCURVE",
"198 185 OFFCURVE",
"198 279 CURVE SMOOTH",
"198 407 OFFCURVE",
"248 575 OFFCURVE",
"379 575 CURVE SMOOTH",
"444 575 OFFCURVE",
"471 522 OFFCURVE",
"473 463 CURVE",
"653 463 LINE",
"657 606 OFFCURVE",
"558 710 OFFCURVE",
"392 710 CURVE SMOOTH",
"150 710 OFFCURVE",
"26 517 OFFCURVE",
"26 268 CURVE SMOOTH",
"26 98 OFFCURVE",
"129 -12 OFFCURVE",
"300 -12 CURVE SMOOTH"
);
}
);
width = 650;
},
{
anchors = (
{
name = bottom;
position = "{303, 0}";
},
{
name = top;
position = "{402, 698}";
}
);
layerId = "15963509-F4CC-4A33-865A-02712DFE1B04";
paths = (
{
closed = 1;
nodes = (
"407 -12 OFFCURVE",
"495 31 OFFCURVE",
"562 106 CURVE",
"616 362 LINE",
"419 362 LINE",
"408 317 LINE",
"559 320 LINE",
"517 122 LINE",
"469 74 OFFCURVE",
"396 33 OFFCURVE",
"311 33 CURVE SMOOTH",
"193 33 OFFCURVE",
"108 127 OFFCURVE",
"108 274 CURVE SMOOTH",
"108 449 OFFCURVE",
"199 665 OFFCURVE",
"407 665 CURVE SMOOTH",
"535 665 OFFCURVE",
"584 591 OFFCURVE",
"586 481 CURVE",
"639 481 LINE",
"643 612 OFFCURVE",
"568 710 OFFCURVE",
"417 710 CURVE SMOOTH",
"165 710 OFFCURVE",
"56 486 OFFCURVE",
"56 273 CURVE SMOOTH",
"56 106 OFFCURVE",
"155 -12 OFFCURVE",
"309 -12 CURVE SMOOTH"
);
}
);
width = 650;
}
);
leftMetricsKey = "=O";
unicode = 0047;
},
{
color = 6;
glyphname = H;
lastChange = "2021-05-25 15:15:03 +0000";
layers = (
{
anchors = (
{
name = center;
position = "{385, 569}";
},
{
name = top;
position = "{410, 699}";
}
);
layerId = "1BFF0FF0-0E64-46D7-A9A4-916803583822";
paths = (
{
closed = 1;
nodes = (
"557 0 LINE",
"706 698 LINE",
"477 698 LINE",
"328 0 LINE"
);
},
{
closed = 1;
nodes = (
"202 0 LINE",
"351 698 LINE",
"122 698 LINE",
"-27 0 LINE"
);
},
{
closed = 1;
nodes = (
"403 267 LINE",
"442 450 LINE",
"278 450 LINE",
"239 267 LINE"
);
}
);
width = 650;
},
{
anchors = (
{
name = center;
position = "{385, 558}";
},
{
name = top;
position = "{414, 699}";
}
);
layerId = "A3B76219-B495-4A65-93FB-16A8FAD49F3F";
paths = (
{
closed = 1;
nodes = (
"549 0 LINE",
"697 698 LINE",
"532 698 LINE",
"384 0 LINE"
);
},
{
closed = 1;
nodes = (
"149 0 LINE",
"297 698 LINE",
"132 698 LINE",
"-16 0 LINE"
);
},
{
closed = 1;
nodes = (
"462 293 LINE",
"491 428 LINE",
"223 428 LINE",
"194 293 LINE"
);
}
);
width = 650;
},
{
anchors = (
{
name = center;
position = "{382, 538}";
},
{
name = top;
position = "{416, 699}";
}
);
layerId = "15963509-F4CC-4A33-865A-02712DFE1B04";
paths = (
{
closed = 1;
nodes = (
"504 0 LINE",
"653 698 LINE",
"606 698 LINE",
"457 0 LINE"
);
},
{
closed = 1;
nodes = (
"77 0 LINE",
"226 698 LINE",
"179 698 LINE",
"30 0 LINE"
);
},
{
closed = 1;
nodes = (
"541 340 LINE",
"551 385 LINE",
"147 385 LINE",
"137 340 LINE"
);
}
);
width = 650;
}
);
unicode = 0048;
},
{
color = 6;
glyphname = I;
lastChange = "2021-05-25 15:15:03 +0000";
layers = (
{
anchors = (
{
name = bottom;
position = "{266, 0}";
},
{
name = ogonek;
position = "{362, 0}";
},
{
name = top;
position = "{407, 699}";
},
{
name = topleft;
position = "{263, 699}";
}
);
layerId = "1BFF0FF0-0E64-46D7-A9A4-916803583822";
paths = (
{
closed = 1;
nodes = (
"379 0 LINE",
"528 698 LINE",
"299 698 LINE",
"150 0 LINE"
);
},
{
closed = 1;
nodes = (
"121 514 LINE",
"626 514 LINE",
"666 698 LINE",
"161 698 LINE"
);
},
{
closed = 1;
nodes = (
"12 0 LINE",
"517 0 LINE",
"556 184 LINE",
"51 184 LINE"
);
}
);
width = 650;
},
{
anchors = (
{
name = bottom;
position = "{266, 0}";
},
{
name = ogonek;
position = "{338, 0}";
},
{
name = top;
position = "{405, 699}";
},
{
name = topleft;
position = "{283, 699}";
}
);
layerId = "A3B76219-B495-4A65-93FB-16A8FAD49F3F";
paths = (
{
closed = 1;
nodes = (
"348 0 LINE",
"496 698 LINE",
"331 698 LINE",
"183 0 LINE"
);
},
{
closed = 1;
nodes = (
"143 563 LINE",
"628 563 LINE",
"656 698 LINE",
"171 698 LINE"
);
},
{
closed = 1;
nodes = (
"23 0 LINE",
"508 0 LINE",
"537 135 LINE",
"52 135 LINE"
);
}
);
width = 650;
},
{
anchors = (
{
name = bottom;
position = "{266, 0}";
},
{
name = ogonek;
position = "{290, 0}";
},
{
name = top;
position = "{415, 699}";
},
{
name = topleft;
position = "{321, 699}";
}
);
layerId = "15963509-F4CC-4A33-865A-02712DFE1B04";
paths = (
{
closed = 1;
nodes = (
"290 0 LINE",
"439 698 LINE",
"392 698 LINE",
"243 0 LINE"
);
},
{
closed = 1;
nodes = (
"193 653 LINE",
"618 653 LINE",
"628 698 LINE",
"203 698 LINE"
);
},
{
closed = 1;
nodes = (
"54 0 LINE",
"479 0 LINE",
"489 45 LINE",
"64 45 LINE"
);
}
);
width = 650;
}
);
unicode = 0049;
},
{
color = 6;
glyphname = J;
lastChange = "2021-05-25 15:15:03 +0000";
layers = (
{
anchors = (
{
name = top;
position = "{438, 699}";
}
);
layerId = "1BFF0FF0-0E64-46D7-A9A4-916803583822";
paths = (
{
closed = 1;
nodes = (
"289 0 LINE SMOOTH",
"503 0 OFFCURVE",
"555 110 OFFCURVE",
"583 240 CURVE SMOOTH",
"681 698 LINE",
"452 698 LINE",
"355 247 LINE SMOOTH",
"348 213 OFFCURVE",
"327 183 OFFCURVE",
"275 183 CURVE SMOOTH",
"42 183 LINE",
"3 0 LINE"
);
},
{
closed = 1;
nodes = (
"171 514 LINE",
"626 514 LINE",
"666 698 LINE",
"211 698 LINE"
);
}
);
width = 650;
},
{
anchors = (
{
name = top;
position = "{463, 699}";
}
);
layerId = "A3B76219-B495-4A65-93FB-16A8FAD49F3F";
paths = (
{
closed = 1;
nodes = (
"313 0 LINE SMOOTH",
"486 0 OFFCURVE",
"539 80 OFFCURVE",
"565 201 CURVE SMOOTH",
"670 698 LINE",
"505 698 LINE",
"403 216 LINE SMOOTH",
"391 160 OFFCURVE",
"368 135 OFFCURVE",
"304 135 CURVE SMOOTH",
"60 135 LINE",
"31 0 LINE"
);
},
{
closed = 1;
nodes = (
"243 563 LINE",
"628 563 LINE",
"656 698 LINE",
"271 698 LINE"
);
}
);
width = 650;
},
{
anchors = (
{
name = top;
position = "{454, 699}";
}
);
layerId = "15963509-F4CC-4A33-865A-02712DFE1B04";
paths = (
{
closed = 1;
nodes = (
"312 0 LINE SMOOTH",
"411 0 OFFCURVE",
"480 56 OFFCURVE",
"501 153 CURVE SMOOTH",
"617 698 LINE",
"570 698 LINE",
"453 151 LINE SMOOTH",
"438 83 OFFCURVE",
"390 45 OFFCURVE",
"318 45 CURVE SMOOTH",
"63 45 LINE",
"53 0 LINE"
);
},
{
closed = 1;
nodes = (
"263 653 LINE",
"606 653 LINE",
"616 698 LINE",
"273 698 LINE"
);
}
);
width = 650;
}
);
unicode = 004A;
},
{
color = 6;
glyphname = K;
lastChange = "2021-05-25 15:15:03 +0000";
layers = (
{
anchors = (
{
name = bottom;
position = "{278, 0}";
},
{
name = top;
position = "{387, 699}";
}
);
layerId = "1BFF0FF0-0E64-46D7-A9A4-916803583822";
paths = (
{
closed = 1;
nodes = (
"191 0 LINE",
"229 177 LINE",
"727 698 LINE",
"479 698 LINE",
"383 585 LINE",
"262 432 LINE",
"322 614 LINE",
"340 698 LINE",
"111 698 LINE",
"-38 0 LINE"
);
},
{
closed = 1;
nodes = (
"580 0 LINE",
"456 445 LINE",
"253 357 LINE",
"338 0 LINE"
);
}
);
width = 650;
},
{
anchors = (
{
name = bottom;
position = "{279, 0}";
},
{
name = top;
position = "{398, 699}";
}
);
layerId = "A3B76219-B495-4A65-93FB-16A8FAD49F3F";
paths = (
{
closed = 1;
nodes = (
"154 0 LINE",
"198.197 208.442 LINE",
"709 698 LINE",
"510 698 LINE",
"347 540 LINE",
"225 407 LINE",
"268 538 LINE",
"302 698 LINE",
"137 698 LINE",
"-11 0 LINE"
);
},
{
closed = 1;
nodes = (
"571 0 LINE",
"412 455 LINE",
"259 377 LINE",
"384 0 LINE"
);
}
);
width = 650;
},
{
anchors = (
{
name = bottom;
position = "{291, 0}";
},
{
name = top;
position = "{420, 699}";
}
);
layerId = "15963509-F4CC-4A33-865A-02712DFE1B04";
paths = (
{
closed = 1;
nodes = (
"99 0 LINE",
"158.99 281.027 LINE",
"673 698 LINE",
"604 698 LINE",
"280 434 LINE",
"173 347 LINE",
"202 481 LINE",
"248 698 LINE",
"201 698 LINE",
"52 0 LINE"
);
},
{
closed = 1;
nodes = (
"548 0 LINE",
"303 436 LINE",
"264 405 LINE",
"491 0 LINE"
);
}
);
width = 650;
}
);
leftMetricsKey = H;
unicode = 004B;
},
{
color = 6;
glyphname = L;
lastChange = "2021-05-25 15:15:03 +0000";
layers = (
{
anchors = (
{
name = bottom;
position = "{278, 0}";
},
{
name = top;
position = "{265, 699}";
}
);
layerId = "1BFF0FF0-0E64-46D7-A9A4-916803583822";
paths = (
{
closed = 1;
nodes = (
"539 0 LINE",
"578 184 LINE",
"264 184 LINE",
"374 698 LINE",
"145 698 LINE",
"-4 0 LINE"
);
}
);
width = 650;
},
{
anchors = (
{
name = bottom;
position = "{298, 0}";
},
{
name = top;
position = "{255, 699}";
}
);
layerId = "A3B76219-B495-4A65-93FB-16A8FAD49F3F";
paths = (
{
closed = 1;
nodes = (
"527 0 LINE",
"556 135 LINE",
"218 135 LINE",
"337 698 LINE",
"172 698 LINE",
"24 0 LINE"
);
}
);
width = 650;
},
{
anchors = (
{
name = bottom;
position = "{282, 0}";
},
{
name = top;
position = "{250, 699}";
}
);
layerId = "15963509-F4CC-4A33-865A-02712DFE1B04";
paths = (
{
closed = 1;
nodes = (
"519 0 LINE",
"529 45 LINE",
"136 45 LINE",
"275 698 LINE",
"228 698 LINE",
"79 0 LINE"
);
}
);
width = 650;
}
);
leftMetricsKey = H;
unicode = 004C;
},
{
color = 3;
glyphname = Lslash;
lastChange = "2021-05-25 15:15:03 +0000";
layers = (
{
components = (
{
name = L;
}
);
layerId = "1BFF0FF0-0E64-46D7-A9A4-916803583822";
paths = (
{
closed = 1;
nodes = (
"498 371 LINE",
"535 546 LINE",
"28 378 LINE",
"-10 203 LINE"
);
}
);
width = 650;
},
{
components = (
{
name = L;
}
);
layerId = "A3B76219-B495-4A65-93FB-16A8FAD49F3F";
paths = (
{
closed = 1;
nodes = (
"449 375 LINE",
"477 510 LINE",
"29 362 LINE",
"0 227 LINE"
);
}
);
width = 650;
},
{
components = (
{
name = L;
}
);
layerId = "15963509-F4CC-4A33-865A-02712DFE1B04";
paths = (
{
closed = 1;
nodes = (
"371 401 LINE",
"380 443 LINE",
"41 332 LINE",
"32 290 LINE"
);
}
);
width = 650;
}
);
unicode = 0141;
},
{
color = 6;
glyphname = M;
lastChange = "2021-05-25 15:15:03 +0000";
layers = (
{
layerId = "1BFF0FF0-0E64-46D7-A9A4-916803583822";
paths = (
{
closed = 1;
nodes = (
"134 0 LINE",
"201 299 LINE",
"248 516 LINE",
"226 299 LINE",
"193 0 LINE",
"334 0 LINE",
"432 299 LINE",
"499 510 LINE",
"456 299 LINE",
"393 0 LINE",
"576 0 LINE",
"698 698 LINE",
"441 698 LINE",
"365 439 LINE",
"325 286 LINE",
"347 439 LINE",
"381 698 LINE",
"132 698 LINE",
"-44 0 LINE"
);
}
);
width = 650;
},
{
layerId = "A3B76219-B495-4A65-93FB-16A8FAD49F3F";
paths = (
{
closed = 1;
nodes = (
"111 0 LINE",
"188 327 LINE",
"231 529 LINE",
"215 327 LINE",
"202 0 LINE",
"329 0 LINE",
"452 327 LINE",
"523 526 LINE",
"480 327 LINE",
"417 0 LINE",
"577 0 LINE",
"677 698 LINE",
"477 698 LINE",
"361 384 LINE",
"313 242 LINE",
"327 384 LINE",
"346 698 LINE",
"152 698 LINE",
"-44 0 LINE"
);
}
);
width = 650;
},
{
layerId = "15963509-F4CC-4A33-865A-02712DFE1B04";
paths = (
{
closed = 1;
nodes = (
"24 0 LINE",
"179 528 LINE",
"214 645 LINE",
"213 528 LINE",
"238 0 LINE",
"292 0 LINE",
"544 528 LINE",
"595 642 LINE",
"578 528 LINE",
"510 0 LINE",
"558 0 LINE",
"649 698 LINE",
"579 698 LINE",
"320 163 LINE",
"277 72 LINE",
"274 163 LINE",
"249 698 LINE",
"184 698 LINE",
"-22 0 LINE"
);
}
);
width = 650;
},
{
associatedMasterId = "15963509-F4CC-4A33-865A-02712DFE1B04";
layerId = "B0E8AD0C-0451-43D5-8230-6F8FAAE45BFE";
name = "{500}";
paths = (
{
closed = 1;
nodes = (
"82 0 LINE",
"185 394 LINE",
"225 568 LINE",
"214 394 LINE",
"214 0 LINE",
"317 0 LINE",
"483 394 LINE",
"547 565 LINE",
"513 394 LINE",
"448 0 LINE",
"571 0 LINE",
"668 698 LINE",
"511 698 LINE",
"347 310 LINE",
"301 185 LINE",
"309 310 LINE",
"314 698 LINE",
"163 698 LINE",
"-37 0 LINE"
);
}
);
width = 650;
}
);
unicode = 004D;
},
{
color = 6;
glyphname = N;
lastChange = "2021-05-25 15:15:03 +0000";
layers = (
{
anchors = (
{
name = bottom;
position = "{271, 0}";
},
{
name = top;
position = "{420, 699}";
}
);
layerId = "1BFF0FF0-0E64-46D7-A9A4-916803583822";
paths = (
{
closed = 1;
nodes = (
"183 0 LINE",
"226 201 LINE",
"248 413 LINE",
"292 0 LINE",
"550 0 LINE",
"699 698 LINE",
"497 698 LINE",
"454 498 LINE",
"426 268 LINE",
"379 698 LINE",
"130 698 LINE",
"-19 0 LINE"
);
}
);
width = 650;
},
{
anchors = (
{
name = bottom;
position = "{271, 0}";
},
{
name = top;
position = "{419, 699}";
}
);
layerId = "A3B76219-B495-4A65-93FB-16A8FAD49F3F";
paths = (
{
closed = 1;
nodes = (
"147 0 LINE",
"198 240 LINE",
"237 485 LINE",
"341 0 LINE",
"541 0 LINE",
"689 698 LINE",
"534 698 LINE",
"483 458 LINE",
"440 204 LINE",
"340 698 LINE",
"140 698 LINE",
"-8 0 LINE"
);
}
);
width = 650;
},
{
anchors = (
{
name = bottom;
position = "{268, 0}";
},
{
name = top;
position = "{417, 699}";
}
);
layerId = "15963509-F4CC-4A33-865A-02712DFE1B04";
paths = (
{
closed = 1;
nodes = (
"74 0 LINE",
"170 450 LINE",
"202 627 LINE",
"460 0 LINE",
"510 0 LINE",
"659 698 LINE",
"610 698 LINE",
"514 249 LINE",
"481 69 LINE",
"225 698 LINE",
"174 698 LINE",
"25 0 LINE"
);
}
);
width = 650;
}
);
leftMetricsKey = "=H";
rightMetricsKey = "=H";
unicode = 004E;
},
{
color = 6;
glyphname = Eng;
lastChange = "2021-05-25 15:15:03 +0000";
layers = (
{
layerId = "1BFF0FF0-0E64-46D7-A9A4-916803583822";
paths = (
{
closed = 1;
nodes = (
"550 0 LINE",
"699 698 LINE",
"497 698 LINE",
"454 498 LINE",
"426 268 LINE",
"379 698 LINE",
"130 698 LINE",
"-19 0 LINE",
"183 0 LINE",
"226 201 LINE",
"248 413 LINE",
"293 1 LINE"
);
},
{
closed = 1;
nodes = (
"308 -178 LINE SMOOTH",
"430 -178 OFFCURVE",
"527 -107 OFFCURVE",
"550 0 CURVE SMOOTH",
"568 84 LINE",
"318 84 LINE",
"308 36 LINE SMOOTH",
"300 -4 OFFCURVE",
"271 -26 OFFCURVE",
"225 -26 CURVE SMOOTH",
"184 -26 LINE",
"151 -178 LINE"
);
}
);
width = 650;
},
{
layerId = "A3B76219-B495-4A65-93FB-16A8FAD49F3F";
paths = (
{
closed = 1;
nodes = (
"541 0 LINE",
"689 698 LINE",
"534 698 LINE",
"483 458 LINE",
"440 204 LINE",
"340 698 LINE",
"140 698 LINE",
"-8 0 LINE",
"147 0 LINE",
"198 240 LINE",
"237 485 LINE",
"340 -46 LINE"
);
},
{
closed = 1;
nodes = (
"314 -178 LINE SMOOTH",
"427 -178 OFFCURVE",
"520 -96 OFFCURVE",
"541 0 CURVE SMOOTH",
"559 83 LINE",
"382 83 LINE",
"366 12 LINE SMOOTH",
"354 -42 OFFCURVE",
"317 -52 OFFCURVE",
"259 -52 CURVE SMOOTH",
"227 -52 LINE",
"200 -178 LINE"
);
}
);
width = 650;
},
{
layerId = "15963509-F4CC-4A33-865A-02712DFE1B04";
paths = (
{
closed = 1;
nodes = (
"510 0 LINE",
"659 698 LINE",
"610 698 LINE",
"514 249 LINE",
"481 69 LINE",
"225 698 LINE",
"174 698 LINE",
"25 0 LINE",
"74 0 LINE",
"170 450 LINE",
"202 627 LINE",
"470 -25 LINE"
);
},
{
closed = 1;
nodes = (
"335 -178 LINE SMOOTH",
"437 -178 OFFCURVE",
"485 -124 OFFCURVE",
"503 -36 CURVE SMOOTH",
"518 38 LINE",
"472 38 LINE",
"455 -42 LINE SMOOTH",
"440 -115 OFFCURVE",
"400 -140 OFFCURVE",
"344 -140 CURVE SMOOTH",
"286 -140 LINE",
"278 -178 LINE"
);
}
);
width = 650;
}
);
leftMetricsKey = H;
rightMetricsKey = H;
unicode = 014A;
},
{
color = 6;
glyphname = O;
lastChange = "2021-05-25 15:15:03 +0000";
layers = (
{
anchors = (
{
name = bottom;
position = "{268, 0}";
},
{
name = center;
position = "{342, 349}";
},
{
name = ogonek;
position = "{341, 0}";
},
{
name = top;
position = "{386, 700}";
},
{
name = topleft;
position = "{134, 700}";
},
{
name = topright;
position = "{698, 700}";
}
);
layerId = "1BFF0FF0-0E64-46D7-A9A4-916803583822";
paths = (
{
closed = 1;
nodes = (
"522 -12 OFFCURVE",
"645 196 OFFCURVE",
"645 438 CURVE SMOOTH",
"645 595 OFFCURVE",
"545 710 OFFCURVE",
"387 710 CURVE SMOOTH",
"158 710 OFFCURVE",
"35 504 OFFCURVE",
"35 263 CURVE SMOOTH",
"35 106 OFFCURVE",
"135 -12 OFFCURVE",
"293 -12 CURVE SMOOTH"
);
},
{
closed = 1;
nodes = (
"277 172 OFFCURVE",
"255 206 OFFCURVE",
"255 272 CURVE SMOOTH",
"255 414 OFFCURVE",
"308 526 OFFCURVE",
"371 526 CURVE SMOOTH",
"403 526 OFFCURVE",
"425 492 OFFCURVE",
"425 426 CURVE SMOOTH",
"425 284 OFFCURVE",
"372 172 OFFCURVE",
"309 172 CURVE SMOOTH"
);
}
);
width = 650;
},
{
anchors = (
{
name = bottom;
position = "{268, 0}";
},
{
name = center;
position = "{342, 349}";
},
{
name = ogonek;
position = "{344, 0}";
},
{
name = top;
position = "{396, 700}";
},
{
name = topleft;
position = "{117, 700}";
},
{
name = topright;
position = "{715, 700}";
}
);
layerId = "A3B76219-B495-4A65-93FB-16A8FAD49F3F";
paths = (
{
closed = 1;
nodes = (
"528 -12 OFFCURVE",
"652 215 OFFCURVE",
"652 444 CURVE SMOOTH",
"652 619 OFFCURVE",
"542 710 OFFCURVE",
"400 710 CURVE SMOOTH",
"154 710 OFFCURVE",
"29 483 OFFCURVE",
"29 255 CURVE SMOOTH",
"29 82 OFFCURVE",
"140 -12 OFFCURVE",
"282 -12 CURVE SMOOTH"
);
},
{
closed = 1;
nodes = (
"240 123 OFFCURVE",
"201 172 OFFCURVE",
"201 262 CURVE SMOOTH",
"201 392 OFFCURVE",
"259 575 OFFCURVE",
"381 575 CURVE SMOOTH",
"441 575 OFFCURVE",
"480 527 OFFCURVE",
"480 437 CURVE SMOOTH",
"480 308 OFFCURVE",
"423 123 OFFCURVE",
"301 123 CURVE SMOOTH"
);
}
);
width = 650;
},
{
anchors = (
{
name = bottom;
position = "{268, 0}";
},
{
name = center;
position = "{342, 349}";
},
{
name = ogonek;
position = "{345, 0}";
},
{
name = top;
position = "{400, 700}";
},
{
name = topleft;
position = "{108, 700}";
},
{
name = topright;
position = "{726, 700}";
}
);
layerId = "15963509-F4CC-4A33-865A-02712DFE1B04";
paths = (
{
closed = 1;
nodes = (
"488 -12 OFFCURVE",
"629 185 OFFCURVE",
"629 446 CURVE SMOOTH",
"629 616 OFFCURVE",
"544 710 OFFCURVE",
"397 710 CURVE SMOOTH",
"188 710 OFFCURVE",
"56 522 OFFCURVE",
"56 252 CURVE SMOOTH",
"56 97 OFFCURVE",
"141 -12 OFFCURVE",
"288 -12 CURVE SMOOTH"
);
},
{
closed = 1;
nodes = (
"173 33 OFFCURVE",
"107 124 OFFCURVE",
"107 254 CURVE SMOOTH",
"107 496 OFFCURVE",
"220 665 OFFCURVE",
"395 665 CURVE SMOOTH",
"512 665 OFFCURVE",
"578 589 OFFCURVE",
"578 444 CURVE SMOOTH",
"578 210 OFFCURVE",
"458 33 OFFCURVE",
"290 33 CURVE SMOOTH"
);
}
);
width = 650;
}
);
unicode = 004F;
},
{
color = 3;
glyphname = Oslash;
lastChange = "2021-05-25 15:15:50 +0000";
layers = (
{
anchors = (
{
name = bottom;
position = "{268, 0}";
},
{
name = center;
position = "{342, 349}";
},
{
name = ogonek;
position = "{341, 0}";
},
{
name = top;
position = "{387, 698}";
},
{
name = topleft;
position = "{134, 700}";
},
{
name = topright;
position = "{698, 700}";
}
);
components = (
{
name = slashlongcomb;
transform = "{1, 0, 0, 1, 15, 27}";
}
);
layerId = "1BFF0FF0-0E64-46D7-A9A4-916803583822";
paths = (
{
closed = 1;
nodes = (
"522 -12 OFFCURVE",
"645 196 OFFCURVE",
"645 438 CURVE SMOOTH",
"645 595 OFFCURVE",
"545 710 OFFCURVE",
"387 710 CURVE SMOOTH",
"158 710 OFFCURVE",
"35 504 OFFCURVE",
"35 263 CURVE SMOOTH",
"35 106 OFFCURVE",
"135 -12 OFFCURVE",
"293 -12 CURVE SMOOTH"
);
},
{
closed = 1;
nodes = (
"270 154 OFFCURVE",
"243 196 OFFCURVE",
"243 254 CURVE SMOOTH",
"243 423 OFFCURVE",
"303 544 OFFCURVE",
"379 544 CURVE SMOOTH",
"423 544 OFFCURVE",
"450 502 OFFCURVE",
"450 444 CURVE SMOOTH",
"450 275 OFFCURVE",
"390 154 OFFCURVE",
"314 154 CURVE SMOOTH"
);
}
);
width = 650;
},
{
anchors = (
{
name = bottom;
position = "{268, 0}";
},
{
name = center;
position = "{342, 349}";
},
{
name = ogonek;
position = "{344, 0}";
},
{
name = top;
position = "{390, 698}";
},
{
name = topleft;
position = "{117, 700}";
},
{
name = topright;
position = "{715, 700}";
}
);
components = (
{
name = slashlongcomb;
transform = "{1, 0, 0, 1, 2, 22}";
}
);
layerId = "A3B76219-B495-4A65-93FB-16A8FAD49F3F";
paths = (
{
closed = 1;
nodes = (
"528 -12 OFFCURVE",
"652 215 OFFCURVE",
"652 444 CURVE SMOOTH",
"652 619 OFFCURVE",
"542 710 OFFCURVE",
"390 710 CURVE SMOOTH",
"154 710 OFFCURVE",
"29 483 OFFCURVE",
"29 255 CURVE SMOOTH",
"29 82 OFFCURVE",
"140 -12 OFFCURVE",
"292 -12 CURVE SMOOTH"
);
},
{
closed = 1;
nodes = (
"240 123 OFFCURVE",
"201 172 OFFCURVE",
"201 262 CURVE SMOOTH",
"201 392 OFFCURVE",
"259 575 OFFCURVE",
"381 575 CURVE SMOOTH",
"441 575 OFFCURVE",
"480 527 OFFCURVE",
"480 437 CURVE SMOOTH",
"480 308 OFFCURVE",
"423 123 OFFCURVE",
"301 123 CURVE SMOOTH"
);
}
);
width = 650;
},
{
anchors = (
{
name = bottom;
position = "{268, 0}";
},
{
name = center;
position = "{342, 349}";
},
{
name = ogonek;
position = "{345, 0}";
},
{
name = top;
position = "{393, 698}";
},
{
name = topleft;
position = "{108, 700}";
},
{
name = topright;
position = "{726, 700}";
}
);
components = (
{
name = slashlongcomb;
transform = "{1, 0, 0, 1, 1, 12}";
}
);
layerId = "15963509-F4CC-4A33-865A-02712DFE1B04";
paths = (
{
closed = 1;
nodes = (
"490 -12 OFFCURVE",
"644 175 OFFCURVE",
"644 436 CURVE SMOOTH",
"644 606 OFFCURVE",
"546 710 OFFCURVE",
"395 710 CURVE SMOOTH",
"186 710 OFFCURVE",
"41 534 OFFCURVE",
"41 264 CURVE SMOOTH",
"41 93 OFFCURVE",
"139 -12 OFFCURVE",
"290 -12 CURVE SMOOTH"
);
},
{
closed = 1;
nodes = (
"171 33 OFFCURVE",
"94 120 OFFCURVE",
"94 266 CURVE SMOOTH",
"94 508 OFFCURVE",
"218 665 OFFCURVE",
"393 665 CURVE SMOOTH",
"514 665 OFFCURVE",
"591 579 OFFCURVE",
"591 434 CURVE SMOOTH",
"591 200 OFFCURVE",
"460 33 OFFCURVE",
"292 33 CURVE SMOOTH"
);
}
);
width = 650;
}
);
unicode = 00D8;
},
{
color = 6;
glyphname = OE;
lastChange = "2021-05-25 15:15:03 +0000";
layers = (
{
anchors = (
{
name = bottom;
position = "{332, 0}";
},
{
name = top;
position = "{481, 699}";
}
);
layerId = "1BFF0FF0-0E64-46D7-A9A4-916803583822";
paths = (
{
closed = 1;
nodes = (
"602 267 LINE",
"639 442 LINE",
"498 442 LINE",
"514 515 LINE",
"687 515 LINE",
"726 698 LINE",
"439 698 LINE SMOOTH",
"196 698 OFFCURVE",
"22 530 OFFCURVE",
"22 294 CURVE SMOOTH",
"22 123 OFFCURVE",
"134 0 OFFCURVE",
"300 0 CURVE SMOOTH",
"581 0 LINE",
"620 184 LINE",
"443 184 LINE",
"461 267 LINE"
);
},
{
closed = 1;
nodes = (
"226 184 OFFCURVE",
"189 234 OFFCURVE",
"189 305 CURVE SMOOTH",
"189 427 OFFCURVE",
"256 515 OFFCURVE",
"349 515 CURVE SMOOTH",
"355 515 LINE",
"284 184 LINE",
"278 184 LINE SMOOTH"
);
}
);
width = 650;
},
{
anchors = (
{
name = bottom;
position = "{333, 0}";
},
{
name = top;
position = "{481, 699}";
}
);
layerId = "A3B76219-B495-4A65-93FB-16A8FAD49F3F";
paths = (
{
closed = 1;
nodes = (
"576 293 LINE",
"605 428 LINE",
"469 428 LINE",
"498 564 LINE",
"689 564 LINE",
"717 698 LINE",
"404 698 LINE SMOOTH",
"189 698 OFFCURVE",
"25 525 OFFCURVE",
"25 283 CURVE SMOOTH",
"25 118 OFFCURVE",
"127 0 OFFCURVE",
"276 0 CURVE SMOOTH",
"573 0 LINE",
"602 135 LINE",
"407 135 LINE",
"440 293 LINE"
);
},
{
closed = 1;
nodes = (
"213 135 OFFCURVE",
"168 202 OFFCURVE",
"168 295 CURVE SMOOTH",
"168 452 OFFCURVE",
"251 564 OFFCURVE",
"366 564 CURVE SMOOTH",
"373 564 LINE",
"282 135 LINE",
"275 135 LINE SMOOTH"
);
}
);
width = 650;
},
{
anchors = (
{
name = bottom;
position = "{344, 0}";
},
{
name = top;
position = "{493, 699}";
}
);
layerId = "15963509-F4CC-4A33-865A-02712DFE1B04";
paths = (
{
closed = 1;
nodes = (
"581 340 LINE",
"591 385 LINE",
"404 385 LINE",
"461 653 LINE",
"719 653 LINE",
"729 698 LINE",
"416 698 LINE SMOOTH",
"202 698 OFFCURVE",
"48 525 OFFCURVE",
"48 283 CURVE SMOOTH",
"48 118 OFFCURVE",
"144 0 OFFCURVE",
"277 0 CURVE SMOOTH",
"584 0 LINE",
"594 45 LINE",
"332 45 LINE",
"394 340 LINE"
);
},
{
closed = 1;
nodes = (
"174 45 OFFCURVE",
"101 145 OFFCURVE",
"101 285 CURVE SMOOTH",
"101 499 OFFCURVE",
"228 653 OFFCURVE",
"406 653 CURVE SMOOTH",
"414 653 LINE",
"285 45 LINE",
"277 45 LINE SMOOTH"
);
}
);
width = 650;
}
);
leftMetricsKey = "=O";
rightMetricsKey = "=E";
unicode = 0152;
},
{
color = 6;
glyphname = P;
lastChange = "2021-05-25 15:15:03 +0000";
layers = (
{
layerId = "1BFF0FF0-0E64-46D7-A9A4-916803583822";
paths = (
{
closed = 1;
nodes = (
"310 200 LINE SMOOTH",
"492 200 OFFCURVE",
"656 289 OFFCURVE",
"656 476 CURVE SMOOTH",
"656 594 OFFCURVE",
"563 698 OFFCURVE",
"405 698 CURVE SMOOTH",
"296 698 LINE",
"256 514 LINE",
"356 514 LINE SMOOTH",
"395 514 OFFCURVE",
"419 486 OFFCURVE",
"419 456 CURVE SMOOTH",
"419 412 OFFCURVE",
"388 384 OFFCURVE",
"336 384 CURVE SMOOTH",
"229 384 LINE",
"190 200 LINE"
);
},
{
closed = 1;
nodes = (
"212 0 LINE",
"361 698 LINE",
"132 698 LINE",
"-17 0 LINE"
);
}
);
width = 650;
},
{
layerId = "A3B76219-B495-4A65-93FB-16A8FAD49F3F";
paths = (
{
closed = 1;
nodes = (
"324 219 LINE SMOOTH",
"507 219 OFFCURVE",
"657 307 OFFCURVE",
"657 479 CURVE SMOOTH",
"657 593 OFFCURVE",
"571 698 OFFCURVE",
"416 698 CURVE SMOOTH",
"267 698 LINE",
"239 563 LINE",
"398 563 LINE SMOOTH",
"453 563 OFFCURVE",
"485 519 OFFCURVE",
"485 472 CURVE SMOOTH",
"485 403 OFFCURVE",
"430 354 OFFCURVE",
"353 354 CURVE SMOOTH",
"194 354 LINE",
"165 219 LINE"
);
},
{
closed = 1;
nodes = (
"166 0 LINE",
"314 698 LINE",
"149 698 LINE",
"1 0 LINE"
);
}
);
width = 650;
},
{
layerId = "15963509-F4CC-4A33-865A-02712DFE1B04";
paths = (
{
closed = 1;
nodes = (
"355 291 LINE SMOOTH",
"516 291 OFFCURVE",
"638 372 OFFCURVE",
"638 522 CURVE SMOOTH",
"638 617 OFFCURVE",
"563 698 OFFCURVE",
"447 698 CURVE SMOOTH",
"227 698 LINE",
"217 653 LINE",
"441 653 LINE SMOOTH",
"530 653 OFFCURVE",
"584 594 OFFCURVE",
"584 519 CURVE SMOOTH",
"584 405 OFFCURVE",
"494 336 OFFCURVE",
"365 336 CURVE SMOOTH",
"150 336 LINE",
"140 291 LINE"
);
},
{
closed = 1;
nodes = (
"91 0 LINE",
"240 698 LINE",
"193 698 LINE",
"44 0 LINE"
);
}
);
width = 650;
}
);
leftMetricsKey = H;
unicode = 0050;
},
{
color = 6;
glyphname = Thorn;
lastChange = "2021-05-25 15:15:03 +0000";
layers = (
{
layerId = "1BFF0FF0-0E64-46D7-A9A4-916803583822";
paths = (
{
closed = 1;
nodes = (
"286 115 LINE SMOOTH",
"503 115 OFFCURVE",
"638 224 OFFCURVE",
"638 390 CURVE SMOOTH",
"638 509 OFFCURVE",
"544 613 OFFCURVE",
"386 613 CURVE SMOOTH",
"276 613 LINE",
"237 429 LINE",
"338 429 LINE SMOOTH",
"377 429 OFFCURVE",
"401 400 OFFCURVE",
"401 370 CURVE SMOOTH",
"401 326 OFFCURVE",
"370 299 OFFCURVE",
"318 299 CURVE SMOOTH",
"210 299 LINE",
"171 115 LINE"
);
},
{
closed = 1;
nodes = (
"211 0 LINE",
"360 698 LINE",
"131 698 LINE",
"-18 0 LINE"
);
}
);
width = 650;
},
{
layerId = "A3B76219-B495-4A65-93FB-16A8FAD49F3F";
paths = (
{
closed = 1;
nodes = (
"310 124 LINE SMOOTH",
"500 124 OFFCURVE",
"643 217 OFFCURVE",
"643 383 CURVE SMOOTH",
"643 506 OFFCURVE",
"539 603 OFFCURVE",
"391 603 CURVE SMOOTH",
"252 603 LINE",
"223 468 LINE",
"382 468 LINE SMOOTH",
"443 468 OFFCURVE",
"471 422 OFFCURVE",
"471 373 CURVE SMOOTH",
"471 309 OFFCURVE",
"415 259 OFFCURVE",
"340 259 CURVE SMOOTH",
"179 259 LINE",
"150 124 LINE"
);
},
{
closed = 1;
nodes = (
"171 0 LINE",
"319 698 LINE",
"154 698 LINE",
"6 0 LINE"
);
}
);
width = 650;
},
{
layerId = "15963509-F4CC-4A33-865A-02712DFE1B04";
paths = (
{
closed = 1;
nodes = (
"332 150 LINE SMOOTH",
"493 150 OFFCURVE",
"615 231 OFFCURVE",
"615 381 CURVE SMOOTH",
"615 476 OFFCURVE",
"540 557 OFFCURVE",
"424 557 CURVE SMOOTH",
"204 557 LINE",
"194 512 LINE",
"418 512 LINE SMOOTH",
"507 512 OFFCURVE",
"561 452 OFFCURVE",
"561 378 CURVE SMOOTH",
"561 263 OFFCURVE",
"471 195 OFFCURVE",
"342 195 CURVE SMOOTH",
"127 195 LINE",
"117 150 LINE"
);
},
{
closed = 1;
nodes = (
"98 0 LINE",
"247 698 LINE",
"200 698 LINE",
"51 0 LINE"
);
}
);
width = 650;
}
);
leftMetricsKey = H;
unicode = 00DE;
},
{
color = 6;
glyphname = Q;
lastChange = "2021-05-25 15:15:03 +0000";
layers = (
{
anchors = (
{
name = bottom;
position = "{250, 124}";
},
{
name = center;
position = "{271, 226}";
},
{
name = ogonek;
position = "{296, 0}";
},
{
name = top;
position = "{372, 700}";
},
{
name = topleft;
position = "{91, 700}";
},
{
name = topright;
position = "{651, 700}";
}
);
layerId = "1BFF0FF0-0E64-46D7-A9A4-916803583822";
paths = (
{
closed = 1;
nodes = (
"567 -12 LINE",
"632 174 LINE",
"594 163 LINE",
"501 126 LINE",
"586 212 OFFCURVE",
"624 326 OFFCURVE",
"624 457 CURVE SMOOTH",
"624 607 OFFCURVE",
"528 709 OFFCURVE",
"381 709 CURVE SMOOTH",
"152 709 OFFCURVE",
"35 482 OFFCURVE",
"35 242 CURVE SMOOTH",
"35 88 OFFCURVE",
"126 -12 OFFCURVE",
"279 -12 CURVE SMOOTH"
);
},
{
closed = 1;
nodes = (
"268 172 OFFCURVE",
"256 198 OFFCURVE",
"256 251 CURVE SMOOTH",
"256 349 OFFCURVE",
"292 526 OFFCURVE",
"362 526 CURVE SMOOTH",
"390 526 OFFCURVE",
"403 500 OFFCURVE",
"403 448 CURVE SMOOTH",
"403 352 OFFCURVE",
"366 172 OFFCURVE",
"297 172 CURVE SMOOTH"
);
}
);
width = 650;
},
{
anchors = (
{
name = bottom;
position = "{245, 0}";
},
{
name = center;
position = "{319, 349}";
},
{
name = ogonek;
position = "{321, 0}";
},
{
name = top;
position = "{394, 700}";
},
{
name = topleft;
position = "{96, 700}";
},
{
name = topright;
position = "{691, 700}";
}
);
layerId = "A3B76219-B495-4A65-93FB-16A8FAD49F3F";
paths = (
{
closed = 1;
nodes = (
"561 -12 LINE",
"617 124 LINE",
"556 120 LINE",
"480 99 LINE",
"576 179 OFFCURVE",
"637 310 OFFCURVE",
"637 440 CURVE SMOOTH",
"637 605 OFFCURVE",
"551 710 OFFCURVE",
"385 710 CURVE SMOOTH",
"158 710 OFFCURVE",
"20 510 OFFCURVE",
"20 258 CURVE SMOOTH",
"20 92 OFFCURVE",
"115 -12 OFFCURVE",
"278 -12 CURVE SMOOTH"
);
},
{
closed = 1;
nodes = (
"236 123 OFFCURVE",
"192 163 OFFCURVE",
"192 265 CURVE SMOOTH",
"192 435 OFFCURVE",
"264 575 OFFCURVE",
"366 575 CURVE SMOOTH",
"430 575 OFFCURVE",
"465 525 OFFCURVE",
"465 433 CURVE SMOOTH",
"465 262 OFFCURVE",
"392 123 OFFCURVE",
"290 123 CURVE SMOOTH"
);
}
);
width = 650;
},
{
anchors = (
{
name = bottom;
position = "{266, 0}";
},
{
name = center;
position = "{341, 351}";
},
{
name = ogonek;
position = "{344, 0}";
},
{
name = top;
position = "{415, 700}";
},
{
name = topleft;
position = "{104, 700}";
},
{
name = topright;
position = "{727, 700}";
}
);
layerId = "15963509-F4CC-4A33-865A-02712DFE1B04";
paths = (
{
closed = 1;
nodes = (
"548 -12 LINE",
"588 31 LINE",
"472 24 LINE",
"384 15 LINE",
"554 56 OFFCURVE",
"644 246 OFFCURVE",
"644 440 CURVE SMOOTH",
"644 599 OFFCURVE",
"547 710 OFFCURVE",
"401 710 CURVE SMOOTH",
"170 710 OFFCURVE",
"41 520 OFFCURVE",
"41 261 CURVE SMOOTH",
"41 100 OFFCURVE",
"137 -12 OFFCURVE",
"285 -12 CURVE SMOOTH"
);
},
{
closed = 1;
nodes = (
"169 33 OFFCURVE",
"94 123 OFFCURVE",
"94 263 CURVE SMOOTH",
"94 500 OFFCURVE",
"210 665 OFFCURVE",
"399 665 CURVE SMOOTH",
"511 665 OFFCURVE",
"591 575 OFFCURVE",
"591 438 CURVE SMOOTH",
"591 225 OFFCURVE",
"482 33 OFFCURVE",
"287 33 CURVE SMOOTH"
);
}
);
width = 650;
}
);
unicode = 0051;
},
{
color = 6;
glyphname = R;
lastChange = "2021-05-25 15:15:03 +0000";
layers = (
{
anchors = (
{
name = bottom;
position = "{288, 0}";
},
{
name = top;
position = "{367, 698}";
}
);
layerId = "1BFF0FF0-0E64-46D7-A9A4-916803583822";
paths = (
{
closed = 1;
nodes = (
"310 226 LINE SMOOTH",
"495 226 OFFCURVE",
"662 334 OFFCURVE",
"662 488 CURVE SMOOTH",
"662 611 OFFCURVE",
"572 698 OFFCURVE",
"425 698 CURVE SMOOTH",
"297 698 LINE",
"257 514 LINE",
"370 514 LINE SMOOTH",
"407 514 OFFCURVE",
"423 492 OFFCURVE",
"423 467 CURVE SMOOTH",
"423 434 OFFCURVE",
"394 410 OFFCURVE",
"354 410 CURVE SMOOTH",
"235 410 LINE",
"196 226 LINE"
);
},
{
closed = 1;
nodes = (
"211 0 LINE",
"360 698 LINE",
"131 698 LINE",
"-18 0 LINE"
);
},
{
closed = 1;
nodes = (
"581 0 LINE",
"577 146 OFFCURVE",
"561 273 OFFCURVE",
"444 337 CURVE",
"206 288 LINE",
"322 257 OFFCURVE",
"354 131 OFFCURVE",
"356 0 CURVE"
);
}
);
width = 650;
},
{
anchors = (
{
name = bottom;
position = "{294, 0}";
},
{
name = top;
position = "{389, 698}";
}
);
layerId = "A3B76219-B495-4A65-93FB-16A8FAD49F3F";
paths = (
{
closed = 1;
nodes = (
"345 260 LINE SMOOTH",
"534 260 OFFCURVE",
"657 355 OFFCURVE",
"657 501 CURVE SMOOTH",
"657 620 OFFCURVE",
"567 698 OFFCURVE",
"429 698 CURVE SMOOTH",
"271 698 LINE",
"243 563 LINE",
"401 563 LINE SMOOTH",
"451 563 OFFCURVE",
"484 534 OFFCURVE",
"484 490 CURVE SMOOTH",
"484 432 OFFCURVE",
"437 395 OFFCURVE",
"364 395 CURVE SMOOTH",
"207 395 LINE",
"178 260 LINE"
);
},
{
closed = 1;
nodes = (
"169 0 LINE",
"317 698 LINE",
"152 698 LINE",
"4 0 LINE"
);
},
{
closed = 1;
nodes = (
"579 0 LINE",
"578 145 OFFCURVE",
"520 273 OFFCURVE",
"393 343 CURVE",
"212 306 LINE",
"341 256 OFFCURVE",
"408 141 OFFCURVE",
"409 0 CURVE"
);
}
);
width = 650;
},
{
anchors = (
{
name = bottom;
position = "{304, 0}";
},
{
name = top;
position = "{391, 698}";
}
);
layerId = "15963509-F4CC-4A33-865A-02712DFE1B04";
paths = (
{
closed = 1;
nodes = (
"369 322 LINE SMOOTH",
"537 322 OFFCURVE",
"641 405 OFFCURVE",
"641 533 CURVE SMOOTH",
"641 633 OFFCURVE",
"567 698 OFFCURVE",
"453 698 CURVE SMOOTH",
"232 698 LINE",
"222 653 LINE",
"447 653 LINE SMOOTH",
"532 653 OFFCURVE",
"588 605 OFFCURVE",
"588 531 CURVE SMOOTH",
"588 432 OFFCURVE",
"508 367 OFFCURVE",
"378 367 CURVE SMOOTH",
"161 367 LINE",
"152 322 LINE"
);
},
{
closed = 1;
nodes = (
"97 0 LINE",
"246 698 LINE",
"199 698 LINE",
"50 0 LINE"
);
},
{
closed = 1;
nodes = (
"538 0 LINE",
"524 141 OFFCURVE",
"456 244 OFFCURVE",
"288 354 CURVE",
"238 339 LINE",
"405 234 OFFCURVE",
"474 133 OFFCURVE",
"488 0 CURVE"
);
}
);
width = 650;
}
);
leftMetricsKey = H;
unicode = 0052;
},
{
color = 6;
glyphname = S;
lastChange = "2021-05-25 15:15:03 +0000";
layers = (
{
anchors = (
{
name = bottom;
position = "{286, 0}";
},
{
name = top;
position = "{379, 699}";
}
);
layerId = "1BFF0FF0-0E64-46D7-A9A4-916803583822";
paths = (
{
closed = 1;
nodes = (
"483 -12 OFFCURVE",
"609 90 OFFCURVE",
"609 246 CURVE SMOOTH",
"609 449 OFFCURVE",
"321 417 OFFCURVE",
"321 488 CURVE SMOOTH",
"321 514 OFFCURVE",
"344 526 OFFCURVE",
"374 526 CURVE SMOOTH",
"406 526 OFFCURVE",
"433 508 OFFCURVE",
"433 471 CURVE",
"654 471 LINE",
"662 616 OFFCURVE",
"549 710 OFFCURVE",
"382 710 CURVE SMOOTH",
"198 710 OFFCURVE",
"79 612 OFFCURVE",
"79 471 CURVE SMOOTH",
"79 264 OFFCURVE",
"366 296 OFFCURVE",
"366 217 CURVE SMOOTH",
"366 190 OFFCURVE",
"341 172 OFFCURVE",
"310 172 CURVE SMOOTH",
"263 172 OFFCURVE",
"240 205 OFFCURVE",
"245 250 CURVE",
"23 250 LINE",
"16 91 OFFCURVE",
"128 -12 OFFCURVE",
"298 -12 CURVE SMOOTH"
);
}
);
width = 650;
},
{
anchors = (
{
name = bottom;
position = "{314, 0}";
},
{
name = top;
position = "{371, 699}";
}
);
layerId = "A3B76219-B495-4A65-93FB-16A8FAD49F3F";
paths = (
{
closed = 1;
nodes = (
"466 -12 OFFCURVE",
"585 70 OFFCURVE",
"585 215 CURVE SMOOTH",
"585 440 OFFCURVE",
"280 397 OFFCURVE",
"280 504 CURVE SMOOTH",
"280 547 OFFCURVE",
"317 575 OFFCURVE",
"368 575 CURVE SMOOTH",
"427 575 OFFCURVE",
"467 535 OFFCURVE",
"470 474 CURVE",
"634 474 LINE",
"638 620 OFFCURVE",
"529 710 OFFCURVE",
"380 710 CURVE SMOOTH",
"204 710 OFFCURVE",
"104 623 OFFCURVE",
"104 490 CURVE SMOOTH",
"104 275 OFFCURVE",
"410 309 OFFCURVE",
"410 200 CURVE SMOOTH",
"410 155 OFFCURVE",
"374 123 OFFCURVE",
"320 123 CURVE SMOOTH",
"237 123 OFFCURVE",
"202 173 OFFCURVE",
"204 253 CURVE",
"43 253 LINE",
"30 94 OFFCURVE",
"132 -12 OFFCURVE",
"309 -12 CURVE SMOOTH"
);
}
);
width = 650;
},
{
anchors = (
{
name = bottom;
position = "{315, 0}";
},
{
name = top;
position = "{385, 699}";
}
);
layerId = "15963509-F4CC-4A33-865A-02712DFE1B04";
paths = (
{
closed = 1;
nodes = (
"457 -12 OFFCURVE",
"557 67 OFFCURVE",
"557 184 CURVE SMOOTH",
"557 397 OFFCURVE",
"185 356 OFFCURVE",
"185 525 CURVE SMOOTH",
"185 603 OFFCURVE",
"260 665 OFFCURVE",
"369 665 CURVE SMOOTH",
"474 665 OFFCURVE",
"548 605 OFFCURVE",
"556 507 CURVE",
"605 507 LINE",
"600 629 OFFCURVE",
"506 710 OFFCURVE",
"371 710 CURVE SMOOTH",
"231 710 OFFCURVE",
"135 632 OFFCURVE",
"135 522 CURVE SMOOTH",
"135 316 OFFCURVE",
"506 357 OFFCURVE",
"506 181 CURVE SMOOTH",
"506 96 OFFCURVE",
"429 33 OFFCURVE",
"319 33 CURVE SMOOTH",
"193 33 OFFCURVE",
"113 114 OFFCURVE",
"111 244 CURVE",
"62 244 LINE",
"58 87 OFFCURVE",
"161 -12 OFFCURVE",
"317 -12 CURVE SMOOTH"
);
}
);
width = 650;
}
);
unicode = 0053;
},
{
color = 6;
glyphname = Germandbls;
lastChange = "2021-05-25 15:15:03 +0000";
layers = (
{
layerId = "1BFF0FF0-0E64-46D7-A9A4-916803583822";
paths = (
{
closed = 1;
nodes = (
"502 -12 OFFCURVE",
"606 78 OFFCURVE",
"606 215 CURVE SMOOTH",
"606 303 OFFCURVE",
"544 368 OFFCURVE",
"449 379 CURVE",
"427 345 LINE",
"560 362 OFFCURVE",
"646 437 OFFCURVE",
"646 535 CURVE SMOOTH",
"646 634 OFFCURVE",
"562 698 OFFCURVE",
"432 698 CURVE SMOOTH",
"125 698 LINE",
"-24 0 LINE",
"185 0 LINE",
"294 514 LINE",
"371 514 LINE SMOOTH",
"397 514 OFFCURVE",
"414 500 OFFCURVE",
"414 478 CURVE SMOOTH",
"414 449 OFFCURVE",
"391 430 OFFCURVE",
"355 430 CURVE SMOOTH",
"330 430 LINE",
"296 272 LINE",
"333 272 LINE SMOOTH",
"365 272 OFFCURVE",
"385 254 OFFCURVE",
"385 227 CURVE SMOOTH",
"385 194 OFFCURVE",
"359 172 OFFCURVE",
"318 172 CURVE SMOOTH",
"299 172 OFFCURVE",
"287 176 OFFCURVE",
"276 180 CURVE",
"237 -6 LINE",
"263 -10 OFFCURVE",
"291 -12 OFFCURVE",
"326 -12 CURVE SMOOTH"
);
}
);
width = 650;
},
{
layerId = "A3B76219-B495-4A65-93FB-16A8FAD49F3F";
paths = (
{
closed = 1;
nodes = (
"491 -12 OFFCURVE",
"610 83 OFFCURVE",
"610 229 CURVE SMOOTH",
"610 309 OFFCURVE",
"560 363 OFFCURVE",
"468 378 CURVE",
"448 345 LINE",
"561 368 OFFCURVE",
"645 418 OFFCURVE",
"645 521 CURVE SMOOTH",
"645 613 OFFCURVE",
"560 698 OFFCURVE",
"423 698 CURVE SMOOTH",
"143 698 LINE",
"-5 0 LINE",
"160 0 LINE",
"280 563 LINE",
"396 563 LINE SMOOTH",
"444 563 OFFCURVE",
"473 532 OFFCURVE",
"473 497 CURVE SMOOTH",
"473 449 OFFCURVE",
"434 418 OFFCURVE",
"374 418 CURVE SMOOTH",
"309 418 LINE",
"280 283 LINE",
"350 283 LINE SMOOTH",
"407 283 OFFCURVE",
"439 256 OFFCURVE",
"439 215 CURVE SMOOTH",
"439 158 OFFCURVE",
"391 123 OFFCURVE",
"323 123 CURVE SMOOTH",
"300 123 OFFCURVE",
"265 128 OFFCURVE",
"248 134 CURVE",
"219 -2 LINE",
"247 -9 OFFCURVE",
"285 -12 OFFCURVE",
"308 -12 CURVE SMOOTH"
);
}
);
width = 650;
},
{
layerId = "15963509-F4CC-4A33-865A-02712DFE1B04";
paths = (
{
closed = 1;
nodes = (
"467 -12 OFFCURVE",
"577 74 OFFCURVE",
"577 206 CURVE SMOOTH",
"577 295 OFFCURVE",
"515 355 OFFCURVE",
"442 363 CURVE",
"428 359 LINE",
"541 368 OFFCURVE",
"614 450 OFFCURVE",
"614 547 CURVE SMOOTH",
"614 645 OFFCURVE",
"536 698 OFFCURVE",
"422 698 CURVE SMOOTH",
"194 698 LINE",
"45 0 LINE",
"92 0 LINE",
"231 653 LINE",
"416 653 LINE SMOOTH",
"504 653 OFFCURVE",
"561 616 OFFCURVE",
"561 545 CURVE SMOOTH",
"561 454 OFFCURVE",
"481 384 OFFCURVE",
"359 384 CURVE SMOOTH",
"257 384 LINE",
"247 339 LINE",
"360 339 LINE SMOOTH",
"463 339 OFFCURVE",
"524 289 OFFCURVE",
"524 204 CURVE SMOOTH",
"524 100 OFFCURVE",
"436 30 OFFCURVE",
"300 30 CURVE SMOOTH",
"262 30 OFFCURVE",
"217 37 OFFCURVE",
"185 47 CURVE",
"176 5 LINE",
"208 -5 OFFCURVE",
"256 -12 OFFCURVE",
"298 -12 CURVE SMOOTH"
);
}
);
width = 650;
}
);
leftMetricsKey = H;
unicode = 1E9E;
},
{
color = 6;
glyphname = T;
lastChange = "2021-05-25 15:15:03 +0000";
layers = (
{
anchors = (
{
name = bottom;
position = "{266, 0}";
},
{
name = center;
position = "{341, 350}";
},
{
name = top;
position = "{405, 699}";
}
);
layerId = "1BFF0FF0-0E64-46D7-A9A4-916803583822";
paths = (
{
closed = 1;
nodes = (
"380 0 LINE",
"489 514 LINE",
"671 514 LINE",
"711 698 LINE",
"118 698 LINE",
"78 514 LINE",
"260 514 LINE",
"151 0 LINE"
);
}
);
width = 650;
},
{
anchors = (
{
name = bottom;
position = "{266, 0}";
},
{
name = center;
position = "{340, 350}";
},
{
name = top;
position = "{409, 699}";
}
);
layerId = "A3B76219-B495-4A65-93FB-16A8FAD49F3F";
paths = (
{
closed = 1;
nodes = (
"348 0 LINE",
"468 563 LINE",
"672 563 LINE",
"700 698 LINE",
"127 698 LINE",
"99 563 LINE",
"303 563 LINE",
"183 0 LINE"
);
}
);
width = 650;
},
{
anchors = (
{
name = bottom;
position = "{267, 0}";
},
{
name = center;
position = "{342, 350}";
},
{
name = top;
position = "{413, 699}";
}
);
layerId = "15963509-F4CC-4A33-865A-02712DFE1B04";
paths = (
{
closed = 1;
nodes = (
"290 0 LINE",
"429 653 LINE",
"675 653 LINE",
"685 698 LINE",
"146 698 LINE",
"136 653 LINE",
"382 653 LINE",
"243 0 LINE"
);
}
);
width = 650;
}
);
unicode = 0054;
},
{
color = 6;
glyphname = U;
lastChange = "2021-05-25 15:15:03 +0000";
layers = (
{
anchors = (
{
name = bottom;
position = "{264, 0}";
},
{
name = ogonek;
position = "{376, 0}";
},
{
name = top;
position = "{403, 699}";
},
{
name = topright;
position = "{749, 699}";
}
);
layerId = "1BFF0FF0-0E64-46D7-A9A4-916803583822";
paths = (
{
closed = 1;
nodes = (
"479 -12 OFFCURVE",
"584 92 OFFCURVE",
"621 263 CURVE SMOOTH",
"714 698 LINE",
"485 698 LINE",
"390 253 LINE SMOOTH",
"379 202 OFFCURVE",
"351 172 OFFCURVE",
"306 172 CURVE SMOOTH",
"261 172 OFFCURVE",
"237 202 OFFCURVE",
"248 253 CURVE SMOOTH",
"343 698 LINE",
"114 698 LINE",
"21 263 LINE SMOOTH",
"-16 92 OFFCURVE",
"93 -12 OFFCURVE",
"286 -12 CURVE SMOOTH"
);
}
);
width = 650;
},
{
anchors = (
{
name = bottom;
position = "{265, 0}";
},
{
name = ogonek;
position = "{360, 0}";
},
{
name = top;
position = "{403, 699}";
},
{
name = topright;
position = "{754, 699}";
}
);
layerId = "A3B76219-B495-4A65-93FB-16A8FAD49F3F";
leftMetricsKey = "=H-9";
rightMetricsKey = "=H-9";
paths = (
{
closed = 1;
nodes = (
"472 -12 OFFCURVE",
"572 92 OFFCURVE",
"606 250 CURVE SMOOTH",
"701 698 LINE",
"536 698 LINE",
"441 250 LINE SMOOTH",
"424 172 OFFCURVE",
"375 124 OFFCURVE",
"300 124 CURVE SMOOTH",
"225 124 OFFCURVE",
"180 172 OFFCURVE",
"197 250 CURVE SMOOTH",
"292 698 LINE",
"127 698 LINE",
"34 260 LINE SMOOTH",
"-2 92 OFFCURVE",
"109 -12 OFFCURVE",
"291 -12 CURVE SMOOTH"
);
}
);
width = 650;
},
{
anchors = (
{
name = bottom;
position = "{267, 0}";
},
{
name = ogonek;
position = "{326, 0}";
},
{
name = top;
position = "{416, 699}";
},
{
name = topright;
position = "{738, 699}";
}
);
layerId = "15963509-F4CC-4A33-865A-02712DFE1B04";
leftMetricsKey = "=H-12";
rightMetricsKey = "=H-12";
paths = (
{
closed = 1;
nodes = (
"444 -12 OFFCURVE",
"542 92 OFFCURVE",
"575 245 CURVE SMOOTH",
"672 698 LINE",
"623 698 LINE",
"526 245 LINE SMOOTH",
"499 119 OFFCURVE",
"408 33 OFFCURVE",
"285 33 CURVE SMOOTH",
"161 33 OFFCURVE",
"86 119 OFFCURVE",
"113 245 CURVE SMOOTH",
"210 698 LINE",
"161 698 LINE",
"64 245 LINE SMOOTH",
"31 90 OFFCURVE",
"135 -12 OFFCURVE",
"282 -12 CURVE SMOOTH"
);
}
);
width = 650;
}
);
leftMetricsKey = "=H-3";
rightMetricsKey = "=H-3";
unicode = 0055;
},
{
color = 6;
glyphname = V;
lastChange = "2021-05-25 15:15:03 +0000";
layers = (
{
layerId = "1BFF0FF0-0E64-46D7-A9A4-916803583822";
paths = (
{
closed = 1;
nodes = (
"426 0 LINE",
"720 698 LINE",
"488 698 LINE",
"345 322 LINE",
"293 167 LINE",
"307 322 LINE",
"325 698 LINE",
"110 698 LINE",
"104 0 LINE"
);
}
);
width = 650;
},
{
layerId = "A3B76219-B495-4A65-93FB-16A8FAD49F3F";
paths = (
{
closed = 1;
nodes = (
"390 0 LINE",
"715 698 LINE",
"542 698 LINE",
"360 308 LINE",
"289 126 LINE",
"292 308 LINE",
"277 698 LINE",
"115 698 LINE",
"143 0 LINE"
);
}
);
width = 650;
},
{
layerId = "15963509-F4CC-4A33-865A-02712DFE1B04";
paths = (
{
closed = 1;
nodes = (
"296 0 LINE",
"705 698 LINE",
"654 698 LINE",
"344 170 LINE",
"277 51 LINE",
"260 172 LINE",
"176 698 LINE",
"127 698 LINE",
"238 0 LINE"
);
}
);
width = 650;
}
);
unicode = 0056;
},
{
color = 6;
glyphname = W;
lastChange = "2021-05-25 15:15:03 +0000";
layers = (
{
anchors = (
{
name = top;
position = "{407, 699}";
}
);
layerId = "1BFF0FF0-0E64-46D7-A9A4-916803583822";
paths = (
{
closed = 1;
nodes = (
"242 0 LINE",
"285 156 LINE",
"334 333 LINE",
"312 156 LINE",
"289 0 LINE",
"519 0 LINE",
"729 698 LINE",
"548 698 LINE",
"474 434 LINE",
"416 195 LINE",
"449 434 LINE",
"481 698 LINE",
"339 698 LINE",
"258 434 LINE",
"195 195 LINE",
"235 434 LINE",
"278 698 LINE",
"99 698 LINE",
"7 0 LINE"
);
}
);
width = 650;
},
{
anchors = (
{
name = top;
position = "{405, 699}";
}
);
layerId = "A3B76219-B495-4A65-93FB-16A8FAD49F3F";
paths = (
{
closed = 1;
nodes = (
"223 0 LINE",
"305 251 LINE",
"361 441 LINE",
"336 251 LINE",
"317 0 LINE",
"511 0 LINE",
"725 698 LINE",
"566 698 LINE",
"490 389 LINE",
"437 170 LINE",
"459 389 LINE",
"472 698 LINE",
"349 698 LINE",
"237 389 LINE",
"167 170 LINE",
"208 389 LINE",
"260 698 LINE",
"104 698 LINE",
"19 0 LINE"
);
}
);
width = 650;
},
{
anchors = (
{
name = top;
position = "{418, 699}";
}
);
layerId = "15963509-F4CC-4A33-865A-02712DFE1B04";
paths = (
{
closed = 1;
nodes = (
"138 0 LINE",
"356 512 LINE",
"403 635 LINE",
"401 512 LINE",
"399 0 LINE",
"466 0 LINE",
"723 698 LINE",
"673 698 LINE",
"482 178 LINE",
"440 53 LINE",
"443 178 LINE",
"443 698 LINE",
"388 698 LINE",
"167 178 LINE",
"115 53 LINE",
"125 178 LINE",
"156 698 LINE",
"109 698 LINE",
"68 0 LINE"
);
}
);
width = 650;
},
{
anchors = (
{
name = top;
position = "{409, 699}";
}
);
associatedMasterId = "15963509-F4CC-4A33-865A-02712DFE1B04";
background = {
anchors = (
{
name = top;
position = "{480, 698}";
}
);
paths = (
{
closed = 1;
nodes = (
"284 0 LINE",
"458 552 LINE",
"480 645 LINE",
"500 552 LINE",
"675 0 LINE",
"714 0 LINE",
"934 698 LINE",
"888 698 LINE",
"720 158 LINE",
"696 53 LINE",
"674 158 LINE",
"502 698 LINE",
"461 698 LINE",
"289 158 LINE",
"266 53 LINE",
"244 158 LINE",
"72 698 LINE",
"24 698 LINE",
"245 0 LINE"
);
}
);
};
layerId = "A93A944E-97CC-424D-8D49-F130AE3EE117";
name = "{500}";
paths = (
{
closed = 1;
nodes = (
"195 0 LINE",
"323 338 LINE",
"375 502 LINE",
"357 338 LINE",
"344 0 LINE",
"496 0 LINE",
"724 698 LINE",
"602 698 LINE",
"487 319 LINE",
"438 131 LINE",
"454 319 LINE",
"463 698 LINE",
"363 698 LINE",
"214 319 LINE",
"150 131 LINE",
"180 319 LINE",
"225 698 LINE",
"106 698 LINE",
"35 0 LINE"
);
}
);
width = 650;
}
);
unicode = 0057;
},
{
color = 6;
glyphname = X;
lastChange = "2021-05-25 15:15:03 +0000";
layers = (
{
layerId = "1BFF0FF0-0E64-46D7-A9A4-916803583822";
paths = (
{
closed = 1;
nodes = (
"201 0 LINE",
"262 106 LINE",
"318 216 LINE",
"330 106 LINE",
"347 0 LINE",
"575 0 LINE",
"513 360 LINE",
"720 698 LINE",
"480 698 LINE",
"409 571 LINE",
"354 444 LINE",
"358 572 LINE",
"343 698 LINE",
"106 698 LINE",
"167 356 LINE",
"-44 0 LINE"
);
}
);
width = 650;
},
{
layerId = "A3B76219-B495-4A65-93FB-16A8FAD49F3F";
paths = (
{
closed = 1;
nodes = (
"148 0 LINE",
"237 113 LINE",
"320 236 LINE",
"367 93 LINE",
"400 0 LINE",
"578 0 LINE",
"436 359 LINE",
"717 698 LINE",
"525 698 LINE",
"448 599 LINE",
"366 476 LINE",
"319 619 LINE",
"291 698 LINE",
"112 698 LINE",
"249 356 LINE",
"-42 0 LINE"
);
}
);
width = 650;
},
{
layerId = "15963509-F4CC-4A33-865A-02712DFE1B04";
paths = (
{
closed = 1;
nodes = (
"51 0 LINE",
"226 199 LINE",
"337 328 LINE",
"396 200 LINE",
"483 0 LINE",
"533 0 LINE",
"377 356 LINE",
"675 698 LINE",
"617 698 LINE",
"459 517 LINE",
"345 387 LINE",
"287 516 LINE",
"207 698 LINE",
"157 698 LINE",
"307 360 LINE",
"-7 0 LINE"
);
}
);
width = 650;
}
);
unicode = 0058;
},
{
color = 6;
glyphname = Y;
lastChange = "2021-05-25 15:15:03 +0000";
layers = (
{
anchors = (
{
name = top;
position = "{394, 699}";
}
);
layerId = "1BFF0FF0-0E64-46D7-A9A4-916803583822";
paths = (
{
closed = 1;
nodes = (
"376 0 LINE",
"436 281 LINE",
"727 698 LINE",
"495 698 LINE",
"424 574 LINE",
"350 431 LINE",
"334 570 LINE",
"314 698 LINE",
"100 698 LINE",
"207 281 LINE",
"147 0 LINE"
);
}
);
width = 650;
},
{
anchors = (
{
name = top;
position = "{414, 699}";
}
);
layerId = "A3B76219-B495-4A65-93FB-16A8FAD49F3F";
paths = (
{
closed = 1;
nodes = (
"346 0 LINE",
"406 282 LINE",
"719 698 LINE",
"540 698 LINE",
"437 560 LINE",
"350 419 LINE",
"326 559 LINE",
"281 698 LINE",
"108 698 LINE",
"241 282 LINE",
"181 0 LINE"
);
}
);
width = 650;
},
{
anchors = (
{
name = top;
position = "{416, 699}";
}
);
layerId = "15963509-F4CC-4A33-865A-02712DFE1B04";
paths = (
{
closed = 1;
nodes = (
"289 0 LINE",
"349 283 LINE",
"682 698 LINE",
"624 698 LINE",
"420 443 LINE",
"332 331 LINE",
"287 464 LINE",
"201 698 LINE",
"149 698 LINE",
"302 283 LINE",
"242 0 LINE"
);
}
);
width = 650;
}
);
unicode = 0059;
},
{
color = 6;
glyphname = Z;
lastChange = "2021-05-25 15:15:03 +0000";
layers = (
{
anchors = (
{
name = top;
position = "{414, 699}";
}
);
layerId = "1BFF0FF0-0E64-46D7-A9A4-916803583822";
paths = (
{
closed = 1;
nodes = (
"558 0 LINE",
"597 184 LINE",
"433 184 LINE",
"271 185 LINE",
"396 277 LINE",
"674 544 LINE",
"707 698 LINE",
"130 698 LINE",
"90 514 LINE",
"234 514 LINE",
"396 514 LINE",
"273 420 LINE",
"4 154 LINE",
"-29 0 LINE"
);
}
);
width = 650;
},
{
anchors = (
{
name = top;
position = "{413, 699}";
}
);
layerId = "A3B76219-B495-4A65-93FB-16A8FAD49F3F";
paths = (
{
closed = 1;
nodes = (
"543 0 LINE",
"572 135 LINE",
"376 135 LINE",
"224 135 LINE",
"333 234 LINE",
"667 585 LINE",
"691 698 LINE",
"146 698 LINE",
"118 563 LINE",
"302 563 LINE",
"454 563 LINE",
"345 464 LINE",
"10 113 LINE",
"-14 0 LINE"
);
}
);
width = 650;
},
{
anchors = (
{
name = top;
position = "{415, 699}";
}
);
layerId = "15963509-F4CC-4A33-865A-02712DFE1B04";
paths = (
{
closed = 1;
nodes = (
"526 0 LINE",
"536 45 LINE",
"220 45 LINE",
"83 45 LINE",
"176 144 LINE",
"666 660 LINE",
"675 698 LINE",
"170 698 LINE",
"160 653 LINE",
"461 653 LINE",
"598 653 LINE",
"504 554 LINE",
"13 38 LINE",
"5 0 LINE"
);
}
);
width = 650;
}
);
unicode = 005A;
},
{
color = 3;
glyphname = Q.ss03;
lastChange = "2021-05-25 15:15:03 +0000";
layers = (
{
anchors = (
{
name = bottom;
position = "{265, 0}";
},
{
name = top;
position = "{385, 563}";
}
);
components = (
{
name = O;
}
);
layerId = "1BFF0FF0-0E64-46D7-A9A4-916803583822";
paths = (
{
closed = 1;
nodes = (
"356 -178 LINE",
"410 73 LINE",
"181 73 LINE",
"127 -178 LINE"
);
}
);
width = 650;
},
{
anchors = (
{
name = bottom;
position = "{266, 0}";
},
{
name = top;
position = "{384, 556}";
}
);
components = (
{
name = O;
transform = "{1, 0, 0, 1, -1, 0}";
}
);
layerId = "A3B76219-B495-4A65-93FB-16A8FAD49F3F";
paths = (
{
closed = 1;
nodes = (
"314 -178 LINE",
"370 81 LINE",
"206 81 LINE",
"149 -178 LINE"
);
}
);
width = 650;
},
{
anchors = (
{
name = bottom;
position = "{267, 0}";
},
{
name = top;
position = "{383, 544}";
}
);
components = (
{
name = O;
}
);
layerId = "15963509-F4CC-4A33-865A-02712DFE1B04";
paths = (
{
closed = 1;
nodes = (
"252 -178 LINE",
"293 15 LINE",
"246 15 LINE",
"205 -178 LINE"
);
}
);
width = 650;
}
);
leftMetricsKey = O;
rightMetricsKey = O;
category = Letter;
subCategory = "";
},
{
color = 6;
glyphname = C.ss04;
lastChange = "2021-05-25 15:15:03 +0000";
layers = (
{
anchors = (
{
name = bottom;
position = "{339, 0}";
},
{
name = center;
position = "{367, 225}";
},
{
name = ogonek;
position = "{404, 0}";
},
{
name = top;
position = "{468, 699}";
},
{
name = topleft;
position = "{137, 699}";
},
{
name = topright;
position = "{798, 699}";
}
);
layerId = "1BFF0FF0-0E64-46D7-A9A4-916803583822";
paths = (
{
closed = 1;
nodes = (
"541 0 LINE",
"580 184 LINE",
"396 184 LINE SMOOTH",
"328 184 OFFCURVE",
"283 238 OFFCURVE",
"283 321 CURVE SMOOTH",
"283 438 OFFCURVE",
"355 514 OFFCURVE",
"466 514 CURVE SMOOTH",
"650 514 LINE",
"690 698 LINE",
"499 698 LINE SMOOTH",
"224 698 OFFCURVE",
"45 533 OFFCURVE",
"45 295 CURVE SMOOTH",
"45 110 OFFCURVE",
"170 0 OFFCURVE",
"363 0 CURVE SMOOTH"
);
}
);
width = 650;
},
{
anchors = (
{
name = bottom;
position = "{336, 0}";
},
{
name = center;
position = "{400, 350}";
},
{
name = ogonek;
position = "{411, 0}";
},
{
name = top;
position = "{474, 699}";
},
{
name = topleft;
position = "{137, 699}";
},
{
name = topright;
position = "{698, 699}";
}
);
layerId = "A3B76219-B495-4A65-93FB-16A8FAD49F3F";
rightMetricsKey = "=+29";
paths = (
{
closed = 1;
nodes = (
"550 0 LINE",
"579 135 LINE",
"381 135 LINE SMOOTH",
"285 135 OFFCURVE",
"221 208 OFFCURVE",
"221 302 CURVE SMOOTH",
"221 449 OFFCURVE",
"312 563 OFFCURVE",
"472 563 CURVE SMOOTH",
"670 563 LINE",
"698 698 LINE",
"500 698 LINE SMOOTH",
"247 698 OFFCURVE",
"49 542 OFFCURVE",
"49 293 CURVE SMOOTH",
"49 131 OFFCURVE",
"167 0 OFFCURVE",
"352 0 CURVE SMOOTH"
);
}
);
width = 650;
},
{
anchors = (
{
name = bottom;
position = "{318, 0}";
},
{
name = center;
position = "{373, 350}";
},
{
name = ogonek;
position = "{403, 0}";
},
{
name = top;
position = "{447, 699}";
},
{
name = topleft;
position = "{98, 699}";
},
{
name = topright;
position = "{796, 699}";
}
);
layerId = "15963509-F4CC-4A33-865A-02712DFE1B04";
rightMetricsKey = "=52";
paths = (
{
closed = 1;
nodes = (
"538 0 LINE",
"548 45 LINE",
"340 45 LINE SMOOTH",
"205 45 OFFCURVE",
"109 151 OFFCURVE",
"109 298 CURVE SMOOTH",
"109 505 OFFCURVE",
"255 653 OFFCURVE",
"459 653 CURVE SMOOTH",
"677 653 LINE",
"687 698 LINE",
"469 698 LINE SMOOTH",
"229 698 OFFCURVE",
"57 530 OFFCURVE",
"57 296 CURVE SMOOTH",
"57 123 OFFCURVE",
"171 0 OFFCURVE",
"330 0 CURVE SMOOTH"
);
}
);
width = 650;
}
);
leftMetricsKey = O;
rightMetricsKey = H;
category = Letter;
subCategory = "";
},
{
color = 6;
glyphname = G.ss05;
lastChange = "2021-05-25 15:15:03 +0000";
layers = (
{
anchors = (
{
name = bottom;
position = "{288, 0}";
},
{
name = top;
position = "{471, 699}";
}
);
layerId = "1BFF0FF0-0E64-46D7-A9A4-916803583822";
paths = (
{
closed = 1;
nodes = (
"570 0 LINE",
"652 384 LINE",
"423 384 LINE",
"380 184 LINE",
"379 184 LINE SMOOTH",
"313 184 OFFCURVE",
"272 239 OFFCURVE",
"272 327 CURVE SMOOTH",
"272 442 OFFCURVE",
"347 514 OFFCURVE",
"466 514 CURVE SMOOTH",
"680 514 LINE",
"719 698 LINE",
"501 698 LINE SMOOTH",
"214 698 OFFCURVE",
"34 540 OFFCURVE",
"34 304 CURVE SMOOTH",
"34 111 OFFCURVE",
"159 0 OFFCURVE",
"357 0 CURVE SMOOTH"
);
}
);
width = 650;
},
{
anchors = (
{
name = bottom;
position = "{283, 0}";
},
{
name = top;
position = "{469, 699}";
}
);
layerId = "A3B76219-B495-4A65-93FB-16A8FAD49F3F";
paths = (
{
closed = 1;
nodes = (
"563 0 LINE",
"643 377 LINE",
"478 377 LINE",
"427 135 LINE",
"381 135 LINE SMOOTH",
"289 135 OFFCURVE",
"221 209 OFFCURVE",
"221 313 CURVE SMOOTH",
"221 455 OFFCURVE",
"318 563 OFFCURVE",
"465 563 CURVE SMOOTH",
"683 563 LINE",
"711 698 LINE",
"483 698 LINE SMOOTH",
"245 698 OFFCURVE",
"49 543 OFFCURVE",
"49 308 CURVE SMOOTH",
"49 120 OFFCURVE",
"186 0 OFFCURVE",
"362 0 CURVE SMOOTH"
);
}
);
width = 650;
},
{
anchors = (
{
name = bottom;
position = "{278, 0}";
},
{
name = top;
position = "{442, 699}";
}
);
layerId = "15963509-F4CC-4A33-865A-02712DFE1B04";
paths = (
{
closed = 1;
nodes = (
"544 0 LINE",
"621 363 LINE",
"575 363 LINE",
"508 45 LINE",
"333 45 LINE SMOOTH",
"192 45 OFFCURVE",
"100 153 OFFCURVE",
"100 302 CURVE SMOOTH",
"100 490 OFFCURVE",
"229 653 OFFCURVE",
"439 653 CURVE SMOOTH",
"683 653 LINE",
"693 698 LINE",
"445 698 LINE SMOOTH",
"188 698 OFFCURVE",
"48 503 OFFCURVE",
"48 299 CURVE SMOOTH",
"48 122 OFFCURVE",
"162 0 OFFCURVE",
"329 0 CURVE SMOOTH"
);
}
);
width = 650;
}
);
leftMetricsKey = "=O";
category = Letter;
subCategory = "";
},
{
color = 6;
glyphname = M.ss09;
lastChange = "2021-05-25 15:15:03 +0000";
layers = (
{
layerId = "1BFF0FF0-0E64-46D7-A9A4-916803583822";
paths = (
{
closed = 1;
nodes = (
"154 0 LINE",
"194 189 LINE",
"231 373 LINE",
"216 189 LINE",
"199 0 LINE",
"331 0 LINE",
"394 189 LINE",
"458 367 LINE",
"416 189 LINE",
"376 0 LINE",
"557 0 LINE",
"706 698 LINE",
"443 698 LINE",
"395 556 LINE",
"351 424 LINE",
"363 556 LINE",
"378 698 LINE",
"122 698 LINE",
"-27 0 LINE"
);
}
);
width = 650;
},
{
layerId = "A3B76219-B495-4A65-93FB-16A8FAD49F3F";
paths = (
{
closed = 1;
nodes = (
"136 0 LINE",
"194 275 LINE",
"224 426 LINE",
"219 275 LINE",
"208 0 LINE",
"324 0 LINE",
"429 275 LINE",
"489 421 LINE",
"454 275 LINE",
"396 0 LINE",
"552 0 LINE",
"700 698 LINE",
"477 698 LINE",
"381 447 LINE",
"329 311 LINE",
"336 447 LINE",
"347 698 LINE",
"128 698 LINE",
"-20 0 LINE"
);
}
);
width = 650;
},
{
layerId = "15963509-F4CC-4A33-865A-02712DFE1B04";
paths = (
{
closed = 1;
nodes = (
"37 0 LINE",
"141 490 LINE",
"168 627 LINE",
"184 490 LINE",
"241 0 LINE",
"293 0 LINE",
"559 490 LINE",
"633 627 LINE",
"601 490 LINE",
"497 0 LINE",
"544 0 LINE",
"693 698 LINE",
"620 698 LINE",
"334 171 LINE",
"278 65 LINE",
"268 171 LINE",
"207 698 LINE",
"139 698 LINE",
"-10 0 LINE"
);
}
);
width = 650;
}
);
leftMetricsKey = "=H";
rightMetricsKey = "=H";
category = Letter;
subCategory = "";
},
{
color = 6;
glyphname = S.ss11;
lastChange = "2021-05-25 15:15:03 +0000";
layers = (
{
anchors = (
{
name = bottom;
position = "{266, 0}";
},
{
name = top;
position = "{436, 699}";
}
);
layerId = "1BFF0FF0-0E64-46D7-A9A4-916803583822";
paths = (
{
closed = 1;
nodes = (
"300 0 LINE SMOOTH",
"477 0 OFFCURVE",
"588 105 OFFCURVE",
"588 257 CURVE SMOOTH",
"588 382 OFFCURVE",
"514 450 OFFCURVE",
"396 450 CURVE SMOOTH",
"366 450 LINE SMOOTH",
"341 450 OFFCURVE",
"326 462 OFFCURVE",
"326 481 CURVE SMOOTH",
"326 501 OFFCURVE",
"341 514 OFFCURVE",
"364 514 CURVE SMOOTH",
"635 514 LINE",
"675 698 LINE",
"370 698 LINE SMOOTH",
"200 698 OFFCURVE",
"94 597 OFFCURVE",
"94 453 CURVE SMOOTH",
"94 332 OFFCURVE",
"165 266 OFFCURVE",
"278 266 CURVE SMOOTH",
"306 266 LINE SMOOTH",
"337 266 OFFCURVE",
"357 251 OFFCURVE",
"357 227 CURVE SMOOTH",
"357 201 OFFCURVE",
"338 184 OFFCURVE",
"307 184 CURVE SMOOTH",
"34 184 LINE",
"-5 0 LINE"
);
}
);
userData = {
RMXScaler = {
height = 126;
width = 112;
};
};
width = 650;
},
{
anchors = (
{
name = bottom;
position = "{260, 0}";
},
{
name = top;
position = "{430, 699}";
}
);
layerId = "A3B76219-B495-4A65-93FB-16A8FAD49F3F";
paths = (
{
closed = 1;
nodes = (
"319 0 LINE SMOOTH",
"484 0 OFFCURVE",
"586 96 OFFCURVE",
"586 237 CURVE SMOOTH",
"586 356 OFFCURVE",
"506 427 OFFCURVE",
"386 427 CURVE SMOOTH",
"328 427 LINE SMOOTH",
"282 427 OFFCURVE",
"255 454 OFFCURVE",
"255 491 CURVE SMOOTH",
"255 535 OFFCURVE",
"286 563 OFFCURVE",
"336 563 CURVE SMOOTH",
"639 563 LINE",
"667 698 LINE",
"350 698 LINE SMOOTH",
"193 698 OFFCURVE",
"97 607 OFFCURVE",
"97 474 CURVE SMOOTH",
"97 360 OFFCURVE",
"171 292 OFFCURVE",
"295 292 CURVE SMOOTH",
"354 292 LINE SMOOTH",
"396 292 OFFCURVE",
"428 262 OFFCURVE",
"428 220 CURVE SMOOTH",
"428 168 OFFCURVE",
"392 135 OFFCURVE",
"334 135 CURVE SMOOTH",
"32 135 LINE",
"3 0 LINE"
);
}
);
userData = {
RMXScaler = {
height = 126;
width = 112;
};
};
width = 650;
},
{
anchors = (
{
name = bottom;
position = "{257, 0}";
},
{
name = top;
position = "{406, 699}";
}
);
layerId = "15963509-F4CC-4A33-865A-02712DFE1B04";
paths = (
{
closed = 1;
nodes = (
"322 0 LINE SMOOTH",
"453 0 OFFCURVE",
"546 81 OFFCURVE",
"546 211 CURVE SMOOTH",
"546 317 OFFCURVE",
"475 384 OFFCURVE",
"377 384 CURVE SMOOTH",
"320 384 LINE SMOOTH",
"244 384 OFFCURVE",
"187 431 OFFCURVE",
"187 507 CURVE SMOOTH",
"187 597 OFFCURVE",
"257 653 OFFCURVE",
"353 653 CURVE SMOOTH",
"619 653 LINE",
"629 698 LINE",
"360 698 LINE SMOOTH",
"230 698 OFFCURVE",
"139 624 OFFCURVE",
"139 505 CURVE SMOOTH",
"139 403 OFFCURVE",
"212 339 OFFCURVE",
"313 339 CURVE SMOOTH",
"370 339 LINE SMOOTH",
"442 339 OFFCURVE",
"498 289 OFFCURVE",
"498 209 CURVE SMOOTH",
"498 108 OFFCURVE",
"427 45 OFFCURVE",
"329 45 CURVE SMOOTH",
"43 45 LINE",
"33 0 LINE"
);
}
);
userData = {
RMXScaler = {
height = 128;
width = 112;
};
};
width = 650;
}
);
category = Letter;
subCategory = "";
userData = {
RMXScaler = {
source = s.ss01;
};
};
},
{
color = 6;
glyphname = U.ss13;
lastChange = "2021-05-25 15:15:03 +0000";
layers = (
{
anchors = (
{
name = bottom;
position = "{256, 0}";
},
{
name = ogonek;
position = "{471, 0}";
},
{
name = top;
position = "{405, 699}";
},
{
name = topleft;
position = "{457, 699}";
},
{
name = topright;
position = "{714, 699}";
}
);
layerId = "1BFF0FF0-0E64-46D7-A9A4-916803583822";
paths = (
{
closed = 1;
nodes = (
"260 -12 OFFCURVE",
"320 12 OFFCURVE",
"349 46 CURVE",
"344 0 LINE",
"568 0 LINE",
"717 699 LINE",
"488 699 LINE",
"388 230 LINE",
"364 195 OFFCURVE",
"341 172 OFFCURVE",
"300 172 CURVE SMOOTH",
"249 172 OFFCURVE",
"236 213 OFFCURVE",
"246 258 CURVE SMOOTH",
"340 699 LINE",
"111 699 LINE",
"18 261 LINE SMOOTH",
"-15 106 OFFCURVE",
"63 -12 OFFCURVE",
"207 -12 CURVE SMOOTH"
);
}
);
width = 650;
},
{
anchors = (
{
name = bottom;
position = "{257, 0}";
},
{
name = ogonek;
position = "{524, 0}";
},
{
name = top;
position = "{405, 699}";
},
{
name = topleft;
position = "{497, 699}";
},
{
name = topright;
position = "{732, 699}";
}
);
layerId = "A3B76219-B495-4A65-93FB-16A8FAD49F3F";
paths = (
{
closed = 1;
nodes = (
"297 -12 OFFCURVE",
"371 21 OFFCURVE",
"409 67 CURVE",
"400 0 LINE",
"560 0 LINE",
"708 699 LINE",
"543 699 LINE",
"443 226 LINE",
"408 165 OFFCURVE",
"344 123 OFFCURVE",
"285 123 CURVE SMOOTH",
"213 123 OFFCURVE",
"174 176 OFFCURVE",
"190 251 CURVE SMOOTH",
"285 699 LINE",
"120 699 LINE",
"27 261 LINE SMOOTH",
"-7 102 OFFCURVE",
"79 -12 OFFCURVE",
"232 -12 CURVE SMOOTH"
);
}
);
width = 650;
},
{
anchors = (
{
name = bottom;
position = "{262, 0}";
},
{
name = ogonek;
position = "{537, 0}";
},
{
name = top;
position = "{401, 699}";
},
{
name = topleft;
position = "{569, 699}";
},
{
name = topright;
position = "{755, 699}";
}
);
layerId = "15963509-F4CC-4A33-865A-02712DFE1B04";
paths = (
{
closed = 1;
nodes = (
"356 -12 OFFCURVE",
"453 41 OFFCURVE",
"518 131 CURVE",
"495 0 LINE",
"537 0 LINE",
"686 698 LINE",
"639 698 LINE",
"536 216 LINE",
"477 101 OFFCURVE",
"375 33 OFFCURVE",
"260 33 CURVE SMOOTH",
"137 33 OFFCURVE",
"59 125 OFFCURVE",
"91 274 CURVE SMOOTH",
"182 698 LINE",
"135 698 LINE",
"44 272 LINE SMOOTH",
"7 100 OFFCURVE",
"105 -12 OFFCURVE",
"258 -12 CURVE SMOOTH"
);
}
);
width = 650;
}
);
rightMetricsKey = H;
category = Letter;
subCategory = "";
},
{
color = 6;
glyphname = U.ss14;
lastChange = "2021-05-25 15:15:03 +0000";
layers = (
{
anchors = (
{
name = bottom;
position = "{265, 0}";
},
{
name = ogonek;
position = "{565, 0}";
},
{
name = top;
position = "{408, 699}";
},
{
name = topright;
position = "{752, 699}";
}
);
layerId = "1BFF0FF0-0E64-46D7-A9A4-916803583822";
paths = (
{
closed = 1;
nodes = (
"565 0 LINE",
"714 698 LINE",
"485 698 LINE",
"375 184 LINE",
"318 184 LINE SMOOTH",
"267 184 OFFCURVE",
"240 215 OFFCURVE",
"252 272 CURVE SMOOTH",
"343 698 LINE",
"114 698 LINE",
"19 252 LINE SMOOTH",
"-17 85 OFFCURVE",
"66 0 OFFCURVE",
"229 0 CURVE SMOOTH"
);
}
);
width = 650;
},
{
anchors = (
{
name = bottom;
position = "{266, 0}";
},
{
name = ogonek;
position = "{557, 0}";
},
{
name = top;
position = "{414, 699}";
},
{
name = topright;
position = "{755, 699}";
}
);
layerId = "A3B76219-B495-4A65-93FB-16A8FAD49F3F";
paths = (
{
closed = 1;
nodes = (
"557 0 LINE",
"705 698 LINE",
"540 698 LINE",
"421 135 LINE",
"293 135 LINE SMOOTH",
"217 135 OFFCURVE",
"179 185 OFFCURVE",
"195 261 CURVE SMOOTH",
"288 698 LINE",
"123 698 LINE",
"30 259 LINE SMOOTH",
"-3 102 OFFCURVE",
"90 0 OFFCURVE",
"262 0 CURVE SMOOTH"
);
}
);
width = 650;
},
{
anchors = (
{
name = bottom;
position = "{268, 0}";
},
{
name = ogonek;
position = "{537, 0}";
},
{
name = top;
position = "{397, 699}";
},
{
name = topright;
position = "{774, 699}";
}
);
layerId = "15963509-F4CC-4A33-865A-02712DFE1B04";
paths = (
{
closed = 1;
nodes = (
"537 0 LINE",
"686 698 LINE",
"639 698 LINE",
"500 45 LINE",
"253 45 LINE SMOOTH",
"125 45 OFFCURVE",
"60 128 OFFCURVE",
"87 255 CURVE SMOOTH",
"182 698 LINE",
"135 698 LINE",
"40 253 LINE SMOOTH",
"7 100 OFFCURVE",
"90 0 OFFCURVE",
"251 0 CURVE SMOOTH"
);
}
);
width = 650;
}
);
rightMetricsKey = H;
category = Letter;
subCategory = "";
},
{
color = 6;
glyphname = Y.ss15;
lastChange = "2021-05-25 15:15:03 +0000";
layers = (
{
anchors = (
{
name = top;
position = "{395, 699}";
}
);
layerId = "1BFF0FF0-0E64-46D7-A9A4-916803583822";
paths = (
{
closed = 1;
nodes = (
"291 0 LINE",
"732 698 LINE",
"489 698 LINE",
"297 354 LINE",
"55 0 LINE"
);
},
{
closed = 1;
nodes = (
"356 354 LINE",
"324 698 LINE",
"96 698 LINE",
"184 164 LINE"
);
}
);
width = 650;
},
{
anchors = (
{
name = top;
position = "{415, 699}";
}
);
layerId = "A3B76219-B495-4A65-93FB-16A8FAD49F3F";
paths = (
{
closed = 1;
nodes = (
"261 0 LINE",
"722 698 LINE",
"543 698 LINE",
"302 308 LINE",
"82 0 LINE"
);
},
{
closed = 1;
nodes = (
"342 345 LINE",
"292 698 LINE",
"106 698 LINE",
"219 178 LINE"
);
}
);
width = 650;
},
{
anchors = (
{
name = top;
position = "{416, 699}";
}
);
layerId = "15963509-F4CC-4A33-865A-02712DFE1B04";
paths = (
{
closed = 1;
nodes = (
"163 0 LINE",
"699 698 LINE",
"645 698 LINE",
"297 245 LINE",
"109 0 LINE"
);
},
{
closed = 1;
nodes = (
"322 252 LINE",
"179 698 LINE",
"131 698 LINE",
"291 203 LINE"
);
}
);
width = 650;
}
);
leftMetricsKey = Y;
category = Letter;
subCategory = "";
},
{
color = 6;
glyphname = a;
lastChange = "2021-05-25 15:15:03 +0000";
layers = (
{
anchors = (
{
name = bottom;
position = "{294, 0}";
},
{
name = ogonek;
position = "{467, 0}";
},
{
name = top;
position = "{369, 563}";
}
);
layerId = "1BFF0FF0-0E64-46D7-A9A4-916803583822";
paths = (
{
closed = 1;
nodes = (
"538 0 LINE",
"609 333 LINE SMOOTH",
"643 491 OFFCURVE",
"542 575 OFFCURVE",
"357 575 CURVE SMOOTH",
"185 575 OFFCURVE",
"95 494 OFFCURVE",
"70 382 CURVE",
"278 382 LINE",
"285 412 OFFCURVE",
"305 428 OFFCURVE",
"345 428 CURVE SMOOTH",
"383 428 OFFCURVE",
"408 408 OFFCURVE",
"400 370 CURVE SMOOTH",
"337 73 LINE",
"326 0 LINE"
);
},
{
closed = 1;
nodes = (
"271 -12 OFFCURVE",
"315 17 OFFCURVE",
"362 73 CURVE",
"368 186 LINE",
"346 161 OFFCURVE",
"312 147 OFFCURVE",
"275 147 CURVE SMOOTH",
"250 147 OFFCURVE",
"235 159 OFFCURVE",
"235 178 CURVE SMOOTH",
"235 196 OFFCURVE",
"247 212 OFFCURVE",
"278 213 CURVE SMOOTH",
"381 215 LINE",
"412 349 LINE",
"283 349 LINE SMOOTH",
"135 349 OFFCURVE",
"38 269 OFFCURVE",
"38 145 CURVE SMOOTH",
"38 69 OFFCURVE",
"95 -12 OFFCURVE",
"202 -12 CURVE SMOOTH"
);
}
);
width = 650;
},
{
anchors = (
{
name = bottom;
position = "{289, 0}";
},
{
name = ogonek;
position = "{498, 0}";
},
{
name = top;
position = "{363, 556}";
}
);
layerId = "A3B76219-B495-4A65-93FB-16A8FAD49F3F";
paths = (
{
closed = 1;
nodes = (
"524 0 LINE",
"593 329 LINE SMOOTH",
"623 474 OFFCURVE",
"524 568 OFFCURVE",
"350 568 CURVE SMOOTH",
"202 568 OFFCURVE",
"87 491 OFFCURVE",
"75 379 CURVE",
"226 379 LINE",
"235 435 OFFCURVE",
"280 458 OFFCURVE",
"343 458 CURVE SMOOTH",
"412 458 OFFCURVE",
"457 416 OFFCURVE",
"443 352 CURVE SMOOTH",
"389 100 LINE",
"373 0 LINE"
);
},
{
closed = 1;
nodes = (
"312 -12 OFFCURVE",
"364 18 OFFCURVE",
"414 94 CURVE",
"419 199 LINE",
"378 141 OFFCURVE",
"330 111 OFFCURVE",
"270 111 CURVE SMOOTH",
"229 111 OFFCURVE",
"204 132 OFFCURVE",
"204 164 CURVE SMOOTH",
"204 202 OFFCURVE",
"234 226 OFFCURVE",
"288 226 CURVE SMOOTH",
"431 227 LINE",
"454 335 LINE",
"295 335 LINE SMOOTH",
"159 335 OFFCURVE",
"46 288 OFFCURVE",
"46 147 CURVE SMOOTH",
"46 57 OFFCURVE",
"123 -12 OFFCURVE",
"226 -12 CURVE SMOOTH"
);
}
);
width = 650;
},
{
anchors = (
{
name = bottom;
position = "{269, 0}";
},
{
name = ogonek;
position = "{490, 0}";
},
{
name = top;
position = "{375, 544}";
}
);
layerId = "15963509-F4CC-4A33-865A-02712DFE1B04";
paths = (
{
closed = 1;
nodes = (
"490 0 LINE",
"561 335 LINE SMOOTH",
"590 471 OFFCURVE",
"489 556 OFFCURVE",
"353 556 CURVE SMOOTH",
"224 556 OFFCURVE",
"120 487 OFFCURVE",
"100 368 CURVE",
"147 368 LINE",
"162 459 OFFCURVE",
"244 514 OFFCURVE",
"350 514 CURVE SMOOTH",
"462 514 OFFCURVE",
"539 447 OFFCURVE",
"515 335 CURVE SMOOTH",
"475 150 LINE",
"449 0 LINE"
);
},
{
closed = 1;
nodes = (
"357 -12 OFFCURVE",
"435 47 OFFCURVE",
"489 143 CURVE",
"489 192 LINE",
"429 94 OFFCURVE",
"351 30 OFFCURVE",
"258 30 CURVE SMOOTH",
"193 30 OFFCURVE",
"143 70 OFFCURVE",
"143 139 CURVE SMOOTH",
"143 223 OFFCURVE",
"216 277 OFFCURVE",
"331 277 CURVE SMOOTH",
"515 277 LINE",
"524 319 LINE",
"333 319 LINE SMOOTH",
"188 319 OFFCURVE",
"95 247 OFFCURVE",
"95 137 CURVE SMOOTH",
"95 44 OFFCURVE",
"163 -12 OFFCURVE",
"255 -12 CURVE SMOOTH"
);
}
);
width = 650;
}
);
rightMetricsKey = n;
unicode = 0061;
},
{
color = 6;
glyphname = ae;
lastChange = "2021-05-25 15:15:03 +0000";
layers = (
{
anchors = (
{
name = bottom;
position = "{389, 0}";
},
{
name = ogonek;
position = "{579, -2}";
},
{
name = top;
position = "{383, 564}";
}
);
layerId = "1BFF0FF0-0E64-46D7-A9A4-916803583822";
paths = (
{
closed = 1;
nodes = (
"345 119 LINE",
"398 367 LINE SMOOTH",
"424 491 OFFCURVE",
"371 575 OFFCURVE",
"245 575 CURVE SMOOTH",
"138 575 OFFCURVE",
"60 503 OFFCURVE",
"30 384 CURVE",
"187 384 LINE",
"194 420 OFFCURVE",
"211 441 OFFCURVE",
"231 441 CURVE SMOOTH",
"249 441 OFFCURVE",
"260 425 OFFCURVE",
"252 387 CURVE SMOOTH",
"194 119 LINE"
);
},
{
closed = 1;
nodes = (
"218 -12 OFFCURVE",
"270 43 OFFCURVE",
"304 163 CURVE",
"231 255 LINE",
"212 156 OFFCURVE",
"196 126 OFFCURVE",
"167 126 CURVE SMOOTH",
"151 126 OFFCURVE",
"140 140 OFFCURVE",
"140 159 CURVE SMOOTH",
"140 191 OFFCURVE",
"166 217 OFFCURVE",
"207 217 CURVE SMOOTH",
"227 217 LINE",
"253 336 LINE",
"213 336 LINE SMOOTH",
"79 336 OFFCURVE",
"-14 256 OFFCURVE",
"-14 128 CURVE SMOOTH",
"-14 52 OFFCURVE",
"35 -12 OFFCURVE",
"124 -12 CURVE SMOOTH"
);
},
{
closed = 1;
nodes = (
"496 -12 OFFCURVE",
"584 64 OFFCURVE",
"618 195 CURVE",
"464 195 LINE",
"452 153 OFFCURVE",
"430 135 OFFCURVE",
"408 135 CURVE SMOOTH",
"385 135 OFFCURVE",
"373 161 OFFCURVE",
"373 203 CURVE SMOOTH",
"373 242 OFFCURVE",
"392 441 OFFCURVE",
"460 441 CURVE SMOOTH",
"487 441 OFFCURVE",
"493 407 OFFCURVE",
"485 368 CURVE",
"380 368 LINE",
"354 257 LINE",
"628 257 LINE",
"658 429 OFFCURVE",
"633 575 OFFCURVE",
"476 575 CURVE SMOOTH",
"300 575 OFFCURVE",
"216 324 OFFCURVE",
"216 174 CURVE SMOOTH",
"216 57 OFFCURVE",
"283 -12 OFFCURVE",
"388 -12 CURVE SMOOTH"
);
}
);
width = 650;
},
{
anchors = (
{
name = bottom;
position = "{360, 0}";
},
{
name = ogonek;
position = "{442, 0}";
},
{
name = top;
position = "{377, 556}";
}
);
layerId = "A3B76219-B495-4A65-93FB-16A8FAD49F3F";
paths = (
{
closed = 1;
nodes = (
"342 119 LINE",
"394 362 LINE SMOOTH",
"419 479 OFFCURVE",
"359 568 OFFCURVE",
"239 568 CURVE SMOOTH",
"120 568 OFFCURVE",
"45 497 OFFCURVE",
"22 378 CURVE",
"178 378 LINE",
"188 418 OFFCURVE",
"203 440 OFFCURVE",
"228 440 CURVE SMOOTH",
"251 440 OFFCURVE",
"260 419 OFFCURVE",
"252 384 CURVE SMOOTH",
"195 119 LINE"
);
},
{
closed = 1;
nodes = (
"216 -12 OFFCURVE",
"263 45 OFFCURVE",
"296 159 CURVE",
"229 247 LINE",
"212 152 OFFCURVE",
"189 113 OFFCURVE",
"158 113 CURVE SMOOTH",
"140 113 OFFCURVE",
"129 128 OFFCURVE",
"129 150 CURVE SMOOTH",
"129 191 OFFCURVE",
"165 229 OFFCURVE",
"205 229 CURVE SMOOTH",
"229 229 LINE",
"253 334 LINE",
"208 334 LINE SMOOTH",
"84 334 OFFCURVE",
"-13 262 OFFCURVE",
"-13 134 CURVE SMOOTH",
"-13 46 OFFCURVE",
"44 -12 OFFCURVE",
"129 -12 CURVE SMOOTH"
);
},
{
closed = 1;
nodes = (
"511 -12 OFFCURVE",
"577 65 OFFCURVE",
"610 191 CURVE",
"478 191 LINE",
"462 146 OFFCURVE",
"445 114 OFFCURVE",
"415 114 CURVE SMOOTH",
"379 114 OFFCURVE",
"370 164 OFFCURVE",
"370 211 CURVE SMOOTH",
"370 251 OFFCURVE",
"390 450 OFFCURVE",
"464 450 CURVE SMOOTH",
"499 450 OFFCURVE",
"514 408 OFFCURVE",
"503 362 CURVE",
"377 362 LINE",
"353 257 LINE",
"620 257 LINE",
"660 428 OFFCURVE",
"627 568 OFFCURVE",
"477 568 CURVE SMOOTH",
"318 568 OFFCURVE",
"222 365 OFFCURVE",
"222 192 CURVE SMOOTH",
"222 75 OFFCURVE",
"294 -12 OFFCURVE",
"402 -12 CURVE SMOOTH"
);
}
);
width = 650;
},
{
anchors = (
{
name = bottom;
position = "{374, 0}";
},
{
name = ogonek;
position = "{562, 4}";
},
{
name = top;
position = "{381, 544}";
}
);
layerId = "15963509-F4CC-4A33-865A-02712DFE1B04";
paths = (
{
closed = 1;
nodes = (
"294 116 LINE",
"345 355 LINE SMOOTH",
"367 459 OFFCURVE",
"333 556 OFFCURVE",
"220 556 CURVE SMOOTH",
"128 556 OFFCURVE",
"51 486 OFFCURVE",
"31 368 CURVE",
"75 368 LINE",
"94 461 OFFCURVE",
"142 515 OFFCURVE",
"216 515 CURVE SMOOTH",
"302 515 OFFCURVE",
"318 435 OFFCURVE",
"301 355 CURVE SMOOTH",
"250 116 LINE"
);
},
{
closed = 1;
nodes = (
"190 -12 OFFCURVE",
"248 32 OFFCURVE",
"286 116 CURVE",
"267 155 LINE",
"229 72 OFFCURVE",
"184 28 OFFCURVE",
"119 28 CURVE SMOOTH",
"65 28 OFFCURVE",
"33 65 OFFCURVE",
"33 117 CURVE SMOOTH",
"33 213 OFFCURVE",
"106 268 OFFCURVE",
"214 268 CURVE SMOOTH",
"291 268 LINE",
"300 309 LINE",
"224 309 LINE SMOOTH",
"91 309 OFFCURVE",
"-13 240 OFFCURVE",
"-13 115 CURVE SMOOTH",
"-13 41 OFFCURVE",
"35 -12 OFFCURVE",
"115 -12 CURVE SMOOTH"
);
},
{
closed = 1;
nodes = (
"528 -12 OFFCURVE",
"586 59 OFFCURVE",
"619 175 CURVE",
"575 175 LINE",
"550 84 OFFCURVE",
"500 28 OFFCURVE",
"430 28 CURVE SMOOTH",
"365 28 OFFCURVE",
"318 81 OFFCURVE",
"318 188 CURVE SMOOTH",
"318 247 OFFCURVE",
"356 515 OFFCURVE",
"506 515 CURVE SMOOTH",
"578 515 OFFCURVE",
"603 443 OFFCURVE",
"598 357 CURVE",
"344 357 LINE",
"335 315 LINE",
"638 315 LINE",
"658 439 OFFCURVE",
"619 556 OFFCURVE",
"511 556 CURVE SMOOTH",
"328 556 OFFCURVE",
"277 294 OFFCURVE",
"277 187 CURVE SMOOTH",
"277 57 OFFCURVE",
"336 -12 OFFCURVE",
"428 -12 CURVE SMOOTH"
);
}
);
width = 650;
}
);
leftMetricsKey = "=a";
rightMetricsKey = "=e";
unicode = 00E6;
},
{
color = 6;
glyphname = b;
lastChange = "2021-05-25 15:15:03 +0000";
layers = (
{
anchors = (
{
name = bottom;
position = "{213, 102}";
},
{
name = center;
position = "{167, 180}";
},
{
name = top;
position = "{360, 564}";
},
{
name = topright;
position = "{470, 564}";
}
);
layerId = "1BFF0FF0-0E64-46D7-A9A4-916803583822";
paths = (
{
closed = 1;
nodes = (
"383 575 OFFCURVE",
"335 552 OFFCURVE",
"304 519 CURVE",
"351 740 LINE",
"135 740 LINE",
"-22 0 LINE",
"189 0 LINE",
"202 46 LINE",
"233 9 OFFCURVE",
"277 -12 OFFCURVE",
"334 -12 CURVE SMOOTH",
"535 -12 OFFCURVE",
"631 165 OFFCURVE",
"631 346 CURVE SMOOTH",
"631 482 OFFCURVE",
"558 575 OFFCURVE",
"428 575 CURVE SMOOTH"
);
},
{
closed = 1;
nodes = (
"270 163 OFFCURVE",
"248 188 OFFCURVE",
"244 228 CURVE",
"268 350 LINE",
"292 385 OFFCURVE",
"315 400 OFFCURVE",
"342 400 CURVE SMOOTH",
"384 400 OFFCURVE",
"410 367 OFFCURVE",
"410 308 CURVE SMOOTH",
"410 241 OFFCURVE",
"376 163 OFFCURVE",
"311 163 CURVE SMOOTH"
);
}
);
width = 650;
},
{
anchors = (
{
name = bottom;
position = "{261, 0}";
},
{
name = center;
position = "{138, 278}";
},
{
name = top;
position = "{379, 556}";
},
{
name = topright;
position = "{404, 556}";
}
);
layerId = "A3B76219-B495-4A65-93FB-16A8FAD49F3F";
paths = (
{
closed = 1;
nodes = (
"341 568 OFFCURVE",
"289 549 OFFCURVE",
"254 513 CURVE",
"301 740 LINE",
"146 740 LINE",
"-11 0 LINE",
"139 0 LINE",
"154 56 LINE",
"188 15 OFFCURVE",
"244 -12 OFFCURVE",
"303 -12 CURVE SMOOTH",
"484 -12 OFFCURVE",
"609 128 OFFCURVE",
"609 346 CURVE SMOOTH",
"609 484 OFFCURVE",
"522 568 OFFCURVE",
"395 568 CURVE SMOOTH"
);
},
{
closed = 1;
nodes = (
"234 116 OFFCURVE",
"196 154 OFFCURVE",
"189 212 CURVE",
"217 344 LINE",
"248 402 OFFCURVE",
"290 440 OFFCURVE",
"357 440 CURVE SMOOTH",
"422 440 OFFCURVE",
"450 398 OFFCURVE",
"450 330 CURVE SMOOTH",
"450 198 OFFCURVE",
"377 116 OFFCURVE",
"289 116 CURVE SMOOTH"
);
}
);
width = 650;
},
{
anchors = (
{
name = bottom;
position = "{275, 0}";
},
{
name = center;
position = "{123, 272}";
},
{
name = top;
position = "{391, 545}";
},
{
name = topright;
position = "{270, 545}";
}
);
layerId = "15963509-F4CC-4A33-865A-02712DFE1B04";
paths = (
{
closed = 1;
nodes = (
"316 556 OFFCURVE",
"242 526 OFFCURVE",
"184 450 CURVE",
"243 730 LINE",
"197 730 LINE",
"42 0 LINE",
"83 0 LINE",
"107 97 LINE",
"142 31 OFFCURVE",
"217 -12 OFFCURVE",
"304 -12 CURVE SMOOTH",
"468 -12 OFFCURVE",
"598 127 OFFCURVE",
"598 337 CURVE SMOOTH",
"598 471 OFFCURVE",
"512 556 OFFCURVE",
"382 556 CURVE SMOOTH"
);
},
{
closed = 1;
nodes = (
"226 30 OFFCURVE",
"155 74 OFFCURVE",
"119 144 CURVE",
"170 385 LINE",
"226 462 OFFCURVE",
"290 514 OFFCURVE",
"380 514 CURVE SMOOTH",
"483 514 OFFCURVE",
"550 443 OFFCURVE",
"550 334 CURVE SMOOTH",
"550 150 OFFCURVE",
"440 30 OFFCURVE",
"306 30 CURVE SMOOTH"
);
}
);
width = 650;
}
);
leftMetricsKey = l;
rightMetricsKey = "=o";
unicode = 0062;
},
{
color = 6;
glyphname = c;
lastChange = "2021-05-25 15:15:03 +0000";
layers = (
{
anchors = (
{
name = bottom;
position = "{293, 0}";
},
{
name = top;
position = "{360, 563}";
}
);
layerId = "1BFF0FF0-0E64-46D7-A9A4-916803583822";
paths = (
{
closed = 1;
nodes = (
"483 -12 OFFCURVE",
"575 85 OFFCURVE",
"605 233 CURVE",
"397 233 LINE",
"387 183 OFFCURVE",
"358 158 OFFCURVE",
"318 158 CURVE SMOOTH",
"280 158 OFFCURVE",
"254 191 OFFCURVE",
"254 239 CURVE SMOOTH",
"254 338 OFFCURVE",
"296 401 OFFCURVE",
"354 401 CURVE SMOOTH",
"400 401 OFFCURVE",
"415 370 OFFCURVE",
"410 322 CURVE",
"618 322 LINE",
"631 477 OFFCURVE",
"529 575 OFFCURVE",
"362 575 CURVE SMOOTH",
"182 575 OFFCURVE",
"34 444 OFFCURVE",
"34 232 CURVE SMOOTH",
"34 89 OFFCURVE",
"137 -12 OFFCURVE",
"299 -12 CURVE SMOOTH"
);
}
);
width = 650;
},
{
anchors = (
{
name = bottom;
position = "{303, 0}";
},
{
name = top;
position = "{370, 557}";
}
);
layerId = "A3B76219-B495-4A65-93FB-16A8FAD49F3F";
paths = (
{
closed = 1;
nodes = (
"462 -12 OFFCURVE",
"567 72 OFFCURVE",
"597 202 CURVE",
"441 202 LINE",
"427 149 OFFCURVE",
"379 113 OFFCURVE",
"316 113 CURVE SMOOTH",
"258 113 OFFCURVE",
"207 155 OFFCURVE",
"207 248 CURVE SMOOTH",
"207 332 OFFCURVE",
"256 441 OFFCURVE",
"363 441 CURVE SMOOTH",
"415 441 OFFCURVE",
"455 409 OFFCURVE",
"459 349 CURVE",
"615 349 LINE",
"622 484 OFFCURVE",
"509 568 OFFCURVE",
"370 568 CURVE SMOOTH",
"178 568 OFFCURVE",
"48 435 OFFCURVE",
"48 239 CURVE SMOOTH",
"48 87 OFFCURVE",
"161 -12 OFFCURVE",
"309 -12 CURVE SMOOTH"
);
}
);
width = 650;
},
{
anchors = (
{
name = bottom;
position = "{289, 0}";
},
{
name = top;
position = "{351, 545}";
}
);
layerId = "15963509-F4CC-4A33-865A-02712DFE1B04";
paths = (
{
closed = 1;
nodes = (
"420 -12 OFFCURVE",
"499 48 OFFCURVE",
"550 173 CURVE",
"503 173 LINE",
"463 75 OFFCURVE",
"400 30 OFFCURVE",
"288 30 CURVE SMOOTH",
"183 30 OFFCURVE",
"110 105 OFFCURVE",
"110 228 CURVE SMOOTH",
"110 378 OFFCURVE",
"189 514 OFFCURVE",
"358 514 CURVE SMOOTH",
"464 514 OFFCURVE",
"519 459 OFFCURVE",
"527 371 CURVE",
"573 371 LINE",
"572 484 OFFCURVE",
"487 556 OFFCURVE",
"361 556 CURVE SMOOTH",
"167 556 OFFCURVE",
"62 403 OFFCURVE",
"62 225 CURVE SMOOTH",
"62 84 OFFCURVE",
"148 -12 OFFCURVE",
"285 -12 CURVE SMOOTH"
);
}
);
width = 650;
}
);
leftMetricsKey = "=o";
unicode = 0063;
},
{
color = 6;
glyphname = d;
lastChange = "2021-05-25 15:15:03 +0000";
layers = (
{
anchors = (
{
name = bottom;
position = "{361, 102}";
},
{
name = center;
position = "{364, 281}";
},
{
name = top;
position = "{410, 564}";
},
{
name = topleft;
position = "{300, 564}";
},
{
name = topright;
position = "{767, 485}";
}
);
layerId = "1BFF0FF0-0E64-46D7-A9A4-916803583822";
paths = (
{
closed = 1;
nodes = (
"125 575 OFFCURVE",
"19 410 OFFCURVE",
"19 220 CURVE SMOOTH",
"19 84 OFFCURVE",
"92 -12 OFFCURVE",
"218 -12 CURVE SMOOTH",
"273 -12 OFFCURVE",
"310 10 OFFCURVE",
"347 46 CURVE",
"340 0 LINE",
"551 0 LINE",
"709 740 LINE",
"493 740 LINE",
"446 519 LINE",
"416 553 OFFCURVE",
"376 575 OFFCURVE",
"314 575 CURVE SMOOTH"
);
},
{
closed = 1;
nodes = (
"253 163 OFFCURVE",
"240 213 OFFCURVE",
"240 251 CURVE SMOOTH",
"240 321 OFFCURVE",
"272 400 OFFCURVE",
"341 400 CURVE SMOOTH",
"381 400 OFFCURVE",
"401 375 OFFCURVE",
"406 335 CURVE",
"382 213 LINE",
"361 183 OFFCURVE",
"339 163 OFFCURVE",
"307 163 CURVE SMOOTH"
);
}
);
width = 650;
},
{
anchors = (
{
name = bottom;
position = "{289, 0}";
},
{
name = center;
position = "{362, 278}";
},
{
name = top;
position = "{407, 557}";
},
{
name = topleft;
position = "{382, 557}";
},
{
name = topright;
position = "{746, 478}";
}
);
layerId = "A3B76219-B495-4A65-93FB-16A8FAD49F3F";
paths = (
{
closed = 1;
nodes = (
"153 568 OFFCURVE",
"43 419 OFFCURVE",
"43 222 CURVE SMOOTH",
"43 101 OFFCURVE",
"118 -12 OFFCURVE",
"271 -12 CURVE SMOOTH",
"325 -12 OFFCURVE",
"370 15 OFFCURVE",
"407 56 CURVE",
"398 0 LINE",
"548 0 LINE",
"706 740 LINE",
"551 740 LINE",
"501 513 LINE",
"466 549 OFFCURVE",
"402 568 OFFCURVE",
"343 568 CURVE SMOOTH"
);
},
{
closed = 1;
nodes = (
"239 116 OFFCURVE",
"202 166 OFFCURVE",
"202 238 CURVE SMOOTH",
"202 357 OFFCURVE",
"269 440 OFFCURVE",
"357 440 CURVE SMOOTH",
"417 440 OFFCURVE",
"460 402 OFFCURVE",
"466 344 CURVE",
"438 212 LINE",
"406 154 OFFCURVE",
"355 116 OFFCURVE",
"302 116 CURVE SMOOTH"
);
}
);
width = 656;
},
{
anchors = (
{
name = bottom;
position = "{259, 0}";
},
{
name = center;
position = "{336, 272}";
},
{
name = top;
position = "{375, 545}";
},
{
name = topleft;
position = "{496, 545}";
},
{
name = topright;
position = "{671, 466}";
}
);
layerId = "15963509-F4CC-4A33-865A-02712DFE1B04";
paths = (
{
closed = 1;
nodes = (
"169 556 OFFCURVE",
"52 402 OFFCURVE",
"52 207 CURVE SMOOTH",
"52 63 OFFCURVE",
"150 -12 OFFCURVE",
"265 -12 CURVE SMOOTH",
"352 -12 OFFCURVE",
"415 31 OFFCURVE",
"468 97 CURVE",
"451 0 LINE",
"492 0 LINE",
"647 730 LINE",
"601 730 LINE",
"541 450 LINE",
"507 516 OFFCURVE",
"426 556 OFFCURVE",
"348 556 CURVE SMOOTH"
);
},
{
closed = 1;
nodes = (
"168 30 OFFCURVE",
"100 100 OFFCURVE",
"100 209 CURVE SMOOTH",
"100 376 OFFCURVE",
"193 514 OFFCURVE",
"346 514 CURVE SMOOTH",
"426 514 OFFCURVE",
"498 466 OFFCURVE",
"531 400 CURVE",
"480 158 LINE",
"423 82 OFFCURVE",
"362 30 OFFCURVE",
"268 30 CURVE SMOOTH"
);
}
);
width = 650;
}
);
leftMetricsKey = "=o";
unicode = 0064;
},
{
color = 6;
glyphname = eth;
lastChange = "2021-05-25 15:15:03 +0000";
layers = (
{
layerId = "1BFF0FF0-0E64-46D7-A9A4-916803583822";
paths = (
{
closed = 1;
nodes = (
"367 624 OFFCURVE",
"404 544 OFFCURVE",
"404 423 CURVE SMOOTH",
"404 309 OFFCURVE",
"396 150 OFFCURVE",
"302 150 CURVE SMOOTH",
"262 150 OFFCURVE",
"241 181 OFFCURVE",
"241 241 CURVE SMOOTH",
"241 290 OFFCURVE",
"261 345 OFFCURVE",
"333 345 CURVE SMOOTH",
"391 345 OFFCURVE",
"421 305 OFFCURVE",
"423 237 CURVE",
"504 353 LINE",
"457 435 OFFCURVE",
"383 489 OFFCURVE",
"296 489 CURVE SMOOTH",
"129 489 OFFCURVE",
"27 387 OFFCURVE",
"27 226 CURVE SMOOTH",
"27 84 OFFCURVE",
"127 -12 OFFCURVE",
"290 -12 CURVE SMOOTH",
"536 -12 OFFCURVE",
"619 183 OFFCURVE",
"619 380 CURVE SMOOTH",
"619 551 OFFCURVE",
"541 679 OFFCURVE",
"466 740 CURVE",
"242 740 LINE"
);
},
{
closed = 1;
nodes = (
"666 616 LINE",
"657 722 LINE",
"255 618 LINE",
"262 512 LINE"
);
}
);
width = 650;
},
{
layerId = "A3B76219-B495-4A65-93FB-16A8FAD49F3F";
paths = (
{
closed = 1;
nodes = (
"363 645 OFFCURVE",
"448 525 OFFCURVE",
"448 373 CURVE SMOOTH",
"448 266 OFFCURVE",
"406 112 OFFCURVE",
"302 112 CURVE SMOOTH",
"240 112 OFFCURVE",
"200 158 OFFCURVE",
"200 228 CURVE SMOOTH",
"200 306 OFFCURVE",
"237 357 OFFCURVE",
"328 357 CURVE SMOOTH",
"399 357 OFFCURVE",
"454 304 OFFCURVE",
"460 222 CURVE",
"495 359 LINE",
"457 444 OFFCURVE",
"399 476 OFFCURVE",
"304 476 CURVE SMOOTH",
"145 476 OFFCURVE",
"41 375 OFFCURVE",
"41 220 CURVE SMOOTH",
"41 79 OFFCURVE",
"140 -12 OFFCURVE",
"293 -12 CURVE SMOOTH",
"481 -12 OFFCURVE",
"608 140 OFFCURVE",
"608 376 CURVE SMOOTH",
"608 511 OFFCURVE",
"541 654 OFFCURVE",
"439 740 CURVE",
"252 740 LINE"
);
},
{
closed = 1;
nodes = (
"650 612 LINE",
"641 706 LINE",
"264 602 LINE",
"272 508 LINE"
);
}
);
width = 650;
},
{
layerId = "15963509-F4CC-4A33-865A-02712DFE1B04";
paths = (
{
closed = 1;
nodes = (
"467 651 OFFCURVE",
"546 544 OFFCURVE",
"546 382 CURVE SMOOTH",
"546 222 OFFCURVE",
"463 30 OFFCURVE",
"280 30 CURVE SMOOTH",
"184 30 OFFCURVE",
"112 102 OFFCURVE",
"112 213 CURVE SMOOTH",
"112 351 OFFCURVE",
"205 462 OFFCURVE",
"346 462 CURVE SMOOTH",
"476 462 OFFCURVE",
"548 359 OFFCURVE",
"528 231 CURVE",
"554 318 LINE",
"550 431 OFFCURVE",
"469 504 OFFCURVE",
"348 504 CURVE SMOOTH",
"174 504 OFFCURVE",
"64 385 OFFCURVE",
"64 211 CURVE SMOOTH",
"64 76 OFFCURVE",
"154 -12 OFFCURVE",
"278 -12 CURVE SMOOTH",
"487 -12 OFFCURVE",
"589 197 OFFCURVE",
"589 386 CURVE SMOOTH",
"589 543 OFFCURVE",
"518 657 OFFCURVE",
"377 729 CURVE",
"306 729 LINE"
);
},
{
closed = 1;
nodes = (
"590 674 LINE",
"579 710 LINE",
"296 593 LINE",
"308 557 LINE"
);
}
);
width = 650;
}
);
leftMetricsKey = o;
unicode = 00F0;
},
{
color = 3;
glyphname = dcroat;
lastChange = "2021-05-25 15:15:03 +0000";
layers = (
{
components = (
{
name = bar.alt;
transform = "{1.1, 0, 0, 1, 187, 285}";
}
);
layerId = "1BFF0FF0-0E64-46D7-A9A4-916803583822";
paths = (
{
closed = 1;
nodes = (
"419 522 OFFCURVE",
"373 545 OFFCURVE",
"311 545 CURVE SMOOTH",
"135 545 OFFCURVE",
"22 414 OFFCURVE",
"22 227 CURVE SMOOTH",
"22 81 OFFCURVE",
"104 -12 OFFCURVE",
"220 -12 CURVE SMOOTH",
"285 -12 OFFCURVE",
"312 11 OFFCURVE",
"357 46 CURVE",
"350 0 LINE",
"561 0 LINE",
"719 740 LINE",
"503 740 LINE",
"449 488 LINE"
);
},
{
closed = 1;
nodes = (
"253 163 OFFCURVE",
"238 206 OFFCURVE",
"238 244 CURVE SMOOTH",
"238 319 OFFCURVE",
"281 370 OFFCURVE",
"337 370 CURVE SMOOTH",
"377 370 OFFCURVE",
"405 345 OFFCURVE",
"410 305 CURVE",
"394 228 LINE",
"373 188 OFFCURVE",
"347 163 OFFCURVE",
"307 163 CURVE SMOOTH"
);
}
);
width = 650;
},
{
components = (
{
name = bar.alt;
transform = "{1.1, 0, 0, 1, 172, 278}";
}
);
layerId = "A3B76219-B495-4A65-93FB-16A8FAD49F3F";
paths = (
{
closed = 1;
nodes = (
"455 511 OFFCURVE",
"409 538 OFFCURVE",
"340 538 CURVE SMOOTH",
"155 538 OFFCURVE",
"34 412 OFFCURVE",
"34 218 CURVE SMOOTH",
"34 97 OFFCURVE",
"97 -12 OFFCURVE",
"250 -12 CURVE SMOOTH",
"314 -12 OFFCURVE",
"351 15 OFFCURVE",
"398 56 CURVE",
"389 0 LINE",
"539 0 LINE",
"697 740 LINE",
"542 740 LINE",
"485 475 LINE"
);
},
{
closed = 1;
nodes = (
"233 114 OFFCURVE",
"193 154 OFFCURVE",
"193 231 CURVE SMOOTH",
"193 339 OFFCURVE",
"253 412 OFFCURVE",
"344 412 CURVE SMOOTH",
"404 412 OFFCURVE",
"445 370 OFFCURVE",
"451 312 CURVE",
"429 212 LINE",
"397 154 OFFCURVE",
"349 114 OFFCURVE",
"296 114 CURVE SMOOTH"
);
}
);
width = 650;
},
{
components = (
{
name = bar.alt;
transform = "{1.1, 0, 0, 1, 188, 275}";
}
);
layerId = "15963509-F4CC-4A33-865A-02712DFE1B04";
paths = (
{
closed = 1;
nodes = (
"507 516 OFFCURVE",
"426 556 OFFCURVE",
"348 556 CURVE SMOOTH",
"169 556 OFFCURVE",
"52 402 OFFCURVE",
"52 207 CURVE SMOOTH",
"52 63 OFFCURVE",
"150 -12 OFFCURVE",
"265 -12 CURVE SMOOTH",
"352 -12 OFFCURVE",
"415 31 OFFCURVE",
"468 97 CURVE",
"451 0 LINE",
"492 0 LINE",
"647 730 LINE",
"601 730 LINE",
"541 450 LINE"
);
},
{
closed = 1;
nodes = (
"168 30 OFFCURVE",
"100 100 OFFCURVE",
"100 209 CURVE SMOOTH",
"100 376 OFFCURVE",
"193 514 OFFCURVE",
"346 514 CURVE SMOOTH",
"426 514 OFFCURVE",
"498 466 OFFCURVE",
"531 400 CURVE",
"480 158 LINE",
"423 82 OFFCURVE",
"362 30 OFFCURVE",
"268 30 CURVE SMOOTH"
);
}
);
width = 650;
}
);
unicode = 0111;
},
{
color = 6;
glyphname = e;
lastChange = "2021-05-25 15:15:03 +0000";
layers = (
{
anchors = (
{
name = bottom;
position = "{265, 0}";
},
{
name = ogonek;
position = "{378, 0}";
},
{
name = top;
position = "{355, 564}";
}
);
layerId = "1BFF0FF0-0E64-46D7-A9A4-916803583822";
leftMetricsKey = "=31";
rightMetricsKey = "=32";
paths = (
{
closed = 1;
nodes = (
"488 -12 OFFCURVE",
"569 79 OFFCURVE",
"599 198 CURVE",
"387 198 LINE",
"377 174 OFFCURVE",
"355 158 OFFCURVE",
"315 158 CURVE SMOOTH",
"274 158 OFFCURVE",
"247 194 OFFCURVE",
"247 242 CURVE SMOOTH",
"247 354 OFFCURVE",
"273 425 OFFCURVE",
"353 425 CURVE SMOOTH",
"395 425 OFFCURVE",
"421 398 OFFCURVE",
"418 364 CURVE",
"214 363 LINE",
"186 239 LINE",
"609 239 LINE",
"652 451 OFFCURVE",
"558 575 OFFCURVE",
"363 575 CURVE SMOOTH",
"150 575 OFFCURVE",
"31 413 OFFCURVE",
"31 245 CURVE SMOOTH",
"31 76 OFFCURVE",
"140 -12 OFFCURVE",
"301 -12 CURVE SMOOTH"
);
}
);
width = 650;
},
{
anchors = (
{
name = bottom;
position = "{260, 0}";
},
{
name = ogonek;
position = "{368, 0}";
},
{
name = top;
position = "{360, 556}";
}
);
layerId = "A3B76219-B495-4A65-93FB-16A8FAD49F3F";
leftMetricsKey = "=39";
rightMetricsKey = "=40";
paths = (
{
closed = 1;
nodes = (
"467 -12 OFFCURVE",
"562 67 OFFCURVE",
"592 194 CURVE",
"436 194 LINE",
"426 147 OFFCURVE",
"384 113 OFFCURVE",
"310 113 CURVE SMOOTH",
"239 113 OFFCURVE",
"198 169 OFFCURVE",
"198 243 CURVE SMOOTH",
"198 339 OFFCURVE",
"235 447 OFFCURVE",
"351 447 CURVE SMOOTH",
"419 447 OFFCURVE",
"452 412 OFFCURVE",
"449 361 CURVE",
"184 361 LINE",
"160 254 LINE",
"600 254 LINE",
"634 443 OFFCURVE",
"550 568 OFFCURVE",
"358 568 CURVE SMOOTH",
"151 568 OFFCURVE",
"40 422 OFFCURVE",
"40 235 CURVE SMOOTH",
"40 77 OFFCURVE",
"154 -12 OFFCURVE",
"299 -12 CURVE SMOOTH"
);
}
);
width = 650;
},
{
anchors = (
{
name = bottom;
position = "{264, 0}";
},
{
name = ogonek;
position = "{362, 0}";
},
{
name = top;
position = "{380, 544}";
}
);
layerId = "15963509-F4CC-4A33-865A-02712DFE1B04";
leftMetricsKey = "=67";
rightMetricsKey = "=67";
paths = (
{
closed = 1;
nodes = (
"424 -12 OFFCURVE",
"515 59 OFFCURVE",
"562 175 CURVE",
"516 175 LINE",
"480 85 OFFCURVE",
"403 30 OFFCURVE",
"293 30 CURVE SMOOTH",
"188 30 OFFCURVE",
"113 107 OFFCURVE",
"113 214 CURVE SMOOTH",
"113 379 OFFCURVE",
"197 514 OFFCURVE",
"366 514 CURVE SMOOTH",
"474 514 OFFCURVE",
"537 454 OFFCURVE",
"534 356 CURVE",
"125 358 LINE",
"116 315 LINE",
"576 315 LINE",
"603 467 OFFCURVE",
"508 556 OFFCURVE",
"369 556 CURVE SMOOTH",
"176 556 OFFCURVE",
"65 406 OFFCURVE",
"65 211 CURVE SMOOTH",
"65 86 OFFCURVE",
"156 -12 OFFCURVE",
"290 -12 CURVE SMOOTH"
);
}
);
width = 650;
},
{
anchors = (
{
name = bottom;
position = "{293, 0}";
},
{
name = ogonek;
position = "{366, 0}";
},
{
name = top;
position = "{365, 550}";
}
);
associatedMasterId = "15963509-F4CC-4A33-865A-02712DFE1B04";
background = {
paths = (
{
closed = 1;
nodes = (
"456 -12 OFFCURVE",
"550 59 OFFCURVE",
"573 175 CURVE",
"527 175 LINE",
"510 85 OFFCURVE",
"432 30 OFFCURVE",
"322 30 CURVE SMOOTH",
"188 30 OFFCURVE",
"107 122 OFFCURVE",
"107 273 CURVE SMOOTH",
"107 422 OFFCURVE",
"188 514 OFFCURVE",
"322 514 CURVE SMOOTH",
"438 514 OFFCURVE",
"509 455 OFFCURVE",
"515 356 CURVE",
"97 358 LINE",
"97 315 LINE",
"563 315 LINE",
"570 465 OFFCURVE",
"479 556 OFFCURVE",
"322 556 CURVE SMOOTH",
"159 556 OFFCURVE",
"60 449 OFFCURVE",
"60 273 CURVE SMOOTH",
"60 96 OFFCURVE",
"159 -12 OFFCURVE",
"322 -12 CURVE SMOOTH"
);
}
);
};
layerId = "BF06EA77-C700-4349-86FA-8B2DE7062A77";
leftMetricsKey = "=52";
rightMetricsKey = "=53";
name = "{400}";
paths = (
{
closed = 1;
nodes = (
"453 -12 OFFCURVE",
"539 66 OFFCURVE",
"578 187 CURVE",
"477 187 LINE",
"454 119 OFFCURVE",
"399 72 OFFCURVE",
"302 72 CURVE SMOOTH",
"214 72 OFFCURVE",
"154 133 OFFCURVE",
"154 229 CURVE SMOOTH",
"154 359 OFFCURVE",
"215 479 OFFCURVE",
"357 479 CURVE SMOOTH",
"443 479 OFFCURVE",
"490 432 OFFCURVE",
"490 362 CURVE",
"153 363 LINE",
"136 287 LINE",
"586 287 LINE",
"617 454 OFFCURVE",
"521 562 OFFCURVE",
"361 562 CURVE SMOOTH",
"169 562 OFFCURVE",
"51 415 OFFCURVE",
"51 224 CURVE SMOOTH",
"51 83 OFFCURVE",
"148 -12 OFFCURVE",
"297 -12 CURVE SMOOTH"
);
}
);
width = 650;
}
);
leftMetricsKey = "=o";
rightMetricsKey = "=o";
unicode = 0065;
},
{
color = 6;
glyphname = f;
lastChange = "2021-05-25 15:15:03 +0000";
layers = (
{
anchors = (
{
name = bottom;
position = "{301, 0}";
},
{
name = top;
position = "{474, 811}";
}
);
layerId = "1BFF0FF0-0E64-46D7-A9A4-916803583822";
paths = (
{
closed = 1;
nodes = (
"339 0 LINE",
"469 608 LINE SMOOTH",
"477 644 OFFCURVE",
"497 668 OFFCURVE",
"541 668 CURVE SMOOTH",
"685 668 LINE",
"722 840 LINE",
"546 840 LINE SMOOTH",
"378 840 OFFCURVE",
"289 777 OFFCURVE",
"257 628 CURVE SMOOTH",
"123 0 LINE"
);
},
{
closed = 1;
nodes = (
"562 391 LINE",
"599 563 LINE",
"133 563 LINE",
"96 391 LINE"
);
},
{
closed = 1;
nodes = (
"533 0 LINE",
"570 172 LINE",
"35 172 LINE",
"-2 0 LINE"
);
}
);
width = 650;
},
{
anchors = (
{
name = bottom;
position = "{295, 0}";
},
{
name = top;
position = "{467, 811}";
}
);
layerId = "A3B76219-B495-4A65-93FB-16A8FAD49F3F";
paths = (
{
closed = 1;
nodes = (
"323 0 LINE",
"453 611 LINE SMOOTH",
"467 675 OFFCURVE",
"496 684 OFFCURVE",
"553 684 CURVE SMOOTH",
"684 684 LINE",
"711 810 LINE",
"538 810 LINE SMOOTH",
"405 810 OFFCURVE",
"328 748 OFFCURVE",
"303 631 CURVE SMOOTH",
"169 0 LINE"
);
},
{
closed = 1;
nodes = (
"550 430 LINE",
"577 556 LINE",
"176 556 LINE",
"149 430 LINE"
);
},
{
closed = 1;
nodes = (
"527 0 LINE",
"554 126 LINE",
"36 126 LINE",
"9 0 LINE"
);
}
);
width = 650;
},
{
anchors = (
{
name = bottom;
position = "{258, 0}";
},
{
name = top;
position = "{431, 811}";
}
);
layerId = "15963509-F4CC-4A33-865A-02712DFE1B04";
paths = (
{
closed = 1;
nodes = (
"269 0 LINE",
"401 619 LINE SMOOTH",
"417 694 OFFCURVE",
"468 717 OFFCURVE",
"512 717 CURVE SMOOTH",
"669 717 LINE",
"677 755 LINE",
"511 755 LINE SMOOTH",
"437 755 OFFCURVE",
"374 710 OFFCURVE",
"355 622 CURVE SMOOTH",
"223 0 LINE"
);
},
{
closed = 1;
nodes = (
"587 506 LINE",
"595 544 LINE",
"189 544 LINE",
"181 506 LINE"
);
},
{
closed = 1;
nodes = (
"506 0 LINE",
"514 38 LINE",
"40 38 LINE",
"32 0 LINE"
);
}
);
width = 650;
}
);
unicode = 0066;
},
{
color = 6;
glyphname = g;
lastChange = "2021-05-25 15:15:03 +0000";
layers = (
{
anchors = (
{
name = bottom;
position = "{285, -1}";
},
{
name = top;
position = "{356, 557}";
}
);
layerId = "1BFF0FF0-0E64-46D7-A9A4-916803583822";
paths = (
{
closed = 1;
nodes = (
"424 557 OFFCURVE",
"368 575 OFFCURVE",
"305 575 CURVE SMOOTH",
"139 575 OFFCURVE",
"24 435 OFFCURVE",
"24 273 CURVE SMOOTH",
"24 136 OFFCURVE",
"100 45 OFFCURVE",
"233 45 CURVE SMOOTH",
"286 45 OFFCURVE",
"326 60 OFFCURVE",
"360 98 CURVE",
"348 44 LINE SMOOTH",
"335 -16 OFFCURVE",
"302 -31 OFFCURVE",
"256 -31 CURVE SMOOTH",
"216 -31 OFFCURVE",
"190 -14 OFFCURVE",
"189 13 CURVE",
"-35 13 LINE",
"-33 -122 OFFCURVE",
"79 -190 OFFCURVE",
"242 -190 CURVE SMOOTH",
"419 -190 OFFCURVE",
"528 -122 OFFCURVE",
"563 42 CURVE SMOOTH",
"674 563 LINE",
"464 563 LINE",
"452 523 LINE"
);
},
{
closed = 1;
nodes = (
"265 201 OFFCURVE",
"242 233 OFFCURVE",
"242 283 CURVE SMOOTH",
"242 362 OFFCURVE",
"283 420 OFFCURVE",
"347 420 CURVE SMOOTH",
"383 420 OFFCURVE",
"410 395 OFFCURVE",
"415 356 CURVE",
"395 265 LINE",
"375 226 OFFCURVE",
"349 201 OFFCURVE",
"310 201 CURVE SMOOTH"
);
}
);
width = 650;
},
{
anchors = (
{
name = bottom;
position = "{262, -1}";
},
{
name = top;
position = "{364, 557}";
}
);
layerId = "A3B76219-B495-4A65-93FB-16A8FAD49F3F";
paths = (
{
closed = 1;
nodes = (
"462 540 OFFCURVE",
"401 567 OFFCURVE",
"343 567 CURVE SMOOTH",
"157 567 OFFCURVE",
"46 442 OFFCURVE",
"46 250 CURVE SMOOTH",
"46 129 OFFCURVE",
"126 22 OFFCURVE",
"268 22 CURVE SMOOTH",
"322 22 OFFCURVE",
"363 41 OFFCURVE",
"399 81 CURVE",
"389 33 LINE SMOOTH",
"376 -29 OFFCURVE",
"344 -64 OFFCURVE",
"259 -64 CURVE SMOOTH",
"201 -64 OFFCURVE",
"164 -51 OFFCURVE",
"161 -12 CURVE",
"-1 -12 LINE",
"1 -137 OFFCURVE",
"103 -190 OFFCURVE",
"254 -190 CURVE SMOOTH",
"404 -190 OFFCURVE",
"513 -122 OFFCURVE",
"546 34 CURVE SMOOTH",
"656 556 LINE",
"506 556 LINE",
"491 498 LINE"
);
},
{
closed = 1;
nodes = (
"242 142 OFFCURVE",
"204 190 OFFCURVE",
"204 266 CURVE SMOOTH",
"204 361 OFFCURVE",
"254 447 OFFCURVE",
"346 447 CURVE SMOOTH",
"411 447 OFFCURVE",
"451 409 OFFCURVE",
"456 350 CURVE",
"433 239 LINE",
"402 181 OFFCURVE",
"364 142 OFFCURVE",
"306 142 CURVE SMOOTH"
);
}
);
width = 650;
},
{
anchors = (
{
name = bottom;
position = "{269, -1}";
},
{
name = top;
position = "{368, 557}";
}
);
layerId = "15963509-F4CC-4A33-865A-02712DFE1B04";
paths = (
{
closed = 1;
nodes = (
"514 511 OFFCURVE",
"444 556 OFFCURVE",
"351 556 CURVE SMOOTH",
"183 556 OFFCURVE",
"65 430 OFFCURVE",
"65 250 CURVE SMOOTH",
"65 126 OFFCURVE",
"141 39 OFFCURVE",
"274 39 CURVE SMOOTH",
"355 39 OFFCURVE",
"427 78 OFFCURVE",
"478 145 CURVE",
"456 37 LINE SMOOTH",
"432 -83 OFFCURVE",
"359 -148 OFFCURVE",
"244 -148 CURVE SMOOTH",
"131 -148 OFFCURVE",
"68 -98 OFFCURVE",
"67 -12 CURVE",
"20 -12 LINE",
"20 -130 OFFCURVE",
"110 -190 OFFCURVE",
"242 -190 CURVE SMOOTH",
"386 -190 OFFCURVE",
"471 -107 OFFCURVE",
"502 37 CURVE SMOOTH",
"610 544 LINE",
"569 544 LINE",
"544 443 LINE"
);
},
{
closed = 1;
nodes = (
"173 77 OFFCURVE",
"111 148 OFFCURVE",
"111 252 CURVE SMOOTH",
"111 409 OFFCURVE",
"209 518 OFFCURVE",
"349 518 CURVE SMOOTH",
"439 518 OFFCURVE",
"512 469 OFFCURVE",
"530 386 CURVE",
"498 231 LINE",
"449 138 OFFCURVE",
"371 77 OFFCURVE",
"276 77 CURVE SMOOTH"
);
}
);
width = 650;
}
);
leftMetricsKey = "=o";
unicode = 0067;
},
{
color = 6;
glyphname = h;
lastChange = "2021-05-25 15:15:03 +0000";
layers = (
{
anchors = (
{
name = bottom;
position = "{324, 102}";
},
{
name = center;
position = "{324, 180}";
},
{
name = top;
position = "{231, 743}";
},
{
name = topright;
position = "{436, 564}";
}
);
layerId = "1BFF0FF0-0E64-46D7-A9A4-916803583822";
paths = (
{
closed = 1;
nodes = (
"547 0 LINE",
"624 361 LINE SMOOTH",
"652 494 OFFCURVE",
"584 575 OFFCURVE",
"464 575 CURVE SMOOTH",
"398 575 OFFCURVE",
"330 542 OFFCURVE",
"255 463 CURVE",
"236 308 LINE",
"291 365 OFFCURVE",
"319 392 OFFCURVE",
"363 392 CURVE SMOOTH",
"394 392 OFFCURVE",
"409 368 OFFCURVE",
"402 333 CURVE SMOOTH",
"331 0 LINE"
);
},
{
closed = 1;
nodes = (
"194 0 LINE",
"351 740 LINE",
"135 740 LINE",
"-22 0 LINE"
);
}
);
width = 650;
},
{
anchors = (
{
name = bottom;
position = "{265, 0}";
},
{
name = center;
position = "{324, 278}";
},
{
name = top;
position = "{227, 740}";
},
{
name = topright;
position = "{416, 557}";
}
);
layerId = "A3B76219-B495-4A65-93FB-16A8FAD49F3F";
paths = (
{
closed = 1;
nodes = (
"531 0 LINE",
"606 352 LINE SMOOTH",
"634 482 OFFCURVE",
"558 568 OFFCURVE",
"433 568 CURVE SMOOTH",
"355 568 OFFCURVE",
"288 534 OFFCURVE",
"220 447 CURVE",
"214 316 LINE",
"283 404 OFFCURVE",
"332 438 OFFCURVE",
"388 438 CURVE SMOOTH",
"436 438 OFFCURVE",
"460 400 OFFCURVE",
"448 342 CURVE SMOOTH",
"375 0 LINE"
);
},
{
closed = 1;
nodes = (
"160 0 LINE",
"317 740 LINE",
"161 740 LINE",
"4 0 LINE"
);
}
);
width = 650;
},
{
anchors = (
{
name = bottom;
position = "{260, 0}";
},
{
name = center;
position = "{318, 272}";
},
{
name = top;
position = "{211, 699}";
},
{
name = topright;
position = "{263, 545}";
}
);
layerId = "15963509-F4CC-4A33-865A-02712DFE1B04";
paths = (
{
closed = 1;
nodes = (
"500 0 LINE",
"574 348 LINE SMOOTH",
"601 473 OFFCURVE",
"532 556 OFFCURVE",
"410 556 CURVE SMOOTH",
"300 556 OFFCURVE",
"201 483 OFFCURVE",
"142 363 CURVE",
"134 270 LINE",
"190 430 OFFCURVE",
"296 514 OFFCURVE",
"404 514 CURVE SMOOTH",
"499 514 OFFCURVE",
"549 448 OFFCURVE",
"528 349 CURVE SMOOTH",
"454 0 LINE"
);
},
{
closed = 1;
nodes = (
"86 0 LINE",
"241 730 LINE",
"195 730 LINE",
"40 0 LINE"
);
}
);
width = 650;
}
);
unicode = 0068;
},
{
color = 3;
glyphname = hbar;
lastChange = "2021-05-25 15:15:03 +0000";
layers = (
{
anchors = (
{
name = bottom;
position = "{346, 103}";
},
{
name = center;
position = "{346, 179}";
},
{
name = top;
position = "{345, 742}";
},
{
name = topright;
position = "{458, 563}";
}
);
components = (
{
name = bar.alt;
transform = "{1.1, 0, 0, 1, -119, 285}";
}
);
layerId = "1BFF0FF0-0E64-46D7-A9A4-916803583822";
paths = (
{
closed = 1;
nodes = (
"547 0 LINE",
"616 321 LINE SMOOTH",
"645 455 OFFCURVE",
"576 535 OFFCURVE",
"456 535 CURVE SMOOTH",
"390 535 OFFCURVE",
"322 502 OFFCURVE",
"247 423 CURVE",
"228 268 LINE",
"283 325 OFFCURVE",
"311 352 OFFCURVE",
"355 352 CURVE SMOOTH",
"386 352 OFFCURVE",
"402 328 OFFCURVE",
"394 293 CURVE SMOOTH",
"331 0 LINE"
);
},
{
closed = 1;
nodes = (
"194 0 LINE",
"351 740 LINE",
"135 740 LINE",
"-22 0 LINE"
);
}
);
width = 650;
},
{
anchors = (
{
name = bottom;
position = "{336, 0}";
},
{
name = center;
position = "{336, 278}";
},
{
name = top;
position = "{351, 740}";
},
{
name = topright;
position = "{369, 556}";
}
);
components = (
{
name = bar.alt;
transform = "{1.1, 0, 0, 1, -109, 278}";
}
);
layerId = "A3B76219-B495-4A65-93FB-16A8FAD49F3F";
paths = (
{
closed = 1;
nodes = (
"547 0 LINE",
"616 322 LINE SMOOTH",
"644 452 OFFCURVE",
"568 538 OFFCURVE",
"443 538 CURVE SMOOTH",
"365 538 OFFCURVE",
"298 504 OFFCURVE",
"230 417 CURVE",
"224 286 LINE",
"293 374 OFFCURVE",
"342 408 OFFCURVE",
"398 408 CURVE SMOOTH",
"446 408 OFFCURVE",
"470 370 OFFCURVE",
"458 312 CURVE SMOOTH",
"391 0 LINE"
);
},
{
closed = 1;
nodes = (
"176 0 LINE",
"333 740 LINE",
"177 740 LINE",
"20 0 LINE"
);
}
);
width = 650;
},
{
anchors = (
{
name = bottom;
position = "{316, 0}";
},
{
name = center;
position = "{316, 272}";
},
{
name = top;
position = "{364, 698}";
},
{
name = topright;
position = "{203, 544}";
}
);
components = (
{
name = bar.alt;
transform = "{1.1, 0, 0, 1, -143, 275}";
}
);
layerId = "15963509-F4CC-4A33-865A-02712DFE1B04";
paths = (
{
closed = 1;
nodes = (
"498 0 LINE",
"572 348 LINE SMOOTH",
"599 473 OFFCURVE",
"530 556 OFFCURVE",
"408 556 CURVE SMOOTH",
"298 556 OFFCURVE",
"199 483 OFFCURVE",
"140 363 CURVE",
"132 270 LINE",
"188 430 OFFCURVE",
"294 514 OFFCURVE",
"402 514 CURVE SMOOTH",
"497 514 OFFCURVE",
"547 448 OFFCURVE",
"526 349 CURVE SMOOTH",
"452 0 LINE"
);
},
{
closed = 1;
nodes = (
"84 0 LINE",
"239 730 LINE",
"193 730 LINE",
"38 0 LINE"
);
}
);
width = 650;
}
);
unicode = 0127;
},
{
color = 6;
glyphname = idotless;
lastChange = "2021-05-25 15:15:03 +0000";
layers = (
{
anchors = (
{
name = bottom;
position = "{266, 0}";
},
{
name = ogonek;
position = "{373, 0}";
},
{
name = top;
position = "{405, 564}";
}
);
layerId = "1BFF0FF0-0E64-46D7-A9A4-916803583822";
paths = (
{
closed = 1;
nodes = (
"393 0 LINE",
"513 563 LINE",
"297 563 LINE",
"177 0 LINE"
);
},
{
closed = 1;
nodes = (
"545 0 LINE",
"582 172 LINE",
"34 172 LINE",
"-3 0 LINE"
);
},
{
closed = 1;
nodes = (
"368 391 LINE",
"405 563 LINE",
"187 563 LINE",
"150 391 LINE"
);
}
);
width = 650;
},
{
anchors = (
{
name = bottom;
position = "{266, 0}";
},
{
name = ogonek;
position = "{343, 0}";
},
{
name = top;
position = "{383, 557}";
}
);
layerId = "A3B76219-B495-4A65-93FB-16A8FAD49F3F";
paths = (
{
closed = 1;
nodes = (
"344 0 LINE",
"462 556 LINE",
"306 556 LINE",
"188 0 LINE"
);
},
{
closed = 1;
nodes = (
"526 0 LINE",
"553 126 LINE",
"35 126 LINE",
"8 0 LINE"
);
},
{
closed = 1;
nodes = (
"357 430 LINE",
"384 556 LINE",
"196 556 LINE",
"169 430 LINE"
);
}
);
width = 650;
},
{
anchors = (
{
name = bottom;
position = "{266, 0}";
},
{
name = ogonek;
position = "{300, 0}";
},
{
name = top;
position = "{392, 545}";
}
);
layerId = "15963509-F4CC-4A33-865A-02712DFE1B04";
paths = (
{
closed = 1;
nodes = (
"300 0 LINE",
"416 544 LINE",
"370 544 LINE",
"254 0 LINE"
);
},
{
closed = 1;
nodes = (
"497 0 LINE",
"505 38 LINE",
"37 38 LINE",
"29 0 LINE"
);
},
{
closed = 1;
nodes = (
"385 506 LINE",
"393 544 LINE",
"220 544 LINE",
"212 506 LINE"
);
}
);
width = 650;
}
);
unicode = 0131;
},
{
color = 6;
glyphname = jdotless;
lastChange = "2021-05-25 15:15:03 +0000";
layers = (
{
anchors = (
{
name = bottom;
position = "{263, 0}";
},
{
name = top;
position = "{503, 564}";
}
);
layerId = "1BFF0FF0-0E64-46D7-A9A4-916803583822";
paths = (
{
closed = 1;
nodes = (
"397 563 LINE",
"285 36 LINE SMOOTH",
"280 11 OFFCURVE",
"269 -6 OFFCURVE",
"236 -6 CURVE SMOOTH",
"16 -6 LINE",
"-21 -178 LINE",
"251 -178 LINE SMOOTH",
"391 -178 OFFCURVE",
"472 -102 OFFCURVE",
"497 16 CURVE SMOOTH",
"613 563 LINE"
);
},
{
closed = 1;
nodes = (
"388 391 LINE",
"425 563 LINE",
"287 563 LINE",
"250 391 LINE"
);
}
);
width = 650;
},
{
anchors = (
{
name = bottom;
position = "{265, 0}";
},
{
name = top;
position = "{463, 557}";
}
);
layerId = "A3B76219-B495-4A65-93FB-16A8FAD49F3F";
paths = (
{
closed = 1;
nodes = (
"386 556 LINE",
"273 22 LINE SMOOTH",
"260 -41 OFFCURVE",
"226 -52 OFFCURVE",
"165 -52 CURVE SMOOTH",
"-9 -52 LINE",
"-36 -178 LINE",
"218 -178 LINE SMOOTH",
"341 -178 OFFCURVE",
"402 -105 OFFCURVE",
"425 2 CURVE SMOOTH",
"542 556 LINE"
);
},
{
closed = 1;
nodes = (
"437 430 LINE",
"464 556 LINE",
"276 556 LINE",
"249 430 LINE"
);
}
);
width = 650;
},
{
anchors = (
{
name = bottom;
position = "{267, 0}";
},
{
name = top;
position = "{503, 545}";
}
);
layerId = "15963509-F4CC-4A33-865A-02712DFE1B04";
paths = (
{
closed = 1;
nodes = (
"480 544 LINE",
"355 -42 LINE SMOOTH",
"339 -115 OFFCURVE",
"300 -140 OFFCURVE",
"244 -140 CURVE SMOOTH",
"26 -140 LINE",
"18 -178 LINE",
"244 -178 LINE SMOOTH",
"346 -178 OFFCURVE",
"384 -124 OFFCURVE",
"402 -40 CURVE SMOOTH",
"526 544 LINE"
);
},
{
closed = 1;
nodes = (
"495 506 LINE",
"503 544 LINE",
"330 544 LINE",
"322 506 LINE"
);
}
);
width = 650;
}
);
unicode = 0237;
},
{
color = 6;
glyphname = k;
lastChange = "2021-05-25 15:15:03 +0000";
layers = (
{
anchors = (
{
name = bottom;
position = "{276, 0}";
},
{
name = center;
position = "{316, 281}";
},
{
name = top;
position = "{416, 751}";
},
{
name = topright;
position = "{608, 564}";
}
);
layerId = "1BFF0FF0-0E64-46D7-A9A4-916803583822";
paths = (
{
closed = 1;
nodes = (
"196 0 LINE",
"238.681 201.174 LINE",
"690 563 LINE",
"418 563 LINE",
"396 544 LINE",
"260 405 LINE",
"321 587 LINE",
"353 740 LINE",
"137 740 LINE",
"-20 0 LINE"
);
},
{
closed = 1;
nodes = (
"559 0 LINE",
"444 411 LINE",
"254 322 LINE",
"337 0 LINE"
);
}
);
width = 650;
},
{
anchors = (
{
name = bottom;
position = "{255, 0}";
},
{
name = center;
position = "{318, 278}";
},
{
name = top;
position = "{415, 733}";
},
{
name = topright;
position = "{562, 557}";
}
);
layerId = "A3B76219-B495-4A65-93FB-16A8FAD49F3F";
paths = (
{
closed = 1;
nodes = (
"140 0 LINE",
"177.193 175.304 LINE",
"640 556 LINE",
"433 556 LINE",
"325 464 LINE",
"202 347 LINE",
"248 508 LINE",
"297 740 LINE",
"141 740 LINE",
"-16 0 LINE"
);
},
{
closed = 1;
nodes = (
"522 0 LINE",
"387 376 LINE",
"241 320 LINE",
"350 0 LINE"
);
}
);
width = 650;
},
{
anchors = (
{
name = bottom;
position = "{256, 0}";
},
{
name = center;
position = "{95, 272}";
},
{
name = top;
position = "{186, 699}";
},
{
name = topright;
position = "{246, 545}";
}
);
layerId = "15963509-F4CC-4A33-865A-02712DFE1B04";
paths = (
{
closed = 1;
nodes = (
"80 0 LINE",
"127.468 223.559 LINE",
"584 544 LINE",
"508 544 LINE",
"253 364 LINE",
"140 286 LINE",
"169 419 LINE",
"235 730 LINE",
"189 730 LINE",
"34 0 LINE"
);
},
{
closed = 1;
nodes = (
"475 0 LINE",
"329 386 LINE",
"293 353 LINE",
"426 0 LINE"
);
}
);
width = 650;
}
);
unicode = 006B;
},
{
color = 6;
glyphname = kgreenlandic;
lastChange = "2021-05-25 15:15:03 +0000";
layers = (
{
layerId = "1BFF0FF0-0E64-46D7-A9A4-916803583822";
paths = (
{
closed = 1;
nodes = (
"684 563 LINE",
"427 563 LINE",
"180 313 LINE",
"155 93 LINE"
);
},
{
closed = 1;
nodes = (
"548 0 LINE",
"455 417 LINE",
"263 300 LINE",
"325 0 LINE"
);
},
{
closed = 1;
nodes = (
"196 0 LINE",
"301 491 LINE",
"311 564 LINE",
"100 564 LINE",
"-20 0 LINE"
);
}
);
width = 650;
},
{
layerId = "A3B76219-B495-4A65-93FB-16A8FAD49F3F";
paths = (
{
closed = 1;
nodes = (
"641 556 LINE",
"439 556 LINE",
"154 289 LINE",
"112 97 LINE"
);
},
{
closed = 1;
nodes = (
"532 0 LINE",
"384 376 LINE",
"243 320 LINE",
"365 0 LINE"
);
},
{
closed = 1;
nodes = (
"140 0 LINE",
"237 456 LINE",
"253 556 LINE",
"102 556 LINE",
"-16 0 LINE"
);
}
);
width = 650;
},
{
layerId = "15963509-F4CC-4A33-865A-02712DFE1B04";
paths = (
{
closed = 1;
nodes = (
"555 544 LINE",
"484 544 LINE",
"111 267 LINE",
"102 212 LINE"
);
},
{
closed = 1;
nodes = (
"469 0 LINE",
"303 386 LINE",
"268 353 LINE",
"418 0 LINE"
);
},
{
closed = 1;
nodes = (
"80 0 LINE",
"164 394 LINE",
"191 544 LINE",
"150 544 LINE",
"34 0 LINE"
);
}
);
width = 650;
}
);
unicode = 0138;
},
{
color = 6;
glyphname = l;
lastChange = "2021-05-25 15:15:03 +0000";
layers = (
{
anchors = (
{
name = bottom;
position = "{265, 0}";
},
{
name = center;
position = "{325, 281}";
},
{
name = top;
position = "{425, 751}";
},
{
name = topright;
position = "{589, 485}";
}
);
layerId = "1BFF0FF0-0E64-46D7-A9A4-916803583822";
paths = (
{
closed = 1;
nodes = (
"373 0 LINE",
"530 740 LINE",
"314 740 LINE",
"157 0 LINE"
);
},
{
closed = 1;
nodes = (
"545 0 LINE",
"582 172 LINE",
"24 172 LINE",
"-13 0 LINE"
);
},
{
closed = 1;
nodes = (
"386 568 LINE",
"422 740 LINE",
"204 740 LINE",
"168 568 LINE"
);
}
);
width = 650;
},
{
anchors = (
{
name = bottom;
position = "{266, 0}";
},
{
name = center;
position = "{325, 278}";
},
{
name = top;
position = "{422, 733}";
},
{
name = topright;
position = "{541, 478}";
}
);
layerId = "A3B76219-B495-4A65-93FB-16A8FAD49F3F";
paths = (
{
closed = 1;
nodes = (
"344 0 LINE",
"501 740 LINE",
"345 740 LINE",
"188 0 LINE"
);
},
{
closed = 1;
nodes = (
"526 0 LINE",
"553 126 LINE",
"35 126 LINE",
"8 0 LINE"
);
},
{
closed = 1;
nodes = (
"396 614 LINE",
"423 740 LINE",
"235 740 LINE",
"208 614 LINE"
);
}
);
width = 650;
},
{
anchors = (
{
name = bottom;
position = "{267, 0}";
},
{
name = center;
position = "{325, 272}";
},
{
name = top;
position = "{416, 699}";
},
{
name = topright;
position = "{469, 466}";
}
);
layerId = "15963509-F4CC-4A33-865A-02712DFE1B04";
paths = (
{
closed = 1;
nodes = (
"290 0 LINE",
"445 730 LINE",
"399 730 LINE",
"244 0 LINE"
);
},
{
closed = 1;
nodes = (
"517 0 LINE",
"525 38 LINE",
"27 38 LINE",
"19 0 LINE"
);
},
{
closed = 1;
nodes = (
"414 692 LINE",
"422 730 LINE",
"249 730 LINE",
"241 692 LINE"
);
}
);
width = 650;
}
);
unicode = 006C;
},
{
color = 3;
glyphname = lslash;
lastChange = "2021-05-25 15:15:03 +0000";
layers = (
{
components = (
{
name = l;
}
);
layerId = "1BFF0FF0-0E64-46D7-A9A4-916803583822";
paths = (
{
closed = 1;
nodes = (
"556 397 LINE",
"592 568 LINE",
"149 418 LINE",
"113 248 LINE"
);
}
);
width = 650;
},
{
components = (
{
name = l;
}
);
layerId = "A3B76219-B495-4A65-93FB-16A8FAD49F3F";
paths = (
{
closed = 1;
nodes = (
"529 405 LINE",
"557 537 LINE",
"172 407 LINE",
"144 275 LINE"
);
}
);
width = 650;
},
{
components = (
{
name = l;
}
);
layerId = "15963509-F4CC-4A33-865A-02712DFE1B04";
paths = (
{
closed = 1;
nodes = (
"485 438 LINE",
"494 480 LINE",
"217 386 LINE",
"208 344 LINE"
);
}
);
width = 650;
}
);
unicode = 0142;
},
{
color = 6;
glyphname = m;
lastChange = "2021-05-25 15:15:03 +0000";
layers = (
{
anchors = (
{
name = bottom;
position = "{264, 0}";
},
{
name = top;
position = "{383, 557}";
}
);
layerId = "1BFF0FF0-0E64-46D7-A9A4-916803583822";
paths = (
{
closed = 1;
nodes = (
"557 0 LINE",
"645 414 LINE SMOOTH",
"668 521 OFFCURVE",
"621 575 OFFCURVE",
"549 575 CURVE SMOOTH",
"462 575 OFFCURVE",
"404 496 OFFCURVE",
"392 378 CURVE",
"381 277 LINE",
"417 369 OFFCURVE",
"435 402 OFFCURVE",
"460 402 CURVE SMOOTH",
"475 402 OFFCURVE",
"484 391 OFFCURVE",
"479 366 CURVE SMOOTH",
"401 0 LINE"
);
},
{
closed = 1;
nodes = (
"128 0 LINE",
"227 465 LINE",
"242 563 LINE",
"92 563 LINE",
"-28 0 LINE"
);
},
{
closed = 1;
nodes = (
"343 0 LINE",
"432 416 LINE SMOOTH",
"452 510 OFFCURVE",
"410 575 OFFCURVE",
"344 575 CURVE SMOOTH",
"277 575 OFFCURVE",
"206 500 OFFCURVE",
"195 385 CURVE",
"170 277 LINE",
"206 371 OFFCURVE",
"219 402 OFFCURVE",
"246 402 CURVE SMOOTH",
"260 402 OFFCURVE",
"270 391 OFFCURVE",
"265 366 CURVE SMOOTH",
"187 0 LINE"
);
}
);
width = 650;
},
{
anchors = (
{
name = bottom;
position = "{266, 0}";
},
{
name = top;
position = "{384, 555}";
}
);
layerId = "A3B76219-B495-4A65-93FB-16A8FAD49F3F";
paths = (
{
closed = 1;
nodes = (
"548 0 LINE",
"635 409 LINE SMOOTH",
"659 523 OFFCURVE",
"612 568 OFFCURVE",
"547 568 CURVE SMOOTH",
"462 568 OFFCURVE",
"397 492 OFFCURVE",
"380 371 CURVE",
"374 296 LINE",
"412 404 OFFCURVE",
"441 442 OFFCURVE",
"470 442 CURVE SMOOTH",
"492 442 OFFCURVE",
"497 422 OFFCURVE",
"491 392 CURVE SMOOTH",
"408 0 LINE"
);
},
{
closed = 1;
nodes = (
"123 0 LINE",
"219 453 LINE",
"238 556 LINE",
"102 556 LINE",
"-16 0 LINE"
);
},
{
closed = 1;
nodes = (
"335 0 LINE",
"422 411 LINE SMOOTH",
"443 511 OFFCURVE",
"405 568 OFFCURVE",
"339 568 CURVE SMOOTH",
"270 568 OFFCURVE",
"197 493 OFFCURVE",
"180 377 CURVE",
"162 296 LINE",
"197 394 OFFCURVE",
"222 442 OFFCURVE",
"257 442 CURVE SMOOTH",
"277 442 OFFCURVE",
"286 426 OFFCURVE",
"279 392 CURVE SMOOTH",
"196 0 LINE"
);
}
);
width = 650;
},
{
anchors = (
{
name = bottom;
position = "{269, 0}";
},
{
name = top;
position = "{385, 545}";
}
);
layerId = "15963509-F4CC-4A33-865A-02712DFE1B04";
paths = (
{
closed = 1;
nodes = (
"535 0 LINE",
"622 410 LINE SMOOTH",
"642 502 OFFCURVE",
"604 556 OFFCURVE",
"533 556 CURVE SMOOTH",
"458 556 OFFCURVE",
"388 492 OFFCURVE",
"347 372 CURVE",
"335 278 LINE",
"383 432 OFFCURVE",
"455 514 OFFCURVE",
"523 514 CURVE SMOOTH",
"570 514 OFFCURVE",
"591 478 OFFCURVE",
"577 411 CURVE SMOOTH",
"489 0 LINE"
);
},
{
closed = 1;
nodes = (
"45 0 LINE",
"137 433 LINE",
"156 544 LINE",
"115 544 LINE",
"-1 0 LINE"
);
},
{
closed = 1;
nodes = (
"290 0 LINE",
"377 410 LINE SMOOTH",
"397 502 OFFCURVE",
"359 556 OFFCURVE",
"288 556 CURVE SMOOTH",
"214 556 OFFCURVE",
"143 492 OFFCURVE",
"102 372 CURVE",
"87 278 LINE",
"134 432 OFFCURVE",
"211 514 OFFCURVE",
"278 514 CURVE SMOOTH",
"325 514 OFFCURVE",
"346 478 OFFCURVE",
"332 411 CURVE SMOOTH",
"244 0 LINE"
);
}
);
width = 650;
}
);
leftMetricsKey = "=n";
rightMetricsKey = "=n";
unicode = 006D;
},
{
color = 6;
glyphname = n;
lastChange = "2021-05-25 15:15:03 +0000";
layers = (
{
anchors = (
{
name = bottom;
position = "{276, 0}";
},
{
name = top;
position = "{389, 564}";
}
);
layerId = "1BFF0FF0-0E64-46D7-A9A4-916803583822";
paths = (
{
closed = 1;
nodes = (
"551 0 LINE",
"628 361 LINE SMOOTH",
"656 494 OFFCURVE",
"588 575 OFFCURVE",
"468 575 CURVE SMOOTH",
"402 575 OFFCURVE",
"334 542 OFFCURVE",
"259 463 CURVE",
"240 308 LINE",
"295 365 OFFCURVE",
"323 392 OFFCURVE",
"367 392 CURVE SMOOTH",
"398 392 OFFCURVE",
"413 368 OFFCURVE",
"406 333 CURVE SMOOTH",
"335 0 LINE"
);
},
{
closed = 1;
nodes = (
"198 0 LINE",
"302 490 LINE",
"313 563 LINE",
"102 563 LINE",
"-18 0 LINE"
);
}
);
width = 650;
},
{
anchors = (
{
name = bottom;
position = "{272, 0}";
},
{
name = top;
position = "{389, 557}";
}
);
layerId = "A3B76219-B495-4A65-93FB-16A8FAD49F3F";
paths = (
{
closed = 1;
nodes = (
"531 0 LINE",
"606 352 LINE SMOOTH",
"634 482 OFFCURVE",
"555 568 OFFCURVE",
"438 568 CURVE SMOOTH",
"352 568 OFFCURVE",
"288 534 OFFCURVE",
"220 447 CURVE",
"214 316 LINE",
"283 404 OFFCURVE",
"332 438 OFFCURVE",
"388 438 CURVE SMOOTH",
"436 438 OFFCURVE",
"460 400 OFFCURVE",
"448 342 CURVE SMOOTH",
"375 0 LINE"
);
},
{
closed = 1;
nodes = (
"160 0 LINE",
"257 456 LINE",
"273 556 LINE",
"122 556 LINE",
"4 0 LINE"
);
}
);
width = 650;
},
{
anchors = (
{
name = bottom;
position = "{274, 0}";
},
{
name = top;
position = "{385, 545}";
}
);
layerId = "15963509-F4CC-4A33-865A-02712DFE1B04";
paths = (
{
closed = 1;
nodes = (
"499 0 LINE",
"573 348 LINE SMOOTH",
"600 473 OFFCURVE",
"531 556 OFFCURVE",
"409 556 CURVE SMOOTH",
"299 556 OFFCURVE",
"200 483 OFFCURVE",
"141 363 CURVE",
"133 270 LINE",
"189 430 OFFCURVE",
"295 514 OFFCURVE",
"403 514 CURVE SMOOTH",
"498 514 OFFCURVE",
"548 448 OFFCURVE",
"527 349 CURVE SMOOTH",
"453 0 LINE"
);
},
{
closed = 1;
nodes = (
"85 0 LINE",
"169 394 LINE",
"196 544 LINE",
"155 544 LINE",
"39 0 LINE"
);
}
);
width = 650;
}
);
unicode = 006E;
},
{
color = 6;
glyphname = eng;
lastChange = "2021-05-25 15:15:03 +0000";
layers = (
{
anchors = (
{
name = bottom;
position = "{257, 0}";
},
{
name = top;
position = "{417, 564}";
}
);
layerId = "1BFF0FF0-0E64-46D7-A9A4-916803583822";
paths = (
{
closed = 1;
nodes = (
"410 575 OFFCURVE",
"360 554 OFFCURVE",
"302 506 CURVE",
"311 563 LINE",
"100 563 LINE",
"-20 0 LINE",
"196 0 LINE",
"268 338 LINE",
"307 377 OFFCURVE",
"332 392 OFFCURVE",
"363 392 CURVE SMOOTH",
"396 392 OFFCURVE",
"411 368 OFFCURVE",
"404 333 CURVE SMOOTH",
"341 36 LINE SMOOTH",
"335 9 OFFCURVE",
"322 -6 OFFCURVE",
"295 -6 CURVE SMOOTH",
"272 -6 LINE",
"235 -178 LINE",
"307 -178 LINE SMOOTH",
"447 -178 OFFCURVE",
"527 -102 OFFCURVE",
"550 6 CURVE SMOOTH",
"626 361 LINE SMOOTH",
"654 494 OFFCURVE",
"586 575 OFFCURVE",
"466 575 CURVE SMOOTH"
);
}
);
width = 650;
},
{
anchors = (
{
name = bottom;
position = "{265, 0}";
},
{
name = top;
position = "{409, 557}";
}
);
layerId = "A3B76219-B495-4A65-93FB-16A8FAD49F3F";
paths = (
{
closed = 1;
nodes = (
"369 568 OFFCURVE",
"314 545 OFFCURVE",
"263 495 CURVE",
"273 556 LINE",
"122 556 LINE",
"4 0 LINE",
"160 0 LINE",
"232 338 LINE",
"291 410 OFFCURVE",
"337 438 OFFCURVE",
"388 438 CURVE SMOOTH",
"436 438 OFFCURVE",
"460 400 OFFCURVE",
"448 342 CURVE SMOOTH",
"377 12 LINE SMOOTH",
"367 -36 OFFCURVE",
"338 -52 OFFCURVE",
"280 -52 CURVE SMOOTH",
"218 -52 LINE",
"191 -178 LINE",
"323 -178 LINE SMOOTH",
"456 -178 OFFCURVE",
"511 -96 OFFCURVE",
"531 0 CURVE SMOOTH",
"606 352 LINE SMOOTH",
"634 482 OFFCURVE",
"556 568 OFFCURVE",
"436 568 CURVE SMOOTH"
);
}
);
width = 650;
},
{
anchors = (
{
name = bottom;
position = "{267, 0}";
},
{
name = top;
position = "{383, 545}";
}
);
layerId = "15963509-F4CC-4A33-865A-02712DFE1B04";
paths = (
{
closed = 1;
nodes = (
"315 556 OFFCURVE",
"234 505 OFFCURVE",
"173 417 CURVE",
"196 544 LINE",
"155 544 LINE",
"39 0 LINE",
"85 0 LINE",
"153 321 LINE",
"212 448 OFFCURVE",
"307 514 OFFCURVE",
"403 514 CURVE SMOOTH",
"498 514 OFFCURVE",
"548 448 OFFCURVE",
"527 349 CURVE SMOOTH",
"444 -42 LINE SMOOTH",
"430 -109 OFFCURVE",
"395 -140 OFFCURVE",
"333 -140 CURVE SMOOTH",
"275 -140 LINE",
"267 -178 LINE",
"331 -178 LINE SMOOTH",
"416 -178 OFFCURVE",
"470 -143 OFFCURVE",
"492 -38 CURVE SMOOTH",
"573 348 LINE SMOOTH",
"599 473 OFFCURVE",
"532 556 OFFCURVE",
"409 556 CURVE SMOOTH"
);
}
);
width = 650;
}
);
unicode = 014B;
},
{
color = 6;
glyphname = o;
lastChange = "2021-05-25 15:15:03 +0000";
layers = (
{
anchors = (
{
name = bottom;
position = "{325, 102}";
},
{
name = center;
position = "{325, 180}";
},
{
name = ogonek;
position = "{567, 19}";
},
{
name = top;
position = "{374, 564}";
},
{
name = topright;
position = "{604, 564}";
}
);
layerId = "1BFF0FF0-0E64-46D7-A9A4-916803583822";
paths = (
{
closed = 1;
nodes = (
"491 -12 OFFCURVE",
"623 126 OFFCURVE",
"623 334 CURVE SMOOTH",
"623 481 OFFCURVE",
"517 575 OFFCURVE",
"355 575 CURVE SMOOTH",
"158 575 OFFCURVE",
"26 438 OFFCURVE",
"26 230 CURVE SMOOTH",
"26 82 OFFCURVE",
"132 -12 OFFCURVE",
"295 -12 CURVE SMOOTH"
);
},
{
closed = 1;
nodes = (
"267 160 OFFCURVE",
"244 191 OFFCURVE",
"244 239 CURVE SMOOTH",
"244 338 OFFCURVE",
"287 403 OFFCURVE",
"345 403 CURVE SMOOTH",
"383 403 OFFCURVE",
"406 372 OFFCURVE",
"405 325 CURVE SMOOTH",
"403 225 OFFCURVE",
"362 160 OFFCURVE",
"305 160 CURVE SMOOTH"
);
}
);
width = 650;
},
{
anchors = (
{
name = bottom;
position = "{325, 0}";
},
{
name = center;
position = "{325, 278}";
},
{
name = ogonek;
position = "{573, 12}";
},
{
name = top;
position = "{365, 557}";
},
{
name = topright;
position = "{611, 557}";
}
);
layerId = "A3B76219-B495-4A65-93FB-16A8FAD49F3F";
paths = (
{
closed = 1;
nodes = (
"482 -12 OFFCURVE",
"611 120 OFFCURVE",
"611 327 CURVE SMOOTH",
"611 472 OFFCURVE",
"512 568 OFFCURVE",
"354 568 CURVE SMOOTH",
"168 568 OFFCURVE",
"38 436 OFFCURVE",
"38 229 CURVE SMOOTH",
"38 84 OFFCURVE",
"137 -12 OFFCURVE",
"296 -12 CURVE SMOOTH"
);
},
{
closed = 1;
nodes = (
"239 114 OFFCURVE",
"197 163 OFFCURVE",
"197 235 CURVE SMOOTH",
"197 362 OFFCURVE",
"259 442 OFFCURVE",
"350 442 CURVE SMOOTH",
"411 442 OFFCURVE",
"452 393 OFFCURVE",
"452 321 CURVE SMOOTH",
"452 194 OFFCURVE",
"391 114 OFFCURVE",
"300 114 CURVE SMOOTH"
);
}
);
width = 650;
},
{
anchors = (
{
name = bottom;
position = "{266, 0}";
},
{
name = center;
position = "{324, 273}";
},
{
name = ogonek;
position = "{517, 0}";
},
{
name = top;
position = "{372, 545}";
},
{
name = topright;
position = "{670, 545}";
}
);
layerId = "15963509-F4CC-4A33-865A-02712DFE1B04";
paths = (
{
closed = 1;
nodes = (
"469 -12 OFFCURVE",
"588 124 OFFCURVE",
"588 323 CURVE SMOOTH",
"588 468 OFFCURVE",
"500 556 OFFCURVE",
"364 556 CURVE SMOOTH",
"181 556 OFFCURVE",
"62 420 OFFCURVE",
"62 222 CURVE SMOOTH",
"62 76 OFFCURVE",
"151 -12 OFFCURVE",
"287 -12 CURVE SMOOTH"
);
},
{
closed = 1;
nodes = (
"181 30 OFFCURVE",
"110 114 OFFCURVE",
"110 225 CURVE SMOOTH",
"110 396 OFFCURVE",
"209 514 OFFCURVE",
"361 514 CURVE SMOOTH",
"469 514 OFFCURVE",
"540 441 OFFCURVE",
"540 319 CURVE SMOOTH",
"540 148 OFFCURVE",
"441 30 OFFCURVE",
"290 30 CURVE SMOOTH"
);
}
);
width = 650;
}
);
unicode = 006F;
},
{
color = 6;
glyphname = oslash;
lastChange = "2021-05-25 15:15:03 +0000";
layers = (
{
anchors = (
{
name = bottom;
position = "{325, 102}";
},
{
name = center;
position = "{325, 180}";
},
{
name = ogonek;
position = "{572, 19}";
},
{
name = top;
position = "{325, 564}";
},
{
name = topright;
position = "{610, 564}";
}
);
layerId = "1BFF0FF0-0E64-46D7-A9A4-916803583822";
paths = (
{
closed = 1;
nodes = (
"625 577 LINE",
"538 643 LINE",
"15 -33 LINE",
"102 -100 LINE"
);
},
{
closed = 1;
nodes = (
"494 -12 OFFCURVE",
"622 126 OFFCURVE",
"622 334 CURVE SMOOTH",
"622 481 OFFCURVE",
"516 575 OFFCURVE",
"354 575 CURVE SMOOTH",
"157 575 OFFCURVE",
"29 438 OFFCURVE",
"29 230 CURVE SMOOTH",
"29 82 OFFCURVE",
"135 -12 OFFCURVE",
"298 -12 CURVE SMOOTH"
);
},
{
closed = 1;
nodes = (
"272 160 OFFCURVE",
"247 191 OFFCURVE",
"247 239 CURVE SMOOTH",
"247 338 OFFCURVE",
"284 403 OFFCURVE",
"342 403 CURVE SMOOTH",
"380 403 OFFCURVE",
"404 372 OFFCURVE",
"404 325 CURVE SMOOTH",
"404 225 OFFCURVE",
"367 160 OFFCURVE",
"310 160 CURVE SMOOTH"
);
}
);
width = 650;
},
{
anchors = (
{
name = bottom;
position = "{325, 0}";
},
{
name = center;
position = "{325, 278}";
},
{
name = ogonek;
position = "{573, 12}";
},
{
name = top;
position = "{325, 557}";
},
{
name = topright;
position = "{611, 557}";
}
);
layerId = "A3B76219-B495-4A65-93FB-16A8FAD49F3F";
paths = (
{
closed = 1;
nodes = (
"625 574 LINE",
"532 641 LINE",
"15 -27 LINE",
"108 -94 LINE"
);
},
{
closed = 1;
nodes = (
"482 -12 OFFCURVE",
"611 120 OFFCURVE",
"611 327 CURVE SMOOTH",
"611 472 OFFCURVE",
"512 568 OFFCURVE",
"354 568 CURVE SMOOTH",
"168 568 OFFCURVE",
"38 436 OFFCURVE",
"38 229 CURVE SMOOTH",
"38 84 OFFCURVE",
"137 -12 OFFCURVE",
"296 -12 CURVE SMOOTH"
);
},
{
closed = 1;
nodes = (
"239 114 OFFCURVE",
"197 163 OFFCURVE",
"197 235 CURVE SMOOTH",
"197 362 OFFCURVE",
"259 442 OFFCURVE",
"350 442 CURVE SMOOTH",
"411 442 OFFCURVE",
"452 393 OFFCURVE",
"452 321 CURVE SMOOTH",
"452 194 OFFCURVE",
"391 114 OFFCURVE",
"300 114 CURVE SMOOTH"
);
}
);
width = 650;
},
{
anchors = (
{
name = bottom;
position = "{324, 0}";
},
{
name = center;
position = "{324, 272}";
},
{
name = ogonek;
position = "{575, 0}";
},
{
name = top;
position = "{324, 545}";
},
{
name = topright;
position = "{612, 545}";
}
);
layerId = "15963509-F4CC-4A33-865A-02712DFE1B04";
paths = (
{
closed = 1;
nodes = (
"595 583 LINE",
"559 603 LINE",
"57 -40 LINE",
"93 -59 LINE"
);
},
{
closed = 1;
nodes = (
"469 -12 OFFCURVE",
"588 124 OFFCURVE",
"588 323 CURVE SMOOTH",
"588 468 OFFCURVE",
"500 556 OFFCURVE",
"364 556 CURVE SMOOTH",
"181 556 OFFCURVE",
"62 420 OFFCURVE",
"62 222 CURVE SMOOTH",
"62 76 OFFCURVE",
"151 -12 OFFCURVE",
"287 -12 CURVE SMOOTH"
);
},
{
closed = 1;
nodes = (
"181 30 OFFCURVE",
"110 114 OFFCURVE",
"110 225 CURVE SMOOTH",
"110 396 OFFCURVE",
"209 514 OFFCURVE",
"361 514 CURVE SMOOTH",
"469 514 OFFCURVE",
"540 441 OFFCURVE",
"540 319 CURVE SMOOTH",
"540 148 OFFCURVE",
"441 30 OFFCURVE",
"290 30 CURVE SMOOTH"
);
}
);
width = 650;
}
);
unicode = 00F8;
},
{
color = 6;
glyphname = oe;
lastChange = "2021-05-25 15:15:03 +0000";
layers = (
{
anchors = (
{
name = bottom;
position = "{455, 3}";
},
{
name = center;
position = "{304, 173}";
},
{
name = ogonek;
position = "{525, 25}";
},
{
name = top;
position = "{576, 573}";
},
{
name = topright;
position = "{681, 574}";
}
);
layerId = "1BFF0FF0-0E64-46D7-A9A4-916803583822";
paths = (
{
closed = 1;
nodes = (
"336 -12 OFFCURVE",
"407 247 OFFCURVE",
"407 383 CURVE SMOOTH",
"407 471 OFFCURVE",
"359 575 OFFCURVE",
"251 575 CURVE SMOOTH",
"79 575 OFFCURVE",
"4 380 OFFCURVE",
"4 186 CURVE SMOOTH",
"4 74 OFFCURVE",
"67 -12 OFFCURVE",
"163 -12 CURVE SMOOTH"
);
},
{
closed = 1;
nodes = (
"170 160 OFFCURVE",
"159 174 OFFCURVE",
"159 214 CURVE SMOOTH",
"159 263 OFFCURVE",
"180 403 OFFCURVE",
"227 403 CURVE SMOOTH",
"243 403 OFFCURVE",
"253 388 OFFCURVE",
"253 349 CURVE SMOOTH",
"253 300 OFFCURVE",
"234 160 OFFCURVE",
"187 160 CURVE SMOOTH"
);
},
{
closed = 1;
nodes = (
"511 -12 OFFCURVE",
"591 67 OFFCURVE",
"621 195 CURVE",
"468 195 LINE",
"454 147 OFFCURVE",
"435 135 OFFCURVE",
"418 135 CURVE SMOOTH",
"397 135 OFFCURVE",
"388 158 OFFCURVE",
"388 193 CURVE SMOOTH",
"388 230 OFFCURVE",
"404 441 OFFCURVE",
"467 441 CURVE SMOOTH",
"488 441 OFFCURVE",
"498 412 OFFCURVE",
"488 368 CURVE",
"389 368 LINE",
"364 257 LINE",
"631 257 LINE",
"670 424 OFFCURVE",
"628 575 OFFCURVE",
"481 575 CURVE SMOOTH",
"319 575 OFFCURVE",
"240 373 OFFCURVE",
"240 179 CURVE SMOOTH",
"240 69 OFFCURVE",
"309 -12 OFFCURVE",
"404 -12 CURVE SMOOTH"
);
}
);
width = 650;
},
{
anchors = (
{
name = bottom;
position = "{299, 0}";
},
{
name = center;
position = "{248, 277}";
},
{
name = ogonek;
position = "{346, 10}";
},
{
name = top;
position = "{417, 554}";
},
{
name = topright;
position = "{486, 555}";
}
);
layerId = "A3B76219-B495-4A65-93FB-16A8FAD49F3F";
paths = (
{
closed = 1;
nodes = (
"351 -12 OFFCURVE",
"399 268 OFFCURVE",
"399 383 CURVE SMOOTH",
"399 503 OFFCURVE",
"331 568 OFFCURVE",
"240 568 CURVE SMOOTH",
"71 568 OFFCURVE",
"9 353 OFFCURVE",
"9 173 CURVE SMOOTH",
"9 53 OFFCURVE",
"80 -12 OFFCURVE",
"172 -12 CURVE SMOOTH"
);
},
{
closed = 1;
nodes = (
"158 114 OFFCURVE",
"143 130 OFFCURVE",
"143 178 CURVE SMOOTH",
"143 248 OFFCURVE",
"171 442 OFFCURVE",
"233 442 CURVE SMOOTH",
"253 442 OFFCURVE",
"268 426 OFFCURVE",
"268 378 CURVE SMOOTH",
"268 308 OFFCURVE",
"240 114 OFFCURVE",
"179 114 CURVE SMOOTH"
);
},
{
closed = 1;
nodes = (
"517 -12 OFFCURVE",
"579 65 OFFCURVE",
"610 191 CURVE",
"478 191 LINE",
"463 136 OFFCURVE",
"447 114 OFFCURVE",
"419 114 CURVE SMOOTH",
"394 114 OFFCURVE",
"381 141 OFFCURVE",
"381 188 CURVE SMOOTH",
"381 262 OFFCURVE",
"411 450 OFFCURVE",
"475 450 CURVE SMOOTH",
"507 450 OFFCURVE",
"513 409 OFFCURVE",
"503 362 CURVE",
"385 362 LINE",
"361 257 LINE",
"620 257 LINE",
"664 432 OFFCURVE",
"626 568 OFFCURVE",
"487 568 CURVE SMOOTH",
"323 568 OFFCURVE",
"249 323 OFFCURVE",
"249 170 CURVE SMOOTH",
"249 63 OFFCURVE",
"315 -12 OFFCURVE",
"411 -12 CURVE SMOOTH"
);
}
);
width = 650;
},
{
anchors = (
{
name = bottom;
position = "{357, 0}";
},
{
name = center;
position = "{280, 273}";
},
{
name = ogonek;
position = "{379, 0}";
},
{
name = top;
position = "{473, 544}";
},
{
name = topright;
position = "{518, 545}";
}
);
layerId = "15963509-F4CC-4A33-865A-02712DFE1B04";
paths = (
{
closed = 1;
nodes = (
"291 -12 OFFCURVE",
"366 213 OFFCURVE",
"366 387 CURVE SMOOTH",
"366 493 OFFCURVE",
"315 556 OFFCURVE",
"236 556 CURVE SMOOTH",
"82 556 OFFCURVE",
"6 335 OFFCURVE",
"6 159 CURVE SMOOTH",
"6 52 OFFCURVE",
"59 -12 OFFCURVE",
"140 -12 CURVE SMOOTH"
);
},
{
closed = 1;
nodes = (
"87 30 OFFCURVE",
"54 78 OFFCURVE",
"54 162 CURVE SMOOTH",
"54 300 OFFCURVE",
"115 514 OFFCURVE",
"233 514 CURVE SMOOTH",
"287 514 OFFCURVE",
"318 467 OFFCURVE",
"318 384 CURVE SMOOTH",
"318 248 OFFCURVE",
"258 30 OFFCURVE",
"143 30 CURVE SMOOTH"
);
},
{
closed = 1;
nodes = (
"530 -12 OFFCURVE",
"588 57 OFFCURVE",
"619 175 CURVE",
"573 175 LINE",
"550 84 OFFCURVE",
"505 30 OFFCURVE",
"442 30 CURVE SMOOTH",
"387 30 OFFCURVE",
"348 77 OFFCURVE",
"348 180 CURVE SMOOTH",
"348 298 OFFCURVE",
"398 514 OFFCURVE",
"517 514 CURVE SMOOTH",
"589 514 OFFCURVE",
"608 446 OFFCURVE",
"603 357 CURVE",
"366 357 LINE",
"357 316 LINE",
"642 316 LINE",
"661 451 OFFCURVE",
"627 556 OFFCURVE",
"519 556 CURVE SMOOTH",
"366 556 OFFCURVE",
"300 331 OFFCURVE",
"300 175 CURVE SMOOTH",
"300 48 OFFCURVE",
"359 -12 OFFCURVE",
"439 -12 CURVE SMOOTH"
);
}
);
width = 650;
}
);
leftMetricsKey = "=o";
rightMetricsKey = "=e";
unicode = 0153;
},
{
color = 6;
glyphname = p;
lastChange = "2021-05-25 15:15:03 +0000";
layers = (
{
anchors = (
{
name = bottom;
position = "{251, 0}";
},
{
name = top;
position = "{371, 564}";
}
);
layerId = "1BFF0FF0-0E64-46D7-A9A4-916803583822";
paths = (
{
closed = 1;
nodes = (
"382 575 OFFCURVE",
"338 553 OFFCURVE",
"302 517 CURVE",
"309 563 LINE",
"98 563 LINE",
"-59 -179 LINE",
"157 -179 LINE",
"204 44 LINE",
"235 10 OFFCURVE",
"272 -12 OFFCURVE",
"336 -12 CURVE SMOOTH",
"527 -12 OFFCURVE",
"631 155 OFFCURVE",
"631 347 CURVE SMOOTH",
"631 480 OFFCURVE",
"559 575 OFFCURVE",
"429 575 CURVE SMOOTH"
);
},
{
closed = 1;
nodes = (
"270 163 OFFCURVE",
"248 188 OFFCURVE",
"244 228 CURVE",
"268 350 LINE",
"288 377 OFFCURVE",
"307 400 OFFCURVE",
"343 400 CURVE SMOOTH",
"384 400 OFFCURVE",
"410 367 OFFCURVE",
"410 309 CURVE SMOOTH",
"410 248 OFFCURVE",
"380 163 OFFCURVE",
"311 163 CURVE SMOOTH"
);
}
);
width = 650;
},
{
anchors = (
{
name = bottom;
position = "{262, 0}";
},
{
name = top;
position = "{380, 557}";
}
);
layerId = "A3B76219-B495-4A65-93FB-16A8FAD49F3F";
paths = (
{
closed = 1;
nodes = (
"339 568 OFFCURVE",
"286 542 OFFCURVE",
"249 501 CURVE",
"258 556 LINE",
"107 556 LINE",
"-49 -178 LINE",
"107 -178 LINE",
"156 53 LINE",
"191 13 OFFCURVE",
"249 -12 OFFCURVE",
"304 -12 CURVE SMOOTH",
"499 -12 OFFCURVE",
"608 140 OFFCURVE",
"608 336 CURVE SMOOTH",
"608 473 OFFCURVE",
"537 568 OFFCURVE",
"395 568 CURVE SMOOTH"
);
},
{
closed = 1;
nodes = (
"235 116 OFFCURVE",
"196 153 OFFCURVE",
"189 209 CURVE",
"219 347 LINE",
"250 403 OFFCURVE",
"301 440 OFFCURVE",
"357 440 CURVE SMOOTH",
"431 440 OFFCURVE",
"449 382 OFFCURVE",
"449 320 CURVE SMOOTH",
"449 213 OFFCURVE",
"386 116 OFFCURVE",
"291 116 CURVE SMOOTH"
);
}
);
width = 650;
},
{
anchors = (
{
name = bottom;
position = "{270, 0}";
},
{
name = top;
position = "{386, 545}";
}
);
layerId = "15963509-F4CC-4A33-865A-02712DFE1B04";
paths = (
{
closed = 1;
nodes = (
"309 556 OFFCURVE",
"232 513 OFFCURVE",
"178 447 CURVE",
"196 544 LINE",
"155 544 LINE",
"1 -178 LINE",
"47 -178 LINE",
"105 94 LINE",
"138 29 OFFCURVE",
"209 -12 OFFCURVE",
"290 -12 CURVE SMOOTH",
"473 -12 OFFCURVE",
"595 143 OFFCURVE",
"595 335 CURVE SMOOTH",
"595 476 OFFCURVE",
"518 556 OFFCURVE",
"388 556 CURVE SMOOTH"
);
},
{
closed = 1;
nodes = (
"211 30 OFFCURVE",
"144 72 OFFCURVE",
"117 149 CURVE",
"166 380 LINE",
"217 464 OFFCURVE",
"307 514 OFFCURVE",
"385 514 CURVE SMOOTH",
"495 514 OFFCURVE",
"548 440 OFFCURVE",
"548 334 CURVE SMOOTH",
"548 170 OFFCURVE",
"445 30 OFFCURVE",
"293 30 CURVE SMOOTH"
);
}
);
width = 650;
}
);
rightMetricsKey = "=o";
unicode = 0070;
},
{
color = 6;
glyphname = thorn;
lastChange = "2021-05-25 15:15:03 +0000";
layers = (
{
layerId = "1BFF0FF0-0E64-46D7-A9A4-916803583822";
paths = (
{
closed = 1;
nodes = (
"385 575 OFFCURVE",
"343 552 OFFCURVE",
"301 519 CURVE",
"348 740 LINE",
"132 740 LINE",
"-63 -178 LINE",
"153 -178 LINE",
"201 44 LINE",
"232 9 OFFCURVE",
"279 -12 OFFCURVE",
"335 -12 CURVE SMOOTH",
"521 -12 OFFCURVE",
"639 145 OFFCURVE",
"639 320 CURVE SMOOTH",
"639 479 OFFCURVE",
"556 575 OFFCURVE",
"437 575 CURVE SMOOTH"
);
},
{
closed = 1;
nodes = (
"273 163 OFFCURVE",
"246 188 OFFCURVE",
"240 228 CURVE",
"262 335 LINE",
"284 375 OFFCURVE",
"310 400 OFFCURVE",
"351 400 CURVE SMOOTH",
"401 400 OFFCURVE",
"418 357 OFFCURVE",
"418 310 CURVE SMOOTH",
"418 236 OFFCURVE",
"375 163 OFFCURVE",
"313 163 CURVE SMOOTH"
);
}
);
width = 650;
},
{
layerId = "A3B76219-B495-4A65-93FB-16A8FAD49F3F";
paths = (
{
closed = 1;
nodes = (
"349 568 OFFCURVE",
"304 544 OFFCURVE",
"259 502 CURVE",
"309 740 LINE",
"154 740 LINE",
"-41 -178 LINE",
"114 -178 LINE",
"163 54 LINE",
"191 15 OFFCURVE",
"242 -12 OFFCURVE",
"308 -12 CURVE SMOOTH",
"519 -12 OFFCURVE",
"626 154 OFFCURVE",
"626 316 CURVE SMOOTH",
"626 462 OFFCURVE",
"551 568 OFFCURVE",
"414 568 CURVE SMOOTH"
);
},
{
closed = 1;
nodes = (
"250 116 OFFCURVE",
"203 152 OFFCURVE",
"196 210 CURVE",
"225 345 LINE",
"257 402 OFFCURVE",
"306 440 OFFCURVE",
"365 440 CURVE SMOOTH",
"429 440 OFFCURVE",
"467 390 OFFCURVE",
"467 310 CURVE SMOOTH",
"467 215 OFFCURVE",
"405 116 OFFCURVE",
"305 116 CURVE SMOOTH"
);
}
);
width = 650;
},
{
layerId = "15963509-F4CC-4A33-865A-02712DFE1B04";
paths = (
{
closed = 1;
nodes = (
"313 556 OFFCURVE",
"238 515 OFFCURVE",
"184 450 CURVE",
"243 730 LINE",
"197 730 LINE",
"4 -178 LINE",
"50 -178 LINE",
"108 94 LINE",
"138 34 OFFCURVE",
"205 -12 OFFCURVE",
"295 -12 CURVE SMOOTH",
"475 -12 OFFCURVE",
"598 142 OFFCURVE",
"598 337 CURVE SMOOTH",
"598 475 OFFCURVE",
"520 556 OFFCURVE",
"393 556 CURVE SMOOTH"
);
},
{
closed = 1;
nodes = (
"204 30 OFFCURVE",
"146 78 OFFCURVE",
"120 149 CURVE",
"169 381 LINE",
"220 463 OFFCURVE",
"309 514 OFFCURVE",
"389 514 CURVE SMOOTH",
"495 514 OFFCURVE",
"551 443 OFFCURVE",
"551 333 CURVE SMOOTH",
"551 167 OFFCURVE",
"444 30 OFFCURVE",
"299 30 CURVE SMOOTH"
);
}
);
width = 650;
}
);
unicode = 00FE;
},
{
color = 6;
glyphname = q;
lastChange = "2021-05-25 15:15:03 +0000";
layers = (
{
anchors = (
{
name = bottom;
position = "{339, 0}";
},
{
name = top;
position = "{339, 563}";
}
);
layerId = "1BFF0FF0-0E64-46D7-A9A4-916803583822";
paths = (
{
closed = 1;
nodes = (
"110 575 OFFCURVE",
"19 389 OFFCURVE",
"19 226 CURVE SMOOTH",
"19 72 OFFCURVE",
"98 -12 OFFCURVE",
"221 -12 CURVE SMOOTH",
"272 -12 OFFCURVE",
"315 12 OFFCURVE",
"347 47 CURVE",
"299 -178 LINE",
"514 -178 LINE",
"671 563 LINE",
"460 563 LINE",
"446 519 LINE",
"415 554 OFFCURVE",
"373 575 OFFCURVE",
"317 575 CURVE SMOOTH"
);
},
{
closed = 1;
nodes = (
"264 163 OFFCURVE",
"240 196 OFFCURVE",
"240 254 CURVE SMOOTH",
"240 315 OFFCURVE",
"269 400 OFFCURVE",
"341 400 CURVE SMOOTH",
"380 400 OFFCURVE",
"402 375 OFFCURVE",
"406 335 CURVE",
"382 213 LINE",
"360 181 OFFCURVE",
"338 163 OFFCURVE",
"307 163 CURVE SMOOTH"
);
}
);
width = 650;
},
{
anchors = (
{
name = bottom;
position = "{278, 0}";
},
{
name = top;
position = "{396, 556}";
}
);
layerId = "A3B76219-B495-4A65-93FB-16A8FAD49F3F";
paths = (
{
closed = 1;
nodes = (
"139 568 OFFCURVE",
"37 404 OFFCURVE",
"37 218 CURVE SMOOTH",
"37 81 OFFCURVE",
"121 -12 OFFCURVE",
"263 -12 CURVE SMOOTH",
"319 -12 OFFCURVE",
"362 14 OFFCURVE",
"399 55 CURVE",
"349 -178 LINE",
"505 -178 LINE",
"661 556 LINE",
"510 556 LINE",
"494 503 LINE",
"459 543 OFFCURVE",
"397 568 OFFCURVE",
"337 568 CURVE SMOOTH"
);
},
{
closed = 1;
nodes = (
"229 116 OFFCURVE",
"196 159 OFFCURVE",
"196 230 CURVE SMOOTH",
"196 346 OFFCURVE",
"259 440 OFFCURVE",
"351 440 CURVE SMOOTH",
"413 440 OFFCURVE",
"453 401 OFFCURVE",
"460 345 CURVE",
"431 209 LINE",
"398 154 OFFCURVE",
"347 116 OFFCURVE",
"291 116 CURVE SMOOTH"
);
}
);
width = 650;
},
{
anchors = (
{
name = bottom;
position = "{259, 0}";
},
{
name = top;
position = "{375, 544}";
}
);
layerId = "15963509-F4CC-4A33-865A-02712DFE1B04";
paths = (
{
closed = 1;
nodes = (
"176 556 OFFCURVE",
"54 401 OFFCURVE",
"54 209 CURVE SMOOTH",
"54 68 OFFCURVE",
"131 -12 OFFCURVE",
"261 -12 CURVE SMOOTH",
"340 -12 OFFCURVE",
"415 31 OFFCURVE",
"469 97 CURVE",
"410 -178 LINE",
"456 -178 LINE",
"610 544 LINE",
"569 544 LINE",
"544 450 LINE",
"511 515 OFFCURVE",
"440 556 OFFCURVE",
"359 556 CURVE SMOOTH"
);
},
{
closed = 1;
nodes = (
"154 30 OFFCURVE",
"101 104 OFFCURVE",
"101 210 CURVE SMOOTH",
"101 374 OFFCURVE",
"204 514 OFFCURVE",
"356 514 CURVE SMOOTH",
"438 514 OFFCURVE",
"505 472 OFFCURVE",
"532 395 CURVE",
"483 164 LINE",
"432 80 OFFCURVE",
"342 30 OFFCURVE",
"264 30 CURVE SMOOTH"
);
}
);
width = 650;
}
);
leftMetricsKey = "=o";
unicode = 0071;
},
{
color = 6;
glyphname = r;
lastChange = "2021-05-25 15:15:03 +0000";
layers = (
{
anchors = (
{
name = bottom;
position = "{88, 0}";
},
{
name = top;
position = "{387, 564}";
}
);
layerId = "1BFF0FF0-0E64-46D7-A9A4-916803583822";
paths = (
{
closed = 1;
nodes = (
"597 247 LINE",
"614 328 LINE SMOOTH",
"646 478 OFFCURVE",
"583 575 OFFCURVE",
"465 575 CURVE SMOOTH",
"368 575 OFFCURVE",
"326 530 OFFCURVE",
"257 462 CURVE",
"245 320 LINE",
"296 375 OFFCURVE",
"338 397 OFFCURVE",
"365 397 CURVE SMOOTH",
"401 397 OFFCURVE",
"407 372 OFFCURVE",
"398 328 CURVE SMOOTH",
"381 247 LINE"
);
},
{
closed = 1;
nodes = (
"198 0 LINE",
"302 490 LINE",
"313 563 LINE",
"102 563 LINE",
"-18 0 LINE"
);
}
);
width = 650;
},
{
anchors = (
{
name = bottom;
position = "{92, 0}";
},
{
name = top;
position = "{407, 557}";
}
);
layerId = "A3B76219-B495-4A65-93FB-16A8FAD49F3F";
paths = (
{
closed = 1;
nodes = (
"600 278 LINE",
"616 353 LINE SMOOTH",
"646 494 OFFCURVE",
"566 568 OFFCURVE",
"447 568 CURVE SMOOTH",
"357 568 OFFCURVE",
"291 522 OFFCURVE",
"220 435 CURVE",
"209 304 LINE",
"278 403 OFFCURVE",
"338 438 OFFCURVE",
"398 438 CURVE SMOOTH",
"451 438 OFFCURVE",
"471 404 OFFCURVE",
"460 353 CURVE SMOOTH",
"444 278 LINE"
);
},
{
closed = 1;
nodes = (
"170 0 LINE",
"267 456 LINE",
"282 556 LINE",
"132 556 LINE",
"14 0 LINE"
);
}
);
width = 650;
},
{
anchors = (
{
name = bottom;
position = "{99, 0}";
},
{
name = top;
position = "{400, 545}";
}
);
layerId = "15963509-F4CC-4A33-865A-02712DFE1B04";
paths = (
{
closed = 1;
nodes = (
"568 349 LINE",
"578 396 LINE SMOOTH",
"599 496 OFFCURVE",
"542 556 OFFCURVE",
"440 556 CURVE SMOOTH",
"329 556 OFFCURVE",
"234 482 OFFCURVE",
"170 345 CURVE",
"167 272 LINE",
"229 427 OFFCURVE",
"329 514 OFFCURVE",
"434 514 CURVE SMOOTH",
"511 514 OFFCURVE",
"548 471 OFFCURVE",
"532 396 CURVE SMOOTH",
"522 349 LINE"
);
},
{
closed = 1;
nodes = (
"121 0 LINE",
"205 394 LINE",
"230 544 LINE",
"191 544 LINE",
"75 0 LINE"
);
}
);
width = 650;
}
);
unicode = 0072;
},
{
color = 6;
glyphname = s;
lastChange = "2021-05-25 15:15:03 +0000";
layers = (
{
anchors = (
{
name = bottom;
position = "{289, 0}";
},
{
name = top;
position = "{354, 563}";
}
);
layerId = "1BFF0FF0-0E64-46D7-A9A4-916803583822";
paths = (
{
closed = 1;
nodes = (
"458 -12 OFFCURVE",
"573 55 OFFCURVE",
"573 194 CURVE SMOOTH",
"573 388 OFFCURVE",
"290 335 OFFCURVE",
"290 397 CURVE SMOOTH",
"290 415 OFFCURVE",
"310 429 OFFCURVE",
"348 429 CURVE SMOOTH",
"384 429 OFFCURVE",
"407 414 OFFCURVE",
"414 387 CURVE",
"602 387 LINE",
"594 516 OFFCURVE",
"482 575 OFFCURVE",
"357 575 CURVE SMOOTH",
"201 575 OFFCURVE",
"87 510 OFFCURVE",
"88 380 CURVE SMOOTH",
"89 188 OFFCURVE",
"371 236 OFFCURVE",
"371 171 CURVE SMOOTH",
"371 148 OFFCURVE",
"342 134 OFFCURVE",
"303 134 CURVE SMOOTH",
"251 134 OFFCURVE",
"229 151 OFFCURVE",
"225 185 CURVE",
"37 185 LINE",
"37 58 OFFCURVE",
"171 -12 OFFCURVE",
"294 -12 CURVE SMOOTH"
);
}
);
width = 650;
},
{
anchors = (
{
name = bottom;
position = "{296, 0}";
},
{
name = top;
position = "{373, 557}";
}
);
layerId = "A3B76219-B495-4A65-93FB-16A8FAD49F3F";
paths = (
{
closed = 1;
nodes = (
"467 -12 OFFCURVE",
"560 58 OFFCURVE",
"560 166 CURVE SMOOTH",
"560 348 OFFCURVE",
"272 311 OFFCURVE",
"271 401 CURVE SMOOTH",
"271 434 OFFCURVE",
"303 455 OFFCURVE",
"356 455 CURVE SMOOTH",
"407 455 OFFCURVE",
"447 428 OFFCURVE",
"450 380 CURVE",
"604 380 LINE",
"599 499 OFFCURVE",
"499 568 OFFCURVE",
"361 568 CURVE SMOOTH",
"214 568 OFFCURVE",
"112 501 OFFCURVE",
"112 385 CURVE SMOOTH",
"112 207 OFFCURVE",
"401 239 OFFCURVE",
"401 154 CURVE SMOOTH",
"401 123 OFFCURVE",
"372 101 OFFCURVE",
"315 101 CURVE SMOOTH",
"245 101 OFFCURVE",
"205 139 OFFCURVE",
"205 199 CURVE",
"51 199 LINE",
"50 65 OFFCURVE",
"166 -12 OFFCURVE",
"310 -12 CURVE SMOOTH"
);
}
);
width = 650;
},
{
anchors = (
{
name = bottom;
position = "{306, 0}";
},
{
name = top;
position = "{368, 545}";
}
);
layerId = "15963509-F4CC-4A33-865A-02712DFE1B04";
paths = (
{
closed = 1;
nodes = (
"449 -12 OFFCURVE",
"525 45 OFFCURVE",
"525 143 CURVE SMOOTH",
"525 342 OFFCURVE",
"192 262 OFFCURVE",
"192 403 CURVE SMOOTH",
"192 463 OFFCURVE",
"248 514 OFFCURVE",
"344 514 CURVE SMOOTH",
"438 514 OFFCURVE",
"509 480 OFFCURVE",
"521 387 CURVE",
"567 387 LINE",
"562 502 OFFCURVE",
"467 556 OFFCURVE",
"346 556 CURVE SMOOTH",
"221 556 OFFCURVE",
"144 490 OFFCURVE",
"144 400 CURVE SMOOTH",
"144 221 OFFCURVE",
"477 297 OFFCURVE",
"477 140 CURVE SMOOTH",
"477 78 OFFCURVE",
"419 30 OFFCURVE",
"319 30 CURVE SMOOTH",
"212 30 OFFCURVE",
"148 95 OFFCURVE",
"141 194 CURVE",
"95 194 LINE",
"97 70 OFFCURVE",
"188 -12 OFFCURVE",
"317 -12 CURVE SMOOTH"
);
}
);
width = 650;
}
);
unicode = 0073;
},
{
color = 6;
glyphname = germandbls;
lastChange = "2021-05-25 15:15:03 +0000";
layers = (
{
layerId = "1BFF0FF0-0E64-46D7-A9A4-916803583822";
paths = (
{
closed = 1;
nodes = (
"496 -11 OFFCURVE",
"633 88 OFFCURVE",
"633 239 CURVE SMOOTH",
"633 320 OFFCURVE",
"578 409 OFFCURVE",
"465 410 CURVE",
"460 369 LINE",
"563 394 OFFCURVE",
"646 434 OFFCURVE",
"646 552 CURVE SMOOTH",
"646 662 OFFCURVE",
"551 740 OFFCURVE",
"395 740 CURVE SMOOTH",
"193 740 OFFCURVE",
"89 624 OFFCURVE",
"61 494 CURVE SMOOTH",
"-44 0 LINE",
"172 0 LINE",
"275 483 LINE SMOOTH",
"287 540 OFFCURVE",
"317 573 OFFCURVE",
"370 573 CURVE SMOOTH",
"411 573 OFFCURVE",
"428 553 OFFCURVE",
"428 521 CURVE SMOOTH",
"428 480 OFFCURVE",
"390 453 OFFCURVE",
"341 453 CURVE SMOOTH",
"312 453 LINE",
"282 311 LINE",
"346 311 LINE SMOOTH",
"397 311 OFFCURVE",
"420 285 OFFCURVE",
"420 245 CURVE SMOOTH",
"420 194 OFFCURVE",
"382 161 OFFCURVE",
"324 161 CURVE SMOOTH",
"291 161 OFFCURVE",
"268 168 OFFCURVE",
"253 175 CURVE",
"216 1 LINE",
"252 -8 OFFCURVE",
"283 -11 OFFCURVE",
"318 -11 CURVE SMOOTH"
);
}
);
width = 650;
},
{
layerId = "A3B76219-B495-4A65-93FB-16A8FAD49F3F";
paths = (
{
closed = 1;
nodes = (
"509 -12 OFFCURVE",
"622 84 OFFCURVE",
"622 232 CURVE SMOOTH",
"622 322 OFFCURVE",
"555 383 OFFCURVE",
"452 386 CURVE",
"447 352 LINE",
"557 381 OFFCURVE",
"628 459 OFFCURVE",
"628 550 CURVE SMOOTH",
"628 665 OFFCURVE",
"531 740 OFFCURVE",
"381 740 CURVE SMOOTH",
"237 740 OFFCURVE",
"126 665 OFFCURVE",
"95 516 CURVE SMOOTH",
"-14 0 LINE",
"141 0 LINE",
"249 508 LINE SMOOTH",
"264 581 OFFCURVE",
"312 615 OFFCURVE",
"374 615 CURVE SMOOTH",
"432 615 OFFCURVE",
"470 584 OFFCURVE",
"470 537 CURVE SMOOTH",
"470 479 OFFCURVE",
"428 442 OFFCURVE",
"363 442 CURVE SMOOTH",
"295 442 LINE",
"268 316 LINE",
"349 316 LINE SMOOTH",
"418 316 OFFCURVE",
"464 281 OFFCURVE",
"464 223 CURVE SMOOTH",
"464 159 OFFCURVE",
"414 114 OFFCURVE",
"323 114 CURVE SMOOTH",
"289 114 OFFCURVE",
"245 120 OFFCURVE",
"228 129 CURVE",
"201 2 LINE",
"232 -6 OFFCURVE",
"285 -12 OFFCURVE",
"320 -12 CURVE SMOOTH"
);
}
);
width = 650;
},
{
layerId = "15963509-F4CC-4A33-865A-02712DFE1B04";
paths = (
{
closed = 1;
nodes = (
"467 -14 OFFCURVE",
"577 74 OFFCURVE",
"577 209 CURVE SMOOTH",
"577 313 OFFCURVE",
"499 381 OFFCURVE",
"399 387 CURVE",
"398 369 LINE",
"503 391 OFFCURVE",
"592 454 OFFCURVE",
"592 566 CURVE SMOOTH",
"592 665 OFFCURVE",
"513 730 OFFCURVE",
"402 730 CURVE SMOOTH",
"276 730 OFFCURVE",
"179 642 OFFCURVE",
"150 507 CURVE SMOOTH",
"42 0 LINE",
"88 0 LINE",
"195 504 LINE SMOOTH",
"219 617 OFFCURVE",
"297 688 OFFCURVE",
"399 688 CURVE SMOOTH",
"490 688 OFFCURVE",
"543 639 OFFCURVE",
"543 564 CURVE SMOOTH",
"543 467 OFFCURVE",
"466 404 OFFCURVE",
"358 404 CURVE SMOOTH",
"257 404 LINE",
"248 362 LINE",
"346 362 LINE SMOOTH",
"463 362 OFFCURVE",
"530 297 OFFCURVE",
"530 207 CURVE SMOOTH",
"530 99 OFFCURVE",
"440 28 OFFCURVE",
"301 28 CURVE SMOOTH",
"261 28 OFFCURVE",
"208 35 OFFCURVE",
"181 45 CURVE",
"172 3 LINE",
"198 -7 OFFCURVE",
"254 -14 OFFCURVE",
"299 -14 CURVE SMOOTH"
);
}
);
width = 650;
}
);
unicode = 00DF;
},
{
color = 6;
glyphname = t;
lastChange = "2021-05-25 15:15:03 +0000";
layers = (
{
anchors = (
{
name = bottom;
position = "{302, 0}";
},
{
name = center;
position = "{292, 292}";
},
{
name = topright;
position = "{533, 564}";
}
);
layerId = "1BFF0FF0-0E64-46D7-A9A4-916803583822";
paths = (
{
closed = 1;
nodes = (
"527 0 LINE",
"564 172 LINE",
"432 172 LINE SMOOTH",
"373 172 OFFCURVE",
"340 171 OFFCURVE",
"353 233 CURVE SMOOTH",
"465 760 LINE",
"231 674 LINE",
"134 215 LINE SMOOTH",
"100 53 OFFCURVE",
"178 0 OFFCURVE",
"306 0 CURVE SMOOTH"
);
},
{
closed = 1;
nodes = (
"526 391 LINE",
"563 563 LINE",
"97 563 LINE",
"60 391 LINE"
);
}
);
width = 650;
},
{
anchors = (
{
name = bottom;
position = "{313, 0}";
},
{
name = center;
position = "{289, 293}";
},
{
name = topright;
position = "{495, 557}";
}
);
layerId = "A3B76219-B495-4A65-93FB-16A8FAD49F3F";
paths = (
{
closed = 1;
nodes = (
"514 0 LINE",
"541 126 LINE",
"381 126 LINE SMOOTH",
"326 126 OFFCURVE",
"311 148 OFFCURVE",
"322 200 CURVE SMOOTH",
"433 719 LINE",
"262 649 LINE",
"166 200 LINE SMOOTH",
"141 83 OFFCURVE",
"198 0 OFFCURVE",
"311 0 CURVE SMOOTH"
);
},
{
closed = 1;
nodes = (
"506 430 LINE",
"533 556 LINE",
"132 556 LINE",
"105 430 LINE"
);
}
);
width = 650;
},
{
anchors = (
{
name = bottom;
position = "{334, 0}";
},
{
name = center;
position = "{285, 297}";
},
{
name = topright;
position = "{422, 545}";
}
);
layerId = "15963509-F4CC-4A33-865A-02712DFE1B04";
paths = (
{
closed = 1;
nodes = (
"512 0 LINE",
"520 38 LINE",
"326 38 LINE SMOOTH",
"246 38 OFFCURVE",
"245 89 OFFCURVE",
"255 136 CURVE SMOOTH",
"375 699 LINE",
"320 659 LINE",
"209 136 LINE SMOOTH",
"190 47 OFFCURVE",
"228 0 OFFCURVE",
"322 0 CURVE SMOOTH"
);
},
{
closed = 1;
nodes = (
"544 506 LINE",
"552 544 LINE",
"146 544 LINE",
"138 506 LINE"
);
}
);
width = 650;
}
);
unicode = 0074;
},
{
color = 3;
glyphname = tbar;
lastChange = "2021-05-25 15:15:03 +0000";
layers = (
{
components = (
{
name = t;
}
);
layerId = "1BFF0FF0-0E64-46D7-A9A4-916803583822";
paths = (
{
closed = 1;
nodes = (
"489 235 LINE",
"512 345 LINE",
"68 345 LINE",
"45 235 LINE"
);
}
);
width = 651;
},
{
components = (
{
name = t;
}
);
layerId = "A3B76219-B495-4A65-93FB-16A8FAD49F3F";
paths = (
{
closed = 1;
nodes = (
"465 243 LINE",
"486 343 LINE",
"91 343 LINE",
"70 243 LINE"
);
}
);
width = 650;
},
{
components = (
{
name = t;
}
);
layerId = "15963509-F4CC-4A33-865A-02712DFE1B04";
paths = (
{
closed = 1;
nodes = (
"508 278 LINE",
"516 314 LINE",
"108 314 LINE",
"100 278 LINE"
);
}
);
width = 650;
}
);
unicode = 0167;
},
{
color = 6;
glyphname = v;
lastChange = "2021-05-25 15:15:03 +0000";
layers = (
{
anchors = (
{
name = bottom;
position = "{265, 0}";
},
{
name = top;
position = "{385, 564}";
}
);
layerId = "1BFF0FF0-0E64-46D7-A9A4-916803583822";
paths = (
{
closed = 1;
nodes = (
"391 0 LINE",
"698 563 LINE",
"465 563 LINE",
"361 334 LINE",
"296 181 LINE",
"298 334 LINE",
"288 563 LINE",
"69 563 LINE",
"137 0 LINE"
);
}
);
width = 650;
},
{
anchors = (
{
name = bottom;
position = "{266, 0}";
},
{
name = top;
position = "{384, 557}";
}
);
layerId = "A3B76219-B495-4A65-93FB-16A8FAD49F3F";
paths = (
{
closed = 1;
nodes = (
"356 0 LINE",
"671 556 LINE",
"506 556 LINE",
"355 274 LINE",
"290 136 LINE",
"285 274 LINE",
"252 556 LINE",
"96 556 LINE",
"176 0 LINE"
);
}
);
width = 650;
},
{
anchors = (
{
name = bottom;
position = "{265, 0}";
},
{
name = top;
position = "{381, 545}";
}
);
layerId = "15963509-F4CC-4A33-865A-02712DFE1B04";
paths = (
{
closed = 1;
nodes = (
"291 0 LINE",
"638 544 LINE",
"587 544 LINE",
"344 163 LINE",
"276 49 LINE",
"256 163 LINE",
"175 544 LINE",
"127 544 LINE",
"242 0 LINE"
);
}
);
width = 650;
}
);
unicode = 0076;
},
{
color = 6;
glyphname = w;
lastChange = "2021-05-25 15:15:03 +0000";
layers = (
{
anchors = (
{
name = top;
position = "{387, 568}";
}
);
layerId = "1BFF0FF0-0E64-46D7-A9A4-916803583822";
paths = (
{
closed = 1;
nodes = (
"216 0 LINE",
"320 289 LINE",
"351 405 LINE",
"333 289 LINE",
"315 0 LINE",
"508 0 LINE",
"702 563 LINE",
"535 563 LINE",
"452 291 LINE",
"421 174 LINE",
"440 291 LINE",
"462 563 LINE",
"302 563 LINE",
"213 291 LINE",
"185 183 LINE",
"203 291 LINE",
"235 563 LINE",
"67 563 LINE",
"25 0 LINE"
);
}
);
width = 650;
},
{
anchors = (
{
name = top;
position = "{370, 557}";
}
);
layerId = "A3B76219-B495-4A65-93FB-16A8FAD49F3F";
paths = (
{
closed = 1;
nodes = (
"211 0 LINE",
"310 259 LINE",
"354 416 LINE",
"331 259 LINE",
"322 0 LINE",
"501 0 LINE",
"692 557 LINE",
"553 557 LINE",
"463 274 LINE",
"427 153 LINE",
"437 274 LINE",
"449 557 LINE",
"311 557 LINE",
"208 274 LINE",
"167 156 LINE",
"183 274 LINE",
"212 557 LINE",
"76 557 LINE",
"34 0 LINE"
);
}
);
width = 650;
},
{
anchors = (
{
name = top;
position = "{382, 545}";
}
);
layerId = "15963509-F4CC-4A33-865A-02712DFE1B04";
paths = (
{
closed = 1;
nodes = (
"133 0 LINE",
"305 342 LINE",
"371 481 LINE",
"378 342 LINE",
"403 0 LINE",
"462 0 LINE",
"685 545 LINE",
"640 545 LINE",
"501 204 LINE",
"439 53 LINE",
"432 204 LINE",
"403 545 LINE",
"362 545 LINE",
"191 204 LINE",
"117 53 LINE",
"119 204 LINE",
"124 545 LINE",
"82 545 LINE",
"72 0 LINE"
);
}
);
width = 650;
},
{
anchors = (
{
name = top;
position = "{326, 555}";
}
);
associatedMasterId = "15963509-F4CC-4A33-865A-02712DFE1B04";
background = {
anchors = (
{
name = top;
position = "{422, 544}";
}
);
paths = (
{
closed = 1;
nodes = (
"258 0 LINE",
"385 363 LINE",
"421 487 LINE",
"458 363 LINE",
"583 0 LINE",
"620 0 LINE",
"813 544 LINE",
"768 544 LINE",
"645 194 LINE",
"603 55 LINE",
"561 194 LINE",
"440 544 LINE",
"404 544 LINE",
"282 194 LINE",
"241 56 LINE",
"200 194 LINE",
"77 544 LINE",
"30 544 LINE",
"222 0 LINE"
);
}
);
};
layerId = "48430BA6-FD84-419D-AD10-485F398327D8";
name = "{500}";
paths = (
{
closed = 1;
nodes = (
"184 0 LINE",
"308 287 LINE",
"361 441 LINE",
"347 287 LINE",
"350 0 LINE",
"487 0 LINE",
"689 553 LINE",
"582 553 LINE",
"476 251 LINE",
"431 120 LINE",
"435 251 LINE",
"433 553 LINE",
"328 553 LINE",
"203 251 LINE",
"150 122 LINE",
"162 251 LINE",
"183 553 LINE",
"79 553 LINE",
"47 0 LINE"
);
}
);
width = 650;
}
);
unicode = 0077;
},
{
color = 6;
glyphname = x;
lastChange = "2021-05-25 15:15:03 +0000";
layers = (
{
anchors = (
{
name = bottom;
position = "{266, 0}";
},
{
name = top;
position = "{386, 564}";
}
);
layerId = "1BFF0FF0-0E64-46D7-A9A4-916803583822";
paths = (
{
closed = 1;
nodes = (
"683 563 LINE",
"447 563 LINE",
"406 503 LINE",
"353 417 LINE",
"334 505 LINE",
"315 563 LINE",
"82 563 LINE",
"194 284 LINE",
"-43 0 LINE",
"202 0 LINE",
"249 68 LINE",
"301 152 LINE",
"316 68 LINE",
"337 0 LINE",
"571 0 LINE",
"458 284 LINE"
);
}
);
width = 650;
},
{
anchors = (
{
name = bottom;
position = "{266, 0}";
},
{
name = top;
position = "{384, 557}";
}
);
layerId = "A3B76219-B495-4A65-93FB-16A8FAD49F3F";
paths = (
{
closed = 1;
nodes = (
"656 556 LINE",
"482 556 LINE",
"438 506 LINE",
"345 390 LINE",
"302 499 LINE",
"276 556 LINE",
"114 556 LINE",
"228 290 LINE",
"-12 0 LINE",
"162 0 LINE",
"210 54 LINE",
"302 170 LINE",
"346 63 LINE",
"372 0 LINE",
"535 0 LINE",
"420 270 LINE"
);
}
);
width = 650;
},
{
anchors = (
{
name = bottom;
position = "{267, 0}";
},
{
name = top;
position = "{383, 545}";
}
);
layerId = "15963509-F4CC-4A33-865A-02712DFE1B04";
paths = (
{
closed = 1;
nodes = (
"609 544 LINE",
"555 544 LINE",
"429 412 LINE",
"334 311 LINE",
"267 433 LINE",
"205 544 LINE",
"157 544 LINE",
"301 283 LINE",
"36 0 LINE",
"90 0 LINE",
"229 147 LINE",
"323 249 LINE",
"388 127 LINE",
"456 0 LINE",
"503 0 LINE",
"355 278 LINE"
);
}
);
width = 650;
}
);
unicode = 0078;
},
{
color = 6;
glyphname = y;
lastChange = "2021-05-25 15:15:03 +0000";
layers = (
{
anchors = (
{
name = top;
position = "{370, 564}";
}
);
layerId = "1BFF0FF0-0E64-46D7-A9A4-916803583822";
paths = (
{
closed = 1;
nodes = (
"284 563 LINE",
"68 563 LINE",
"165 79 LINE",
"145 49 LINE SMOOTH",
"116 6 OFFCURVE",
"100 -16 OFFCURVE",
"31 -16 CURVE SMOOTH",
"-34 -16 LINE",
"-71 -190 LINE",
"45 -190 LINE SMOOTH",
"194 -190 OFFCURVE",
"258 -134 OFFCURVE",
"333 -15 CURVE SMOOTH",
"697 563 LINE",
"467 563 LINE",
"377 402 LINE",
"312 269 LINE",
"302 419 LINE"
);
}
);
width = 650;
},
{
anchors = (
{
name = top;
position = "{362, 557}";
}
);
layerId = "A3B76219-B495-4A65-93FB-16A8FAD49F3F";
paths = (
{
closed = 1;
nodes = (
"248 556 LINE",
"94 556 LINE",
"196 62 LINE",
"177 32 LINE SMOOTH",
"142 -23 OFFCURVE",
"109 -64 OFFCURVE",
"54 -64 CURVE SMOOTH",
"-38 -64 LINE",
"-64 -190 LINE",
"45 -190 LINE SMOOTH",
"151 -190 OFFCURVE",
"228 -147 OFFCURVE",
"304 -27 CURVE SMOOTH",
"674 556 LINE",
"509 556 LINE",
"379 346 LINE",
"305 213 LINE",
"283 361 LINE"
);
}
);
width = 650;
},
{
anchors = (
{
name = top;
position = "{381, 545}";
}
);
layerId = "15963509-F4CC-4A33-865A-02712DFE1B04";
paths = (
{
closed = 1;
nodes = (
"174 544 LINE",
"129 544 LINE",
"242 3 LINE",
"214 -41 LINE SMOOTH",
"157 -130 OFFCURVE",
"127 -152 OFFCURVE",
"82 -152 CURVE SMOOTH",
"-13 -152 LINE",
"-21 -190 LINE",
"71 -190 LINE SMOOTH",
"139 -190 OFFCURVE",
"181 -170 OFFCURVE",
"242 -75 CURVE SMOOTH",
"638 544 LINE",
"588 544 LINE",
"350 170 LINE",
"273 48 LINE",
"248 188 LINE"
);
}
);
width = 650;
}
);
unicode = 0079;
},
{
color = 6;
glyphname = z;
lastChange = "2021-05-25 15:15:03 +0000";
layers = (
{
anchors = (
{
name = top;
position = "{384, 564}";
}
);
layerId = "1BFF0FF0-0E64-46D7-A9A4-916803583822";
paths = (
{
closed = 1;
nodes = (
"523 0 LINE",
"560 174 LINE",
"478 174 LINE",
"327 175 LINE",
"444 264 LINE",
"610 410 LINE",
"643 563 LINE",
"136 563 LINE",
"99 389 LINE",
"167 389 LINE",
"318 388 LINE",
"201 298 LINE",
"40 156 LINE",
"7 0 LINE"
);
}
);
width = 650;
},
{
anchors = (
{
name = top;
position = "{394, 557}";
}
);
layerId = "A3B76219-B495-4A65-93FB-16A8FAD49F3F";
paths = (
{
closed = 1;
nodes = (
"506 0 LINE",
"533 126 LINE",
"400 126 LINE",
"249 126 LINE",
"362 220 LINE",
"600 445 LINE",
"624 556 LINE",
"156 556 LINE",
"129 430 LINE",
"247 430 LINE",
"398 430 LINE",
"285 336 LINE",
"50 113 LINE",
"26 0 LINE"
);
}
);
width = 650;
},
{
anchors = (
{
name = top;
position = "{376, 545}";
}
);
layerId = "15963509-F4CC-4A33-865A-02712DFE1B04";
paths = (
{
closed = 1;
nodes = (
"484 0 LINE",
"492 38 LINE",
"249 38 LINE",
"109 38 LINE",
"209 135 LINE",
"593 510 LINE",
"600 544 LINE",
"175 544 LINE",
"167 506 LINE",
"393 506 LINE",
"529 506 LINE",
"433 409 LINE",
"49 34 LINE",
"42 0 LINE"
);
}
);
width = 650;
}
);
unicode = 007A;
},
{
color = 6;
glyphname = a.ss01;
lastChange = "2021-05-25 15:15:03 +0000";
layers = (
{
anchors = (
{
name = ogonek;
position = "{487, 0}";
},
{
name = top;
position = "{379, 564}";
}
);
layerId = "1BFF0FF0-0E64-46D7-A9A4-916803583822";
paths = (
{
closed = 1;
nodes = (
"676 563 LINE",
"465 563 LINE",
"444 490 LINE",
"355 72 LINE",
"345 0 LINE",
"556 0 LINE"
);
},
{
closed = 1;
nodes = (
"313 -12 OFFCURVE",
"386 51 OFFCURVE",
"435 146 CURVE",
"493 417 LINE",
"484 512 OFFCURVE",
"413 575 OFFCURVE",
"316 575 CURVE SMOOTH",
"139 575 OFFCURVE",
"17 415 OFFCURVE",
"17 227 CURVE SMOOTH",
"17 101 OFFCURVE",
"82 -12 OFFCURVE",
"216 -12 CURVE SMOOTH"
);
},
{
closed = 1;
nodes = (
"261 163 OFFCURVE",
"238 200 OFFCURVE",
"238 249 CURVE SMOOTH",
"238 321 OFFCURVE",
"267 400 OFFCURVE",
"338 400 CURVE SMOOTH",
"382 400 OFFCURVE",
"412 373 OFFCURVE",
"412 319 CURVE SMOOTH",
"412 249 OFFCURVE",
"375 163 OFFCURVE",
"305 163 CURVE SMOOTH"
);
}
);
width = 650;
},
{
anchors = (
{
name = ogonek;
position = "{509, 0}";
},
{
name = top;
position = "{366, 557}";
}
);
layerId = "A3B76219-B495-4A65-93FB-16A8FAD49F3F";
paths = (
{
closed = 1;
nodes = (
"653 556 LINE",
"502 556 LINE",
"477 456 LINE",
"401 100 LINE",
"385 0 LINE",
"535 0 LINE"
);
},
{
closed = 1;
nodes = (
"351 -12 OFFCURVE",
"424 59 OFFCURVE",
"461 148 CURVE",
"517 408 LINE",
"518 497 OFFCURVE",
"449 568 OFFCURVE",
"341 568 CURVE SMOOTH",
"149 568 OFFCURVE",
"23 412 OFFCURVE",
"23 230 CURVE SMOOTH",
"23 85 OFFCURVE",
"101 -12 OFFCURVE",
"243 -12 CURVE SMOOTH"
);
},
{
closed = 1;
nodes = (
"221 116 OFFCURVE",
"182 168 OFFCURVE",
"182 238 CURVE SMOOTH",
"182 342 OFFCURVE",
"237 440 OFFCURVE",
"342 440 CURVE SMOOTH",
"402 440 OFFCURVE",
"455 397 OFFCURVE",
"455 328 CURVE SMOOTH",
"455 226 OFFCURVE",
"383 116 OFFCURVE",
"285 116 CURVE SMOOTH"
);
}
);
width = 650;
},
{
anchors = (
{
name = ogonek;
position = "{492, 0}";
},
{
name = top;
position = "{362, 545}";
}
);
layerId = "15963509-F4CC-4A33-865A-02712DFE1B04";
paths = (
{
closed = 1;
nodes = (
"608 544 LINE",
"567 544 LINE",
"530 394 LINE",
"478 150 LINE",
"451 0 LINE",
"492 0 LINE"
);
},
{
closed = 1;
nodes = (
"382 -12 OFFCURVE",
"475 66 OFFCURVE",
"515 178 CURVE",
"555 362 LINE",
"561 474 OFFCURVE",
"462 556 OFFCURVE",
"349 556 CURVE SMOOTH",
"168 556 OFFCURVE",
"52 400 OFFCURVE",
"52 211 CURVE SMOOTH",
"52 64 OFFCURVE",
"147 -12 OFFCURVE",
"263 -12 CURVE SMOOTH"
);
},
{
closed = 1;
nodes = (
"164 30 OFFCURVE",
"100 106 OFFCURVE",
"100 212 CURVE SMOOTH",
"100 371 OFFCURVE",
"189 514 OFFCURVE",
"348 514 CURVE SMOOTH",
"440 514 OFFCURVE",
"532 448 OFFCURVE",
"532 338 CURVE SMOOTH",
"532 184 OFFCURVE",
"423 30 OFFCURVE",
"267 30 CURVE SMOOTH"
);
}
);
width = 650;
}
);
category = Letter;
subCategory = "";
},
{
color = 6;
glyphname = ae.ss01;
lastChange = "2021-05-25 15:15:03 +0000";
layers = (
{
anchors = (
{
name = bottom;
position = "{265, 0}";
},
{
name = top;
position = "{365, 564}";
}
);
layerId = "1BFF0FF0-0E64-46D7-A9A4-916803583822";
paths = (
{
closed = 1;
nodes = (
"421 563 LINE",
"318 563 LINE",
"288 450 LINE",
"216 111 LINE",
"198 0 LINE",
"301 0 LINE"
);
},
{
closed = 1;
nodes = (
"184 -12 OFFCURVE",
"221 50 OFFCURVE",
"258 144 CURVE",
"315 411 LINE",
"319 509 OFFCURVE",
"274 575 OFFCURVE",
"203 575 CURVE SMOOTH",
"72 575 OFFCURVE",
"-7 346 OFFCURVE",
"-7 202 CURVE SMOOTH",
"-7 79 OFFCURVE",
"38 -12 OFFCURVE",
"114 -12 CURVE SMOOTH"
);
},
{
closed = 1;
nodes = (
"162 156 OFFCURVE",
"151 178 OFFCURVE",
"151 216 CURVE SMOOTH",
"151 283 OFFCURVE",
"182 407 OFFCURVE",
"231 407 CURVE SMOOTH",
"252 407 OFFCURVE",
"267 388 OFFCURVE",
"267 355 CURVE SMOOTH",
"267 287 OFFCURVE",
"236 156 OFFCURVE",
"183 156 CURVE SMOOTH"
);
},
{
closed = 1;
nodes = (
"514 -12 OFFCURVE",
"589 67 OFFCURVE",
"619 195 CURVE",
"465 195 LINE",
"452 141 OFFCURVE",
"427 135 OFFCURVE",
"414 135 CURVE SMOOTH",
"398 135 OFFCURVE",
"373 149 OFFCURVE",
"373 201 CURVE SMOOTH",
"373 266 OFFCURVE",
"405 441 OFFCURVE",
"461 441 CURVE SMOOTH",
"487 441 OFFCURVE",
"491 403 OFFCURVE",
"485 368 CURVE",
"396 366 LINE",
"369 257 LINE",
"632 257 LINE",
"662 423 OFFCURVE",
"646 575 OFFCURVE",
"512 575 CURVE SMOOTH",
"368 575 OFFCURVE",
"261 349 OFFCURVE",
"261 172 CURVE SMOOTH",
"261 62 OFFCURVE",
"325 -12 OFFCURVE",
"405 -12 CURVE SMOOTH"
);
}
);
width = 650;
},
{
anchors = (
{
name = bottom;
position = "{266, 0}";
},
{
name = top;
position = "{369, 555}";
}
);
layerId = "A3B76219-B495-4A65-93FB-16A8FAD49F3F";
paths = (
{
closed = 1;
nodes = (
"420 556 LINE",
"317 556 LINE",
"287 443 LINE",
"217 111 LINE",
"199 0 LINE",
"302 0 LINE"
);
},
{
closed = 1;
nodes = (
"175 -12 OFFCURVE",
"222 50 OFFCURVE",
"259 144 CURVE",
"315 410 LINE",
"319 502 OFFCURVE",
"283 568 OFFCURVE",
"212 568 CURVE SMOOTH",
"75 568 OFFCURVE",
"-4 343 OFFCURVE",
"-4 179 CURVE SMOOTH",
"-4 77 OFFCURVE",
"40 -12 OFFCURVE",
"115 -12 CURVE SMOOTH"
);
},
{
closed = 1;
nodes = (
"147 119 OFFCURVE",
"139 148 OFFCURVE",
"139 189 CURVE SMOOTH",
"139 270 OFFCURVE",
"177 435 OFFCURVE",
"234 435 CURVE SMOOTH",
"256 435 OFFCURVE",
"269 413 OFFCURVE",
"269 366 CURVE SMOOTH",
"269 292 OFFCURVE",
"234 119 OFFCURVE",
"174 119 CURVE SMOOTH"
);
},
{
closed = 1;
nodes = (
"499 -12 OFFCURVE",
"577 55 OFFCURVE",
"610 191 CURVE",
"478 191 LINE",
"464 134 OFFCURVE",
"441 114 OFFCURVE",
"415 114 CURVE SMOOTH",
"393 114 OFFCURVE",
"369 133 OFFCURVE",
"369 185 CURVE SMOOTH",
"369 268 OFFCURVE",
"402 450 OFFCURVE",
"470 450 CURVE SMOOTH",
"503 450 OFFCURVE",
"507 403 OFFCURVE",
"503 362 CURVE",
"386 362 LINE",
"370 257 LINE",
"628 257 LINE",
"658 423 OFFCURVE",
"649 568 OFFCURVE",
"518 568 CURVE SMOOTH",
"373 568 OFFCURVE",
"296 314 OFFCURVE",
"296 127 CURVE SMOOTH",
"296 42 OFFCURVE",
"344 -12 OFFCURVE",
"413 -12 CURVE SMOOTH"
);
}
);
width = 650;
},
{
anchors = (
{
name = bottom;
position = "{267, 0}";
},
{
name = top;
position = "{375, 545}";
}
);
layerId = "15963509-F4CC-4A33-865A-02712DFE1B04";
paths = (
{
closed = 1;
nodes = (
"395 544 LINE",
"347 544 LINE",
"315 385 LINE",
"267 157 LINE",
"231 0 LINE",
"279 0 LINE"
);
},
{
closed = 1;
nodes = (
"193 -12 OFFCURVE",
"255 64 OFFCURVE",
"290 180 CURVE",
"330 365 LINE",
"342 463 OFFCURVE",
"313 556 OFFCURVE",
"229 556 CURVE SMOOTH",
"88 556 OFFCURVE",
"6 340 OFFCURVE",
"6 176 CURVE SMOOTH",
"6 71 OFFCURVE",
"40 -12 OFFCURVE",
"120 -12 CURVE SMOOTH"
);
},
{
closed = 1;
nodes = (
"75 30 OFFCURVE",
"54 98 OFFCURVE",
"54 178 CURVE SMOOTH",
"54 313 OFFCURVE",
"113 515 OFFCURVE",
"226 515 CURVE SMOOTH",
"277 515 OFFCURVE",
"309 464 OFFCURVE",
"309 379 CURVE SMOOTH",
"309 244 OFFCURVE",
"235 30 OFFCURVE",
"126 30 CURVE SMOOTH"
);
},
{
closed = 1;
nodes = (
"520 -12 OFFCURVE",
"586 60 OFFCURVE",
"619 175 CURVE",
"575 175 LINE",
"549 85 OFFCURVE",
"499 28 OFFCURVE",
"428 28 CURVE SMOOTH",
"367 28 OFFCURVE",
"327 77 OFFCURVE",
"327 162 CURVE SMOOTH",
"327 307 OFFCURVE",
"394 515 OFFCURVE",
"518 515 CURVE SMOOTH",
"590 515 OFFCURVE",
"615 452 OFFCURVE",
"610 367 CURVE",
"354 369 LINE",
"344 327 LINE",
"647 327 LINE",
"669 452 OFFCURVE",
"627 556 OFFCURVE",
"520 556 CURVE SMOOTH",
"369 556 OFFCURVE",
"288 328 OFFCURVE",
"288 140 CURVE SMOOTH",
"288 44 OFFCURVE",
"344 -12 OFFCURVE",
"426 -12 CURVE SMOOTH"
);
}
);
width = 650;
}
);
category = Letter;
subCategory = "";
},
{
color = 6;
glyphname = a.ss02;
lastChange = "2021-05-25 15:15:03 +0000";
layers = (
{
anchors = (
{
name = bottom;
position = "{244, 0}";
},
{
name = ogonek;
position = "{522, 0}";
},
{
name = top;
position = "{364, 564}";
}
);
layerId = "1BFF0FF0-0E64-46D7-A9A4-916803583822";
paths = (
{
closed = 1;
nodes = (
"522 0 LINE",
"599 362 LINE",
"620 483 OFFCURVE",
"552 563 OFFCURVE",
"421 563 CURVE SMOOTH",
"136 563 LINE",
"106 423 LINE",
"345 423 LINE SMOOTH",
"385 423 OFFCURVE",
"406 406 OFFCURVE",
"398 374 CURVE SMOOTH",
"395 362 LINE",
"272 362 LINE SMOOTH",
"141 362 OFFCURVE",
"53 327 OFFCURVE",
"28 220 CURVE SMOOTH",
"24 203 LINE SMOOTH",
"-1 95 OFFCURVE",
"64 0 OFFCURVE",
"195 0 CURVE SMOOTH"
);
},
{
closed = 1;
nodes = (
"229 140 OFFCURVE",
"215 158 OFFCURVE",
"219 182 CURVE SMOOTH",
"220 188 LINE SMOOTH",
"224 212 OFFCURVE",
"246 222 OFFCURVE",
"277 222 CURVE SMOOTH",
"365 222 LINE",
"348 141 LINE",
"260 140 LINE SMOOTH"
);
}
);
width = 650;
},
{
anchors = (
{
name = bottom;
position = "{244, 0}";
},
{
name = ogonek;
position = "{508, 0}";
},
{
name = top;
position = "{362, 557}";
}
);
layerId = "A3B76219-B495-4A65-93FB-16A8FAD49F3F";
paths = (
{
closed = 1;
nodes = (
"508 0 LINE",
"591 390 LINE SMOOTH",
"612 491 OFFCURVE",
"561 556 OFFCURVE",
"461 556 CURVE SMOOTH",
"142 556 LINE",
"116 431 LINE",
"393 430 LINE SMOOTH",
"426 430 OFFCURVE",
"443 408 OFFCURVE",
"436 375 CURVE SMOOTH",
"430 347 LINE",
"240 347 LINE SMOOTH",
"130 347 OFFCURVE",
"57 301 OFFCURVE",
"37 209 CURVE SMOOTH",
"34 195 LINE SMOOTH",
"10 85 OFFCURVE",
"76 0 OFFCURVE",
"186 0 CURVE SMOOTH"
);
},
{
closed = 1;
nodes = (
"197 117 OFFCURVE",
"177 142 OFFCURVE",
"183 180 CURVE SMOOTH",
"184 186 LINE SMOOTH",
"189 213 OFFCURVE",
"210 230 OFFCURVE",
"249 230 CURVE SMOOTH",
"405 230 LINE",
"381 117 LINE",
"236 117 LINE SMOOTH"
);
}
);
width = 650;
},
{
anchors = (
{
name = bottom;
position = "{247, 0}";
},
{
name = ogonek;
position = "{478, 0}";
},
{
name = top;
position = "{363, 545}";
}
);
layerId = "15963509-F4CC-4A33-865A-02712DFE1B04";
paths = (
{
closed = 1;
nodes = (
"478 0 LINE",
"564 402 LINE SMOOTH",
"582 488 OFFCURVE",
"540 544 OFFCURVE",
"457 544 CURVE SMOOTH",
"137 544 LINE",
"129 506 LINE",
"450 506 LINE SMOOTH",
"505 506 OFFCURVE",
"532 467 OFFCURVE",
"519 408 CURVE SMOOTH",
"499 316 LINE",
"232 316 LINE SMOOTH",
"140 316 OFFCURVE",
"76 275 OFFCURVE",
"58 190 CURVE SMOOTH",
"53 166 LINE SMOOTH",
"33 72 OFFCURVE",
"86 0 OFFCURVE",
"185 0 CURVE SMOOTH"
);
},
{
closed = 1;
nodes = (
"119 38 OFFCURVE",
"83 94 OFFCURVE",
"99 165 CURVE SMOOTH",
"105 191 LINE SMOOTH",
"119 252 OFFCURVE",
"163 278 OFFCURVE",
"226 278 CURVE SMOOTH",
"491 278 LINE",
"440 38 LINE",
"191 38 LINE SMOOTH"
);
}
);
width = 650;
}
);
leftMetricsKey = a;
rightMetricsKey = h;
category = Letter;
subCategory = "";
},
{
color = 6;
glyphname = ae.ss02;
lastChange = "2021-05-25 15:15:03 +0000";
layers = (
{
anchors = (
{
name = bottom;
position = "{393, 0}";
},
{
name = ogonek;
position = "{436, 0}";
},
{
name = top;
position = "{363, 563}";
}
);
layerId = "1BFF0FF0-0E64-46D7-A9A4-916803583822";
paths = (
{
closed = 1;
nodes = (
"323 0 LINE",
"400 363 LINE",
"420 492 OFFCURVE",
"367 563 OFFCURVE",
"242 563 CURVE SMOOTH",
"101 563 LINE",
"71 423 LINE",
"206 423 LINE SMOOTH",
"244 423 OFFCURVE",
"256 405 OFFCURVE",
"249 375 CURVE SMOOTH",
"246 363 LINE",
"217 363 LINE SMOOTH",
"86 363 OFFCURVE",
"20 313 OFFCURVE",
"-1 215 CURVE SMOOTH",
"-5 196 LINE SMOOTH",
"-31 71 OFFCURVE",
"38 0 OFFCURVE",
"160 0 CURVE SMOOTH"
);
},
{
closed = 1;
nodes = (
"156 141 OFFCURVE",
"135 154 OFFCURVE",
"140 183 CURVE SMOOTH",
"141 189 LINE SMOOTH",
"145 213 OFFCURVE",
"161 222 OFFCURVE",
"192 222 CURVE SMOOTH",
"216 222 LINE",
"199 141 LINE",
"180 141 LINE SMOOTH"
);
},
{
closed = 1;
nodes = (
"495 -12 OFFCURVE",
"584 64 OFFCURVE",
"618 195 CURVE",
"464 195 LINE",
"452 153 OFFCURVE",
"429 135 OFFCURVE",
"407 135 CURVE SMOOTH",
"384 135 OFFCURVE",
"373 161 OFFCURVE",
"373 203 CURVE SMOOTH",
"373 272 OFFCURVE",
"401 441 OFFCURVE",
"455 441 CURVE SMOOTH",
"482 441 OFFCURVE",
"490 405 OFFCURVE",
"485 368 CURVE",
"380 368 LINE",
"354 257 LINE",
"628 257 LINE",
"658 429 OFFCURVE",
"622 575 OFFCURVE",
"478 575 CURVE SMOOTH",
"302 575 OFFCURVE",
"220 337 OFFCURVE",
"220 174 CURVE SMOOTH",
"220 57 OFFCURVE",
"283 -12 OFFCURVE",
"387 -12 CURVE SMOOTH"
);
}
);
width = 650;
},
{
anchors = (
{
name = bottom;
position = "{469, 0}";
},
{
name = ogonek;
position = "{422, 0}";
},
{
name = top;
position = "{382, 556}";
}
);
layerId = "A3B76219-B495-4A65-93FB-16A8FAD49F3F";
paths = (
{
closed = 1;
nodes = (
"317 0 LINE",
"400 391 LINE SMOOTH",
"421 491 OFFCURVE",
"370 556 OFFCURVE",
"270 556 CURVE SMOOTH",
"81 556 LINE",
"55 431 LINE",
"203 431 LINE SMOOTH",
"236 431 OFFCURVE",
"252 407 OFFCURVE",
"245 376 CURVE SMOOTH",
"239 348 LINE",
"191 348 LINE SMOOTH",
"81 348 OFFCURVE",
"19 299 OFFCURVE",
"-3 197 CURVE SMOOTH",
"-6 183 LINE SMOOTH",
"-27 84 OFFCURVE",
"36 0 OFFCURVE",
"146 0 CURVE SMOOTH"
);
},
{
closed = 1;
nodes = (
"136 117 OFFCURVE",
"117 146 OFFCURVE",
"124 179 CURVE SMOOTH",
"125 184 LINE SMOOTH",
"132 218 OFFCURVE",
"159 231 OFFCURVE",
"199 231 CURVE SMOOTH",
"214 231 LINE",
"190 117 LINE",
"175 117 LINE SMOOTH"
);
},
{
closed = 1;
nodes = (
"517 -12 OFFCURVE",
"575 65 OFFCURVE",
"611 191 CURVE",
"479 191 LINE",
"462 146 OFFCURVE",
"448 114 OFFCURVE",
"414 114 CURVE SMOOTH",
"384 114 OFFCURVE",
"367 155 OFFCURVE",
"369 214 CURVE SMOOTH",
"371 290 OFFCURVE",
"402 450 OFFCURVE",
"465 450 CURVE SMOOTH",
"493 450 OFFCURVE",
"508 419 OFFCURVE",
"503 362 CURVE",
"377 362 LINE",
"353 257 LINE",
"628 257 LINE",
"664 450 OFFCURVE",
"602 568 OFFCURVE",
"481 568 CURVE SMOOTH",
"324 568 OFFCURVE",
"229 392 OFFCURVE",
"229 210 CURVE SMOOTH",
"229 65 OFFCURVE",
"255 -12 OFFCURVE",
"393 -12 CURVE SMOOTH"
);
}
);
width = 650;
},
{
anchors = (
{
name = bottom;
position = "{432, 0}";
},
{
name = ogonek;
position = "{398, 0}";
},
{
name = top;
position = "{366, 544}";
}
);
layerId = "15963509-F4CC-4A33-865A-02712DFE1B04";
paths = (
{
closed = 1;
nodes = (
"259 0 LINE",
"345 403 LINE SMOOTH",
"365 495 OFFCURVE",
"327 544 OFFCURVE",
"228 544 CURVE SMOOTH",
"78 544 LINE",
"70 506 LINE",
"231 506 LINE SMOOTH",
"295 506 OFFCURVE",
"313 474 OFFCURVE",
"300 409 CURVE SMOOTH",
"281 317 LINE",
"174 317 LINE SMOOTH",
"88 317 OFFCURVE",
"20 268 OFFCURVE",
"2 181 CURVE SMOOTH",
"-3 157 LINE SMOOTH",
"-21 72 OFFCURVE",
"20 0 OFFCURVE",
"106 0 CURVE SMOOTH"
);
},
{
closed = 1;
nodes = (
"55 38 OFFCURVE",
"29 90 OFFCURVE",
"41 152 CURVE SMOOTH",
"46 177 LINE SMOOTH",
"59 241 OFFCURVE",
"107 279 OFFCURVE",
"167 279 CURVE SMOOTH",
"272 279 LINE",
"221 38 LINE",
"116 38 LINE SMOOTH"
);
},
{
closed = 1;
nodes = (
"519 -12 OFFCURVE",
"577 59 OFFCURVE",
"609 175 CURVE",
"565 175 LINE",
"541 84 OFFCURVE",
"491 28 OFFCURVE",
"417 28 CURVE SMOOTH",
"355 28 OFFCURVE",
"303 72 OFFCURVE",
"303 159 CURVE SMOOTH",
"303 277 OFFCURVE",
"371 515 OFFCURVE",
"505 515 CURVE SMOOTH",
"579 515 OFFCURVE",
"602 443 OFFCURVE",
"598 357 CURVE",
"334 357 LINE",
"325 315 LINE",
"638 315 LINE",
"658 442 OFFCURVE",
"618 556 OFFCURVE",
"507 556 CURVE SMOOTH",
"343 556 OFFCURVE",
"259 322 OFFCURVE",
"259 156 CURVE SMOOTH",
"259 50 OFFCURVE",
"328 -12 OFFCURVE",
"415 -12 CURVE SMOOTH"
);
}
);
width = 650;
}
);
leftMetricsKey = a.ss02;
rightMetricsKey = e;
category = Letter;
subCategory = "";
},
{
color = 6;
glyphname = b.ss03;
lastChange = "2021-05-25 15:15:03 +0000";
layers = (
{
anchors = (
{
name = bottom;
position = "{225, 102}";
},
{
name = center;
position = "{173, 180}";
},
{
name = top;
position = "{372, 564}";
},
{
name = topright;
position = "{477, 564}";
}
);
layerId = "1BFF0FF0-0E64-46D7-A9A4-916803583822";
paths = (
{
closed = 1;
nodes = (
"315 0 LINE SMOOTH",
"461 0 OFFCURVE",
"564 71 OFFCURVE",
"591 200 CURVE SMOOTH",
"614 311 LINE SMOOTH",
"648 473 OFFCURVE",
"580 563 OFFCURVE",
"435 563 CURVE SMOOTH",
"321 563 LINE",
"358 740 LINE",
"142 740 LINE",
"-15 0 LINE"
);
},
{
closed = 1;
nodes = (
"284 391 LINE",
"349 391 LINE SMOOTH",
"390 391 OFFCURVE",
"408 363 OFFCURVE",
"400 325 CURVE SMOOTH",
"379 228 LINE SMOOTH",
"371 193 OFFCURVE",
"344 172 OFFCURVE",
"303 172 CURVE SMOOTH",
"238 172 LINE"
);
}
);
width = 650;
},
{
anchors = (
{
name = bottom;
position = "{266, 0}";
},
{
name = center;
position = "{143, 278}";
},
{
name = top;
position = "{384, 557}";
},
{
name = topright;
position = "{409, 557}";
}
);
layerId = "A3B76219-B495-4A65-93FB-16A8FAD49F3F";
paths = (
{
closed = 1;
nodes = (
"316 0 LINE SMOOTH",
"443 0 OFFCURVE",
"541 76 OFFCURVE",
"567 195 CURVE SMOOTH",
"599 342 LINE SMOOTH",
"627 472 OFFCURVE",
"551 556 OFFCURVE",
"424 556 CURVE SMOOTH",
"278 556 LINE",
"317 740 LINE",
"162 740 LINE",
"5 0 LINE"
);
},
{
closed = 1;
nodes = (
"251 430 LINE",
"381 430 LINE SMOOTH",
"432 430 OFFCURVE",
"457 393 OFFCURVE",
"445 336 CURVE SMOOTH",
"417 200 LINE SMOOTH",
"408 155 OFFCURVE",
"367 125 OFFCURVE",
"316 125 CURVE SMOOTH",
"186 125 LINE"
);
}
);
width = 650;
},
{
anchors = (
{
name = bottom;
position = "{277, 0}";
},
{
name = center;
position = "{125, 272}";
},
{
name = top;
position = "{393, 545}";
},
{
name = topright;
position = "{272, 545}";
}
);
layerId = "15963509-F4CC-4A33-865A-02712DFE1B04";
paths = (
{
closed = 1;
nodes = (
"364 0 LINE SMOOTH",
"446 0 OFFCURVE",
"510 54 OFFCURVE",
"527 136 CURVE SMOOTH",
"580 388 LINE SMOOTH",
"600 482 OFFCURVE",
"547 544 OFFCURVE",
"454 544 CURVE SMOOTH",
"203 544 LINE",
"242 730 LINE",
"196 730 LINE",
"41 0 LINE"
);
},
{
closed = 1;
nodes = (
"195 506 LINE",
"450 506 LINE SMOOTH",
"517 506 OFFCURVE",
"550 460 OFFCURVE",
"535 389 CURVE SMOOTH",
"481 136 LINE SMOOTH",
"468 77 OFFCURVE",
"422 38 OFFCURVE",
"368 38 CURVE SMOOTH",
"95 38 LINE"
);
}
);
width = 650;
}
);
leftMetricsKey = h;
rightMetricsKey = h;
category = Letter;
subCategory = "";
},
{
color = 6;
glyphname = d.ss03;
lastChange = "2021-05-25 15:15:03 +0000";
layers = (
{
anchors = (
{
name = bottom;
position = "{349, 102}";
},
{
name = center;
position = "{364, 281}";
},
{
name = top;
position = "{398, 564}";
},
{
name = topleft;
position = "{293, 564}";
},
{
name = topright;
position = "{804, 563}";
}
);
layerId = "1BFF0FF0-0E64-46D7-A9A4-916803583822";
paths = (
{
closed = 1;
nodes = (
"702 740 LINE",
"486 740 LINE",
"449 563 LINE",
"325 563 LINE SMOOTH",
"173 563 OFFCURVE",
"88 495 OFFCURVE",
"57 351 CURVE SMOOTH",
"33 239 LINE SMOOTH",
"2 93 OFFCURVE",
"84 0 OFFCURVE",
"226 0 CURVE SMOOTH",
"545 0 LINE"
);
},
{
closed = 1;
nodes = (
"301 172 LINE SMOOTH",
"258 172 OFFCURVE",
"240 191 OFFCURVE",
"251 244 CURVE SMOOTH",
"270 335 LINE SMOOTH",
"277 369 OFFCURVE",
"300 391 OFFCURVE",
"333 391 CURVE SMOOTH",
"412 391 LINE",
"366 172 LINE"
);
}
);
width = 650;
},
{
anchors = (
{
name = bottom;
position = "{266, 0}";
},
{
name = center;
position = "{356, 278}";
},
{
name = top;
position = "{384, 557}";
},
{
name = topleft;
position = "{359, 557}";
},
{
name = topright;
position = "{762, 556}";
}
);
layerId = "A3B76219-B495-4A65-93FB-16A8FAD49F3F";
paths = (
{
closed = 1;
nodes = (
"684 740 LINE",
"529 740 LINE",
"490 556 LINE",
"324 556 LINE SMOOTH",
"202 556 OFFCURVE",
"107 479 OFFCURVE",
"82 360 CURVE SMOOTH",
"51 213 LINE SMOOTH",
"24 83 OFFCURVE",
"89 0 OFFCURVE",
"216 0 CURVE SMOOTH",
"527 0 LINE"
);
},
{
closed = 1;
nodes = (
"268 125 LINE SMOOTH",
"217 125 OFFCURVE",
"191 158 OFFCURVE",
"202 209 CURVE SMOOTH",
"235 366 LINE SMOOTH",
"242 401 OFFCURVE",
"275 430 OFFCURVE",
"316 430 CURVE SMOOTH",
"463 430 LINE",
"398 125 LINE"
);
}
);
width = 650;
},
{
anchors = (
{
name = bottom;
position = "{257, 0}";
},
{
name = center;
position = "{336, 272}";
},
{
name = top;
position = "{373, 545}";
},
{
name = topleft;
position = "{494, 545}";
},
{
name = topright;
position = "{678, 544}";
}
);
layerId = "15963509-F4CC-4A33-865A-02712DFE1B04";
paths = (
{
closed = 1;
nodes = (
"646 730 LINE",
"600 730 LINE",
"559 544 LINE",
"295 544 LINE SMOOTH",
"206 544 OFFCURVE",
"138 493 OFFCURVE",
"121 415 CURVE SMOOTH",
"66 158 LINE SMOOTH",
"45 62 OFFCURVE",
"97 0 OFFCURVE",
"193 0 CURVE SMOOTH",
"490 0 LINE"
);
},
{
closed = 1;
nodes = (
"199 38 LINE SMOOTH",
"130 38 OFFCURVE",
"97 85 OFFCURVE",
"112 156 CURVE SMOOTH",
"167 409 LINE SMOOTH",
"181 472 OFFCURVE",
"226 506 OFFCURVE",
"296 506 CURVE SMOOTH",
"551 506 LINE",
"451 38 LINE"
);
}
);
width = 650;
}
);
leftMetricsKey = "=|h";
rightMetricsKey = "=h";
category = Letter;
subCategory = "";
},
{
color = 6;
glyphname = dcroat.ss03;
lastChange = "2021-05-25 15:15:03 +0000";
layers = (
{
anchors = (
{
name = _center;
position = "{517, 639}";
}
);
layerId = "1BFF0FF0-0E64-46D7-A9A4-916803583822";
paths = (
{
closed = 1;
nodes = (
"697 740 LINE",
"481 740 LINE",
"435 523 LINE",
"301 523 LINE SMOOTH",
"161 523 OFFCURVE",
"73 443 OFFCURVE",
"47 321 CURVE SMOOTH",
"34 261 LINE SMOOTH",
"0 103 OFFCURVE",
"89 0 OFFCURVE",
"230 0 CURVE SMOOTH",
"540 0 LINE"
);
},
{
closed = 1;
nodes = (
"296 172 LINE SMOOTH",
"257 172 OFFCURVE",
"235 198 OFFCURVE",
"244 239 CURVE SMOOTH",
"256 296 LINE SMOOTH",
"263 329 OFFCURVE",
"290 351 OFFCURVE",
"324 351 CURVE SMOOTH",
"399 351 LINE",
"361 172 LINE"
);
},
{
closed = 1;
nodes = (
"708 578 LINE",
"734 698 LINE",
"325 698 LINE",
"300 578 LINE"
);
}
);
width = 650;
},
{
anchors = (
{
name = _center;
position = "{524, 635}";
}
);
layerId = "A3B76219-B495-4A65-93FB-16A8FAD49F3F";
paths = (
{
closed = 1;
nodes = (
"682 740 LINE",
"527 740 LINE",
"477 506 LINE",
"301 506 LINE SMOOTH",
"182 506 OFFCURVE",
"91 443 OFFCURVE",
"68 331 CURVE SMOOTH",
"48 234 LINE SMOOTH",
"18 88 OFFCURVE",
"94 -1 OFFCURVE",
"224 -1 CURVE SMOOTH",
"525 0 LINE"
);
},
{
closed = 1;
nodes = (
"256 125 LINE SMOOTH",
"211 125 OFFCURVE",
"190 158 OFFCURVE",
"200 209 CURVE SMOOTH",
"222 316 LINE SMOOTH",
"231 360 OFFCURVE",
"255 380 OFFCURVE",
"301 380 CURVE SMOOTH",
"451 380 LINE",
"396 125 LINE"
);
},
{
closed = 1;
nodes = (
"707 580 LINE",
"731 690 LINE",
"340 690 LINE",
"317 580 LINE"
);
}
);
width = 650;
},
{
anchors = (
{
name = _center;
position = "{563, 634}";
}
);
layerId = "15963509-F4CC-4A33-865A-02712DFE1B04";
paths = (
{
closed = 1;
nodes = (
"651 730 LINE",
"605 730 LINE",
"558 506 LINE",
"288 506 LINE SMOOTH",
"202 506 OFFCURVE",
"136 457 OFFCURVE",
"120 381 CURVE SMOOTH",
"70 146 LINE SMOOTH",
"51 58 OFFCURVE",
"104 0 OFFCURVE",
"199 0 CURVE SMOOTH",
"496 0 LINE"
);
},
{
closed = 1;
nodes = (
"203 38 LINE SMOOTH",
"136 38 OFFCURVE",
"102 80 OFFCURVE",
"116 145 CURVE SMOOTH",
"166 380 LINE SMOOTH",
"177 433 OFFCURVE",
"225 468 OFFCURVE",
"285 468 CURVE SMOOTH",
"550 468 LINE",
"458 38 LINE"
);
},
{
closed = 1;
nodes = (
"712 615 LINE",
"720 653 LINE",
"415 653 LINE",
"407 615 LINE"
);
}
);
width = 650;
}
);
leftMetricsKey = h;
category = Letter;
subCategory = "";
},
{
color = 6;
glyphname = p.ss03;
lastChange = "2021-05-25 15:15:03 +0000";
layers = (
{
anchors = (
{
name = bottom;
position = "{262, 0}";
},
{
name = top;
position = "{382, 564}";
}
);
layerId = "1BFF0FF0-0E64-46D7-A9A4-916803583822";
paths = (
{
closed = 1;
nodes = (
"-52 -177 LINE",
"164 -177 LINE",
"201 0 LINE",
"315 0 LINE SMOOTH",
"437 0 OFFCURVE",
"560 50 OFFCURVE",
"592 205 CURVE SMOOTH",
"616 323 LINE SMOOTH",
"641 448 OFFCURVE",
"601 563 OFFCURVE",
"435 563 CURVE SMOOTH",
"105 563 LINE"
);
},
{
closed = 1;
nodes = (
"349 391 LINE SMOOTH",
"392 391 OFFCURVE",
"409 369 OFFCURVE",
"400 326 CURVE SMOOTH",
"380 232 LINE SMOOTH",
"372 194 OFFCURVE",
"346 172 OFFCURVE",
"302 172 CURVE SMOOTH",
"238 172 LINE",
"284 391 LINE"
);
}
);
width = 650;
},
{
anchors = (
{
name = bottom;
position = "{271, 0}";
},
{
name = top;
position = "{389, 557}";
}
);
layerId = "A3B76219-B495-4A65-93FB-16A8FAD49F3F";
paths = (
{
closed = 1;
nodes = (
"-33 -178 LINE",
"123 -178 LINE",
"161 0 LINE",
"317 0 LINE SMOOTH",
"446 0 OFFCURVE",
"541 81 OFFCURVE",
"565 189 CURVE SMOOTH",
"599 343 LINE SMOOTH",
"628 475 OFFCURVE",
"546 556 OFFCURVE",
"425 556 CURVE SMOOTH",
"123 556 LINE"
);
},
{
closed = 1;
nodes = (
"381 430 LINE SMOOTH",
"430 430 OFFCURVE",
"457 396 OFFCURVE",
"445 336 CURVE SMOOTH",
"417 200 LINE SMOOTH",
"408 156 OFFCURVE",
"367 125 OFFCURVE",
"318 125 CURVE SMOOTH",
"186 125 LINE",
"251 430 LINE"
);
}
);
width = 650;
},
{
anchors = (
{
name = bottom;
position = "{271, 0}";
},
{
name = top;
position = "{387, 545}";
}
);
layerId = "15963509-F4CC-4A33-865A-02712DFE1B04";
paths = (
{
closed = 1;
nodes = (
"3 -178 LINE",
"49 -178 LINE",
"87 0 LINE",
"364 0 LINE SMOOTH",
"450 0 OFFCURVE",
"511 59 OFFCURVE",
"527 136 CURVE SMOOTH",
"580 388 LINE SMOOTH",
"600 484 OFFCURVE",
"544 544 OFFCURVE",
"456 544 CURVE SMOOTH",
"157 544 LINE"
);
},
{
closed = 1;
nodes = (
"450 506 LINE SMOOTH",
"513 506 OFFCURVE",
"551 463 OFFCURVE",
"535 389 CURVE SMOOTH",
"483 143 LINE SMOOTH",
"470 82 OFFCURVE",
"428 38 OFFCURVE",
"364 38 CURVE SMOOTH",
"95 38 LINE",
"195 506 LINE"
);
}
);
width = 650;
}
);
leftMetricsKey = h;
rightMetricsKey = h;
category = Letter;
subCategory = "";
},
{
color = 6;
glyphname = thorn.ss03;
lastChange = "2021-05-25 15:15:03 +0000";
layers = (
{
layerId = "1BFF0FF0-0E64-46D7-A9A4-916803583822";
paths = (
{
closed = 1;
nodes = (
"351 740 LINE",
"135 740 LINE",
"-59 -178 LINE",
"157 -178 LINE",
"194 0 LINE",
"308 0 LINE SMOOTH",
"463 0 OFFCURVE",
"558 79 OFFCURVE",
"583 198 CURVE SMOOTH",
"607 312 LINE SMOOTH",
"643 484 OFFCURVE",
"564 563 OFFCURVE",
"428 563 CURVE SMOOTH",
"314 563 LINE"
);
},
{
closed = 1;
nodes = (
"366 194 OFFCURVE",
"339 172 OFFCURVE",
"296 172 CURVE SMOOTH",
"231 172 LINE",
"277 391 LINE",
"342 391 LINE SMOOTH",
"385 391 OFFCURVE",
"402 369 OFFCURVE",
"393 326 CURVE SMOOTH",
"375 237 LINE SMOOTH"
);
}
);
width = 650;
},
{
layerId = "A3B76219-B495-4A65-93FB-16A8FAD49F3F";
paths = (
{
closed = 1;
nodes = (
"312 740 LINE",
"157 740 LINE",
"-38 -178 LINE",
"118 -178 LINE",
"156 0 LINE",
"311 0 LINE SMOOTH",
"438 0 OFFCURVE",
"535 77 OFFCURVE",
"560 190 CURVE SMOOTH",
"594 343 LINE SMOOTH",
"623 473 OFFCURVE",
"543 556 OFFCURVE",
"420 556 CURVE SMOOTH",
"273 556 LINE"
);
},
{
closed = 1;
nodes = (
"404 160 OFFCURVE",
"367 125 OFFCURVE",
"311 125 CURVE SMOOTH",
"181 125 LINE",
"246 430 LINE",
"376 430 LINE SMOOTH",
"428 430 OFFCURVE",
"451 392 OFFCURVE",
"440 337 CURVE SMOOTH",
"412 200 LINE SMOOTH"
);
}
);
width = 650;
},
{
layerId = "15963509-F4CC-4A33-865A-02712DFE1B04";
paths = (
{
closed = 1;
nodes = (
"240 730 LINE",
"194 730 LINE",
"1 -178 LINE",
"47 -178 LINE",
"85 0 LINE",
"361 0 LINE SMOOTH",
"449 0 OFFCURVE",
"509 59 OFFCURVE",
"525 136 CURVE SMOOTH",
"578 389 LINE SMOOTH",
"598 484 OFFCURVE",
"542 544 OFFCURVE",
"456 544 CURVE SMOOTH",
"201 544 LINE"
);
},
{
closed = 1;
nodes = (
"467 80 OFFCURVE",
"427 38 OFFCURVE",
"358 38 CURVE SMOOTH",
"93 38 LINE",
"193 506 LINE",
"448 506 LINE SMOOTH",
"510 506 OFFCURVE",
"549 463 OFFCURVE",
"533 389 CURVE SMOOTH",
"481 144 LINE SMOOTH"
);
}
);
width = 650;
}
);
leftMetricsKey = h;
rightMetricsKey = h;
category = Letter;
subCategory = "";
},
{
color = 6;
glyphname = q.ss03;
lastChange = "2021-05-25 15:15:03 +0000";
layers = (
{
anchors = (
{
name = bottom;
position = "{348, 0}";
},
{
name = top;
position = "{348, 563}";
}
);
layerId = "1BFF0FF0-0E64-46D7-A9A4-916803583822";
paths = (
{
closed = 1;
nodes = (
"317 563 LINE SMOOTH",
"152 563 OFFCURVE",
"77 476 OFFCURVE",
"53 362 CURVE SMOOTH",
"27 238 LINE SMOOTH",
"-3 95 OFFCURVE",
"77 0 OFFCURVE",
"217 0 CURVE SMOOTH",
"321 0 LINE",
"284 -177 LINE",
"500 -177 LINE",
"657 563 LINE"
);
},
{
closed = 1;
nodes = (
"359 172 LINE",
"293 172 LINE SMOOTH",
"250 172 OFFCURVE",
"234 196 OFFCURVE",
"243 240 CURVE SMOOTH",
"262 331 LINE SMOOTH",
"270 369 OFFCURVE",
"290 391 OFFCURVE",
"330 391 CURVE SMOOTH",
"405 391 LINE"
);
}
);
width = 650;
},
{
anchors = (
{
name = bottom;
position = "{337, 0}";
},
{
name = top;
position = "{337, 556}";
}
);
layerId = "A3B76219-B495-4A65-93FB-16A8FAD49F3F";
paths = (
{
closed = 1;
nodes = (
"328 556 LINE SMOOTH",
"188 556 OFFCURVE",
"100 475 OFFCURVE",
"75 352 CURVE SMOOTH",
"46 210 LINE SMOOTH",
"21 86 OFFCURVE",
"82 0 OFFCURVE",
"210 0 CURVE SMOOTH",
"366 0 LINE",
"328 -178 LINE",
"484 -178 LINE",
"640 556 LINE"
);
},
{
closed = 1;
nodes = (
"393 125 LINE",
"262 125 LINE SMOOTH",
"212 125 OFFCURVE",
"186 158 OFFCURVE",
"197 209 CURVE SMOOTH",
"230 366 LINE SMOOTH",
"238 405 OFFCURVE",
"276 430 OFFCURVE",
"309 430 CURVE SMOOTH",
"458 430 LINE"
);
}
);
width = 650;
},
{
anchors = (
{
name = bottom;
position = "{317, 0}";
},
{
name = top;
position = "{317, 544}";
}
);
layerId = "15963509-F4CC-4A33-865A-02712DFE1B04";
paths = (
{
closed = 1;
nodes = (
"293 544 LINE SMOOTH",
"212 544 OFFCURVE",
"138 495 OFFCURVE",
"122 419 CURVE SMOOTH",
"66 156 LINE SMOOTH",
"45 59 OFFCURVE",
"103 0 OFFCURVE",
"189 0 CURVE SMOOTH",
"444 0 LINE",
"406 -178 LINE",
"452 -178 LINE",
"606 544 LINE"
);
},
{
closed = 1;
nodes = (
"452 38 LINE",
"197 38 LINE SMOOTH",
"135 38 OFFCURVE",
"96 81 OFFCURVE",
"112 154 CURVE SMOOTH",
"168 412 LINE SMOOTH",
"183 480 OFFCURVE",
"237 506 OFFCURVE",
"292 506 CURVE SMOOTH",
"551 506 LINE"
);
}
);
width = 650;
}
);
leftMetricsKey = d.ss03;
category = Letter;
subCategory = "";
},
{
color = 6;
glyphname = c.ss04;
lastChange = "2021-05-25 15:15:03 +0000";
layers = (
{
anchors = (
{
name = bottom;
position = "{337, 0}";
},
{
name = top;
position = "{432, 564}";
}
);
layerId = "1BFF0FF0-0E64-46D7-A9A4-916803583822";
paths = (
{
closed = 1;
nodes = (
"525 0 LINE",
"562 171 LINE",
"374 171 LINE SMOOTH",
"310 171 OFFCURVE",
"269 210 OFFCURVE",
"269 270 CURVE SMOOTH",
"269 343 OFFCURVE",
"325 391 OFFCURVE",
"410 391 CURVE SMOOTH",
"608 391 LINE",
"645 563 LINE",
"387 563 LINE SMOOTH",
"182 563 OFFCURVE",
"48 439 OFFCURVE",
"48 248 CURVE SMOOTH",
"48 97 OFFCURVE",
"154 0 OFFCURVE",
"317 0 CURVE SMOOTH"
);
}
);
width = 650;
},
{
anchors = (
{
name = bottom;
position = "{332, 0}";
},
{
name = top;
position = "{434, 557}";
}
);
layerId = "A3B76219-B495-4A65-93FB-16A8FAD49F3F";
paths = (
{
closed = 1;
nodes = (
"516 0 LINE",
"543 126 LINE",
"329 126 LINE SMOOTH",
"261 126 OFFCURVE",
"217 177 OFFCURVE",
"217 256 CURVE SMOOTH",
"217 361 OFFCURVE",
"286 430 OFFCURVE",
"393 430 CURVE SMOOTH",
"607 430 LINE",
"634 556 LINE",
"410 556 LINE SMOOTH",
"197 556 OFFCURVE",
"58 431 OFFCURVE",
"58 240 CURVE SMOOTH",
"58 95 OFFCURVE",
"158 0 OFFCURVE",
"312 0 CURVE SMOOTH"
);
}
);
width = 650;
},
{
anchors = (
{
name = bottom;
position = "{324, 0}";
},
{
name = top;
position = "{441, 545}";
}
);
layerId = "15963509-F4CC-4A33-865A-02712DFE1B04";
rightMetricsKey = "=o-5";
paths = (
{
closed = 1;
nodes = (
"504 0 LINE",
"512 38 LINE",
"309 38 LINE SMOOTH",
"192 38 OFFCURVE",
"117 120 OFFCURVE",
"117 247 CURVE SMOOTH",
"117 404 OFFCURVE",
"228 506 OFFCURVE",
"399 506 CURVE SMOOTH",
"612 506 LINE",
"620 544 LINE",
"404 544 LINE SMOOTH",
"200 544 OFFCURVE",
"69 426 OFFCURVE",
"69 245 CURVE SMOOTH",
"69 97 OFFCURVE",
"161 0 OFFCURVE",
"304 0 CURVE SMOOTH"
);
}
);
width = 650;
}
);
leftMetricsKey = o;
rightMetricsKey = h;
category = Letter;
subCategory = "";
},
